<svg version="1.1" id="Layer_1" xmlns="http://www.w3.org/2000/svg" xmlns:xlink="http://www.w3.org/1999/xlink" x="0px" y="0px"
	 width="100%" viewBox="0 0 800 600" enable-background="new 0 0 800 600" xml:space="preserve">
<path fill="currentColor" opacity="1.000000" stroke="none" 
	d="
M150.000000,150.000000 
	C183.333328,150.000000 216.666656,150.000000 250.000000,150.000000 
	C283.333344,150.000000 316.666656,150.000000 350.000000,150.000000 
	C383.333344,150.000000 416.666656,150.000000 450.000000,150.000000 
	C483.333344,150.000000 516.666656,150.000000 550.000000,150.000000 
	C583.333344,150.000000 616.666656,150.000000 650.000000,150.000000 
	C650.000000,183.333328 650.000000,216.666656 650.000000,250.000000 
	C650.000000,283.333344 650.000000,316.666656 650.000000,350.000000 
	C650.000000,383.333344 650.000000,416.666656 650.000000,450.000000 
	C616.666656,450.000000 583.333344,450.000000 550.000000,450.000000 
	C516.666656,450.000000 483.333344,450.000000 450.000000,450.000000 
	C416.666656,450.000000 383.333344,450.000000 350.000000,450.000000 
	C316.666656,450.000000 283.333344,450.000000 250.000000,450.000000 
	C216.666656,450.000000 183.333328,450.000000 150.000000,450.000000 
	C150.000000,416.666656 150.000000,383.333344 150.000000,350.000000 
	C150.000000,316.666656 150.000000,283.333344 150.000000,250.000000 
	C150.000000,216.666656 150.000000,183.333328 150.000000,150.000000 
z"/>
<path fill="currentColor" opacity="1.000000" stroke="none" 
	d="
M200.000000,200.000000 
	C233.333328,200.000000 266.666656,200.000000 300.000000,200.000000 
	C333.333344,200.000000 366.666656,200.000000 400.000000,200.000000 
	C433.333344,200.000000 466.666656,200.000000 500.000000,200.000000 
	C533.333344,200.000000 566.666656,200.000000 600.000000,200.000000 
	C600.000000,233.333328 600.000000,266.666656 600.000000,300.000000 
	C600.000000,333.333344 600.000000,366.666656 600.000000,400.000000 
	C566.666656,400.000000 533.333344,400.000000 500.000000,400.000000 
	C466.666656,400.000000 433.333344,400.000000 400.000000,400.000000 
	C366.666656,400.000000 333.333344,400.000000 300.000000,400.000000 
	C266.666656,400.000000 233.333328,400.000000 200.000000,400.000000 
	C200.000000,366.666656 200.000000,333.333344 200.000000,300.000000 
	C200.000000,266.666656 200.000000,233.333328 200.000000,200.000000 
z"/>
<path fill="currentColor" opacity="0.800000" stroke="none" 
	d="
M250.000000,250.000000 
	C300.000000,250.000000 350.000000,250.000000 400.000000,250.000000 
	C450.000000,250.000000 500.000000,250.000000 550.000000,250.000000 
	C550.000000,300.000000 550.000000,350.000000 550.000000,400.000000 
	C500.000000,400.000000 450.000000,400.000000 400.000000,400.000000 
	C350.000000,400.000000 300.000000,400.000000 250.000000,400.000000 
	C250.000000,350.000000 250.000000,300.000000 250.000000,250.000000 
z"/>
</svg>
