<svg version="1.1" id="Layer_1" xmlns="http://www.w3.org/2000/svg" xmlns:xlink="http://www.w3.org/1999/xlink" x="0px" y="0px"
	 width="100%" viewBox="0 0 708 472" enable-background="new 0 0 708 472" xml:space="preserve">
<path fill="currentColor" opacity="1.000000" stroke="none" 
	d="
M217.984451,195.166321 
	C219.319168,193.991989 220.653885,192.817673 222.288010,190.945404 
	C222.447571,180.528488 222.307724,170.809525 222.167877,161.090546 
	C220.881927,159.754486 219.595963,158.418411 217.635101,156.754120 
	C215.813995,156.291656 214.667862,156.040573 213.521622,156.040176 
	C179.324921,156.028168 145.128220,156.040970 110.931526,156.049866 
	C103.960518,155.748108 98.219208,153.174973 95.797768,146.247116 
	C93.384590,139.342896 94.769600,132.551697 100.064438,127.617722 
	C106.664581,121.467407 113.930069,116.003914 121.112656,110.511108 
	C140.145798,95.955711 159.286880,81.541443 178.395721,67.085175 
	C179.178024,66.493332 180.143478,66.135185 180.895569,65.513329 
	C183.778778,63.129383 187.161575,58.823822 190.543320,61.568638 
	C194.859207,65.071686 198.000320,70.322311 200.679733,75.336945 
	C201.376907,76.641731 199.053085,80.624107 197.134476,82.097633 
	C179.156006,95.905350 160.956741,109.425400 142.839508,123.052773 
	C139.292374,125.720833 135.745346,128.401108 132.368652,131.275894 
	C131.420761,132.082886 131.079773,133.602707 130.753540,135.156097 
	C131.046677,135.516647 131.053909,135.868530 131.384796,136.113861 
	C133.173096,136.571609 134.630249,136.967636 136.087906,136.969421 
	C165.773819,137.005783 195.459793,137.009979 225.145676,136.961884 
	C226.755066,136.959274 228.363617,136.443588 229.972565,136.166733 
	C242.129593,137.283966 247.120926,140.335342 247.902405,155.092148 
	C248.462906,165.676498 248.071106,176.315598 247.962540,186.928802 
	C247.923447,190.749969 249.024002,193.691498 253.220840,195.829575 
	C254.699310,196.577667 255.665115,196.955978 256.631775,196.958130 
	C274.130493,196.997055 291.629395,197.007690 309.128052,196.959000 
	C310.414795,196.955414 311.700134,196.453812 312.986145,196.183746 
	C312.986145,196.183746 313.431732,196.052155 313.863739,195.907837 
	C314.551361,195.594528 314.781738,195.396255 314.986938,195.168686 
	C321.119507,194.170959 320.859528,189.193893 320.926697,184.911880 
	C321.133148,171.757462 320.987000,158.597733 321.008148,145.440125 
	C321.019165,138.590042 323.665833,136.017426 330.575195,136.028870 
	C332.740387,136.032455 334.905670,136.015961 337.070709,136.033203 
	C342.838257,136.079132 345.253632,138.288010 346.023438,145.065613 
	C346.040497,161.293488 346.066803,176.662155 346.093079,192.030838 
	C345.732666,195.455353 345.640900,198.934631 344.956238,202.293045 
	C343.506683,209.403625 337.717743,214.781723 330.591370,215.914978 
	C327.682343,216.377594 324.735901,216.604736 321.060364,216.626190 
	C318.991486,216.215485 317.668732,216.031906 316.345947,216.031876 
	C212.289520,216.030441 108.233086,216.043381 4.176652,216.055252 
	C4.084230,207.245178 11.742435,199.115494 22.263315,197.087570 
	C25.466282,196.470169 28.759394,196.320450 32.784718,196.138474 
	C35.350983,196.546844 37.143635,196.970093 38.936539,196.971191 
	C96.003769,197.005981 153.071014,197.007889 210.138229,196.965515 
	C212.087708,196.964066 214.036804,196.455856 215.986084,196.183838 
	C215.986084,196.183838 216.432007,196.052307 216.863846,195.907745 
	C217.550781,195.593643 217.780365,195.394699 217.984451,195.166321 
z"/>
<path fill="currentColor" opacity="1.000000" stroke="none" 
	d="
M488.985016,196.183228 
	C488.985016,196.183228 489.430725,196.051376 489.856445,195.902420 
	C490.527405,195.577591 490.742249,195.370209 490.926666,195.131317 
	C494.003265,194.666412 495.796265,192.977112 496.309875,189.066071 
	C496.686035,173.966339 496.778900,159.591843 496.829834,145.217224 
	C496.831360,144.788620 496.393158,144.358444 496.159973,143.929001 
	C498.878815,136.018845 498.894379,136.346359 507.214935,135.950897 
	C519.122192,135.384979 522.333923,136.750229 522.045654,150.975143 
	C521.802979,162.945465 522.048035,174.924988 521.965454,186.899643 
	C521.939209,190.709702 523.004578,193.700058 527.232910,195.834290 
	C528.709595,196.580780 529.675537,196.956375 530.642334,196.958496 
	C548.137695,196.997086 565.633179,197.007721 583.128418,196.958923 
	C584.414978,196.955353 585.700012,196.453781 586.985779,196.183716 
	C586.985779,196.183716 587.431763,196.052063 587.863892,195.907867 
	C588.551636,195.595139 588.782104,195.397293 588.987488,195.170166 
	C592.827026,194.729950 594.145752,192.060257 594.817932,187.885345 
	C594.891541,173.043610 594.845642,159.029556 594.799744,145.015503 
	C595.334351,137.366867 596.801331,136.014084 604.540588,136.028748 
	C606.705017,136.032837 608.872375,135.959076 611.033264,136.047302 
	C617.363037,136.305740 619.985840,139.044098 619.981384,145.255981 
	C619.971863,158.408890 619.898254,171.562424 620.008850,184.714355 
	C620.046265,189.162766 620.354492,193.707016 626.070557,196.201050 
	C641.594849,196.678406 656.430420,196.840134 671.266174,196.859955 
	C672.158508,196.861145 673.052429,195.730255 673.945618,195.126160 
	C675.638367,193.348511 677.331116,191.570862 679.303711,189.071625 
	C679.717041,174.983017 679.870361,161.616104 679.946899,148.248779 
	C679.953125,147.157791 679.435730,146.063812 679.161743,144.971222 
	C681.179749,136.418930 681.669861,136.024277 690.257507,136.028854 
	C692.246460,136.029907 694.243835,136.145157 696.222534,136.002090 
	C700.210632,135.713730 702.853394,137.280090 703.979065,142.042816 
	C704.027771,158.152359 704.036682,173.422348 704.125183,188.691879 
	C704.135437,190.463379 704.586975,192.232300 704.833923,194.002426 
	C704.213806,206.041504 700.585693,214.518509 685.627441,216.046326 
	C684.015259,216.210999 682.429688,216.635452 680.095215,216.616562 
	C678.201233,216.202347 677.043884,216.031143 675.886475,216.030991 
	C583.650696,216.018494 491.414948,216.015778 399.179199,216.052933 
	C397.767487,216.053497 396.355927,216.559250 394.944305,216.829224 
	C392.189545,216.485779 389.383820,216.367599 386.689270,215.757980 
	C377.415802,213.659851 371.976227,206.566010 371.998199,196.888260 
	C372.001953,195.225250 371.984283,193.562210 371.965027,190.980301 
	C371.919647,151.379028 371.885742,112.696655 371.851807,74.014275 
	C371.910767,72.520668 371.705994,70.956604 372.082367,69.547798 
	C372.924347,66.396164 374.209900,63.655155 378.377838,63.972412 
	C381.519928,64.211578 384.694733,64.000099 387.854584,64.030464 
	C394.302246,64.092415 397.024841,66.934547 397.022430,73.478432 
	C397.008789,110.734825 397.016266,147.991241 396.986816,185.247604 
	C396.983246,189.744553 397.673737,193.797791 403.071625,196.200302 
	C404.738983,196.696762 405.720093,196.971130 406.701447,196.972107 
	C432.677948,196.997787 458.654510,197.008362 484.630951,196.962784 
	C486.082733,196.960236 487.533691,196.454666 488.985016,196.183228 
z"/>
<path fill="currentColor" opacity="1.000000" stroke="none" 
	d="
M442.830994,277.005829 
	C443.229584,270.141968 443.366608,270.009796 450.090759,270.001221 
	C463.000793,269.984741 463.000275,269.984711 463.000183,283.088837 
	C462.999939,319.572693 463.082092,356.056946 462.923920,392.540100 
	C462.895752,399.041992 464.436310,400.147034 470.198669,400.070312 
	C486.188782,399.857361 502.183563,400.000854 518.176514,399.994202 
	C524.187805,399.991699 525.261536,398.591766 523.404785,392.890930 
	C519.124268,379.748566 510.081543,370.503784 498.377075,363.934784 
	C490.928040,359.754089 482.943054,356.493988 475.075806,353.105652 
	C470.388489,351.086884 469.180603,348.848206 470.876740,343.515411 
	C472.979248,336.905060 475.158783,335.418671 480.313477,336.663055 
	C498.452393,341.042023 514.606079,349.050201 527.360779,362.929565 
	C539.240112,375.856354 545.173340,391.114563 543.981079,408.840546 
	C543.678406,413.341583 539.719482,416.932068 534.521179,416.953430 
	C508.533112,417.060150 482.542816,417.161377 456.556946,416.902405 
	C449.851624,416.835571 442.373871,412.001556 442.986389,398.990356 
	C442.934418,357.730530 442.882690,317.368164 442.830994,277.005829 
z"/>
<path fill="currentColor" opacity="1.000000" stroke="none" 
	d="
M408.942749,319.903412 
	C409.947449,314.923920 416.275665,312.446716 422.873077,314.331482 
	C427.054382,315.525970 429.040863,318.098846 429.031464,322.512177 
	C428.975342,348.844879 429.060852,375.177948 428.971222,401.510468 
	C428.941040,410.387085 422.403076,416.942657 413.568573,416.972473 
	C387.902649,417.059113 362.235870,416.920258 336.570343,417.051300 
	C328.966492,417.090149 325.676605,409.983002 326.177246,403.705658 
	C326.910736,394.508362 328.831665,385.435089 333.372620,377.146881 
	C340.856384,363.487427 351.354828,352.789368 364.650085,344.742218 
	C372.507507,339.986389 380.426392,335.576691 390.077301,335.976318 
	C395.262482,336.191040 397.833679,338.110260 397.932495,343.198212 
	C398.142822,354.027252 398.018829,364.863373 397.961334,375.696167 
	C397.956512,376.605774 397.607819,377.636688 397.101105,378.400391 
	C393.895691,383.231995 388.972931,380.520752 384.845184,380.843262 
	C382.274048,381.044159 379.976318,379.700684 379.874725,376.091003 
	C379.708557,370.186951 378.998840,364.298187 378.518036,358.398163 
	C365.301239,359.154053 345.571991,385.121124 347.490997,399.996460 
	C362.388672,399.996460 377.346954,399.996521 392.305237,399.996460 
	C395.805176,399.996460 399.323761,400.209991 402.797272,399.906952 
	C404.564636,399.752747 406.250916,398.669128 408.320709,397.266418 
	C408.759308,370.985931 408.851044,345.444672 408.942749,319.903412 
z"/>
<path fill="currentColor" opacity="1.000000" stroke="none" 
	d="
M305.097839,370.924927 
	C315.511383,371.322174 316.981171,377.754791 317.818390,386.715027 
	C318.409760,393.044556 317.609100,399.558197 316.936127,405.937561 
	C316.181580,413.090454 312.410858,416.901642 305.574432,416.926453 
	C269.085388,417.058746 232.595566,416.962036 196.106018,416.926422 
	C195.829071,416.926147 195.552399,416.674011 195.278442,416.533630 
	C196.983765,404.019226 207.137421,400.187683 217.074585,400.084808 
	C241.898727,399.827728 266.727661,399.927704 291.553650,400.068115 
	C295.506653,400.090515 297.467194,399.273865 297.082153,394.830597 
	C296.747040,390.963104 298.030121,386.837341 291.577728,386.916443 
	C272.752197,387.147278 253.921997,386.988770 235.093658,387.004517 
	C229.728806,387.009003 224.080948,386.968628 221.730560,381.078156 
	C219.224197,374.796814 221.841553,369.244446 226.044922,364.471252 
	C237.732971,351.198700 253.095428,344.443756 269.749878,339.989929 
	C282.387970,336.610168 295.234619,335.449036 308.281891,335.978821 
	C314.209045,336.219482 316.938019,339.021362 316.998199,345.351807 
	C317.051727,350.982452 314.884003,352.679810 308.672241,353.057556 
	C288.604645,354.277863 268.719391,356.509247 250.570190,366.202026 
	C248.994568,367.043457 247.815048,368.626526 247.103424,370.203918 
	C248.901352,370.694275 250.047363,370.977356 251.193436,370.977631 
	C269.161560,370.981598 287.129700,370.949066 305.097839,370.924927 
z"/>
<path fill="currentColor" opacity="1.000000" stroke="none" 
	d="
M676.833374,376.050354 
	C674.554810,380.763794 664.428162,383.323639 660.558472,379.855164 
	C659.180725,378.620331 658.191833,376.285980 658.101746,374.402039 
	C657.800964,368.114685 657.987793,361.803955 657.987793,355.131531 
	C649.048218,354.599915 641.216858,357.257996 634.132263,361.552887 
	C623.381165,368.070618 615.313904,377.255005 610.044861,388.770477 
	C609.707458,389.507782 609.212830,390.218536 609.070923,390.992889 
	C607.579102,399.134064 606.177612,400.149048 615.834045,400.054688 
	C635.661316,399.860870 655.493652,399.847809 675.319885,400.088318 
	C681.163025,400.159180 686.993469,401.325592 692.828613,401.999268 
	C698.427368,402.645630 705.598206,409.302673 705.791687,416.998596 
	C704.004211,416.998596 702.223694,416.998627 700.443237,416.998627 
	C667.783447,416.998627 635.118896,416.674469 602.466187,417.156586 
	C589.209290,417.352356 587.023621,410.061279 588.107483,401.036102 
	C589.636841,388.300934 594.118347,376.657013 602.069275,366.318146 
	C613.623657,351.293518 628.417969,341.534790 647.031311,338.116272 
	C654.570312,336.731689 662.347107,336.602234 670.025391,336.033142 
	C673.591187,335.768921 675.351807,337.927185 676.036865,342.049927 
	C676.074463,348.375549 675.998108,353.852051 676.126404,359.323792 
	C676.257202,364.901764 676.589355,370.475037 676.833374,376.050354 
z"/>
<path fill="currentColor" opacity="1.000000" stroke="none" 
	d="
M576.022522,413.137146 
	C573.739868,418.134186 570.872803,419.358734 563.487122,417.919250 
	C560.367188,417.311127 557.545654,415.888062 557.999451,410.953339 
	C558.027039,393.146057 558.064392,376.197235 558.015015,359.248627 
	C558.010437,357.673248 557.455505,356.099426 557.156128,354.524902 
	C554.537537,354.348694 551.921326,354.101868 549.299805,354.010529 
	C543.355530,353.803345 541.766785,351.513184 542.000488,343.322662 
	C542.121704,339.074493 545.252991,336.222198 549.763306,336.353302 
	C556.029175,336.535461 562.296875,337.012817 568.556580,336.912476 
	C572.145325,336.854950 574.545288,337.984772 576.009521,342.042603 
	C576.020081,366.300903 576.021301,389.719025 576.022522,413.137146 
z"/>
<path fill="currentColor" opacity="1.000000" stroke="none" 
	d="
M267.723999,269.154999 
	C263.394836,262.243042 264.140747,256.394043 269.770477,250.738556 
	C272.592224,247.903900 275.427124,245.082336 278.250885,242.249680 
	C283.764404,236.718765 290.114105,236.475616 295.377930,240.775360 
	C302.480255,246.576889 300.626099,254.701172 296.093719,259.439423 
	C293.214874,262.449036 290.234985,265.363495 287.260345,268.279755 
	C281.125275,274.294464 274.984344,274.648560 267.723999,269.154999 
z"/>
<path fill="currentColor" opacity="1.000000" stroke="none" 
	d="
M567.747253,317.770996 
	C566.551147,318.956696 565.684570,319.982941 564.658020,320.810852 
	C556.707275,327.223419 550.371033,323.300842 547.244751,315.377075 
	C546.847473,314.370239 547.291260,312.785187 547.820740,311.699890 
	C550.798828,305.595459 554.924927,300.441986 560.922058,297.028900 
	C564.598999,294.936249 569.904907,295.866608 572.815491,299.607666 
	C575.409485,302.941803 577.226318,306.770264 573.720215,310.813171 
	C571.795593,313.032410 569.907349,315.283112 567.747253,317.770996 
z"/>
<path fill="currentColor" opacity="1.000000" stroke="none" 
	d="
M4.354019,216.441452 
	C108.233086,216.043381 212.289520,216.030441 316.345947,216.031876 
	C317.668732,216.031906 318.991486,216.215485 320.638062,216.571320 
	C319.632446,216.886093 318.303101,216.992645 316.973724,216.992737 
	C214.155121,217.000473 111.336517,217.000458 8.517916,216.992676 
	C7.189068,216.992584 5.860229,216.885056 4.354019,216.441452 
z"/>
<path fill="currentColor" opacity="1.000000" stroke="none" 
	d="
M395.411987,216.918182 
	C396.355927,216.559250 397.767487,216.053497 399.179199,216.052933 
	C491.414948,216.015778 583.650696,216.018494 675.886475,216.030991 
	C677.043884,216.031143 678.201233,216.202347 679.677979,216.562683 
	C678.003906,216.887772 676.010498,216.992752 674.017090,216.992981 
	C581.304626,217.003433 488.592163,217.004776 395.411987,216.918182 
z"/>
<path fill="currentColor" opacity="1.000000" stroke="none" 
	d="
M215.740799,196.093292 
	C214.036804,196.455856 212.087708,196.964066 210.138229,196.965515 
	C153.071014,197.007889 96.003769,197.005981 38.936539,196.971191 
	C37.143635,196.970093 35.350983,196.546844 33.212540,196.069977 
	C32.866859,195.819550 32.917702,195.760925 33.414268,195.864105 
	C80.307999,195.978058 126.705162,196.001755 173.102325,195.991699 
	C187.067993,195.988663 201.033615,195.891754 214.999268,195.837845 
	C215.164688,195.892807 215.330093,195.947769 215.740799,196.093292 
z"/>
<path fill="currentColor" opacity="1.000000" stroke="none" 
	d="
M214.770447,195.472931 
	C201.033615,195.891754 187.067993,195.988663 173.102325,195.991699 
	C126.705162,196.001755 80.307999,195.978058 33.446602,195.885574 
	C33.855843,195.536026 34.729317,195.033859 35.602798,195.033844 
	C95.249069,195.032837 154.895340,195.072144 214.770447,195.472931 
z"/>
<path fill="currentColor" opacity="1.000000" stroke="none" 
	d="
M442.467346,277.236053 
	C442.882690,317.368164 442.934418,357.730530 442.930359,398.560059 
	C442.583344,398.179535 442.037659,397.331848 442.037506,396.484070 
	C442.029755,356.811462 442.069489,317.138885 442.467346,277.236053 
z"/>
<path fill="currentColor" opacity="1.000000" stroke="none" 
	d="
M371.495758,74.250397 
	C371.885742,112.696655 371.919647,151.379028 371.906616,190.527618 
	C371.573883,190.293716 371.038055,189.593597 371.038147,188.893539 
	C371.043518,150.757858 371.093903,112.622192 371.495758,74.250397 
z"/>
<path fill="currentColor" opacity="1.000000" stroke="none" 
	d="
M111.121063,156.450073 
	C145.128220,156.040970 179.324921,156.028168 213.521622,156.040176 
	C214.667862,156.040573 215.813995,156.291656 217.287964,156.620300 
	C182.180695,156.826569 146.745651,156.838425 111.121063,156.450073 
z"/>
<path fill="currentColor" opacity="1.000000" stroke="none" 
	d="
M229.603485,136.102722 
	C228.363617,136.443588 226.755066,136.959274 225.145676,136.961884 
	C195.459793,137.009979 165.773819,137.005783 136.087906,136.969421 
	C134.630249,136.967636 133.173096,136.571609 131.848541,136.148560 
	C163.653778,135.905533 195.326187,135.873108 226.998596,135.840668 
	C227.743866,135.906693 228.489136,135.972702 229.603485,136.102722 
z"/>
<path fill="currentColor" opacity="1.000000" stroke="none" 
	d="
M226.766479,135.478958 
	C195.326187,135.873108 163.653778,135.905533 131.517639,135.903244 
	C131.053909,135.868530 131.046677,135.516647 131.042404,135.340775 
	C162.870209,135.149017 194.702286,135.133133 226.766479,135.478958 
z"/>
<path fill="currentColor" opacity="1.000000" stroke="none" 
	d="
M488.740051,196.092834 
	C487.533691,196.454666 486.082733,196.960236 484.630951,196.962784 
	C458.654510,197.008362 432.677948,196.997787 406.701447,196.972107 
	C405.720093,196.971130 404.738983,196.696762 403.395325,196.361526 
	C403.776184,196.101959 404.519501,196.030655 406.096863,195.967239 
	C433.953705,195.929443 460.976532,195.883728 487.999329,195.838013 
	C488.164581,195.892807 488.329803,195.947617 488.740051,196.092834 
z"/>
<path fill="currentColor" opacity="1.000000" stroke="none" 
	d="
M487.770508,195.473053 
	C460.976532,195.883728 433.953705,195.929443 406.465820,195.906464 
	C406.863739,195.558685 407.726654,195.036102 408.589722,195.035858 
	C434.907043,195.028381 461.224396,195.072220 487.770508,195.473053 
z"/>
<path fill="currentColor" opacity="1.000000" stroke="none" 
	d="
M408.553070,320.113129 
	C408.851044,345.444672 408.759308,370.985931 408.413513,396.883911 
	C408.160736,371.601379 408.162048,345.962097 408.553070,320.113129 
z"/>
<path fill="currentColor" opacity="1.000000" stroke="none" 
	d="
M576.415649,412.925903 
	C576.021301,389.719025 576.020081,366.300903 576.056519,342.412842 
	C576.394470,342.627441 576.957397,343.312195 576.956909,343.996521 
	C576.940735,366.902588 576.870850,389.808594 576.415649,412.925903 
z"/>
<path fill="currentColor" opacity="1.000000" stroke="none" 
	d="
M586.740601,196.093201 
	C585.700012,196.453781 584.414978,196.955353 583.128418,196.958923 
	C565.633179,197.007721 548.137695,196.997086 530.642334,196.958496 
	C529.675537,196.956375 528.709595,196.580780 527.423828,196.132126 
	C528.144714,195.909103 529.184937,195.932999 531.078247,195.966003 
	C549.953918,195.929367 567.976624,195.883606 585.999268,195.837845 
	C586.164612,195.892807 586.330017,195.947754 586.740601,196.093201 
z"/>
<path fill="currentColor" opacity="1.000000" stroke="none" 
	d="
M312.740845,196.093231 
	C311.700134,196.453812 310.414795,196.955414 309.128052,196.959000 
	C291.629395,197.007690 274.130493,196.997055 256.631775,196.958130 
	C255.665115,196.955978 254.699310,196.577667 253.412338,196.126053 
	C254.135361,195.904068 255.179138,195.930481 257.077118,195.966019 
	C275.953949,195.929352 293.976624,195.883591 311.999268,195.837830 
	C312.164673,195.892776 312.330078,195.947739 312.740845,196.093231 
z"/>
<path fill="currentColor" opacity="1.000000" stroke="none" 
	d="
M304.865295,370.553833 
	C287.129700,370.949066 269.161560,370.981598 251.193436,370.977631 
	C250.047363,370.977356 248.901352,370.694275 247.393829,370.352295 
	C266.232483,370.168823 285.432617,370.175781 304.865295,370.553833 
z"/>
<path fill="currentColor" opacity="1.000000" stroke="none" 
	d="
M557.076355,355.025513 
	C557.455505,356.099426 558.010437,357.673248 558.015015,359.248627 
	C558.064392,376.197235 558.027039,393.146057 557.944641,410.560638 
	C557.577026,409.677643 557.022217,408.329651 557.018066,406.979950 
	C556.964844,389.828827 556.990784,372.677460 557.076355,355.025513 
z"/>
<path fill="currentColor" opacity="1.000000" stroke="none" 
	d="
M585.770447,195.472931 
	C567.976624,195.883606 549.953918,195.929367 531.466187,195.906631 
	C531.863708,195.558929 532.726135,195.036942 533.588867,195.036346 
	C550.906433,195.024246 568.224060,195.072174 585.770447,195.472931 
z"/>
<path fill="currentColor" opacity="1.000000" stroke="none" 
	d="
M311.770447,195.472931 
	C293.976624,195.883591 275.953949,195.929352 257.466248,195.906647 
	C257.863739,195.558960 258.726105,195.036942 259.588898,195.036346 
	C276.906433,195.024246 294.224030,195.072174 311.770447,195.472931 
z"/>
<path fill="currentColor" opacity="1.000000" stroke="none" 
	d="
M704.902466,193.536041 
	C704.586975,192.232300 704.135437,190.463379 704.125183,188.691879 
	C704.036682,173.422348 704.027771,158.152359 704.025696,142.411407 
	C704.361877,143.284668 704.928101,144.627991 704.933350,145.973526 
	C704.994751,161.672043 704.971741,177.370911 704.902466,193.536041 
z"/>
<path fill="currentColor" opacity="1.000000" stroke="none" 
	d="
M673.621582,195.081177 
	C673.052429,195.730255 672.158508,196.861145 671.266174,196.859955 
	C656.430420,196.840134 641.594849,196.678406 626.397400,196.359589 
	C626.778137,196.100327 627.520813,196.029831 629.097168,195.967255 
	C642.577148,195.983307 655.223572,196.017181 667.869507,195.962738 
	C669.246643,195.956818 670.621582,195.441376 671.997498,195.162262 
	C672.430847,195.120239 672.864136,195.078217 673.621582,195.081177 
z"/>
<path fill="currentColor" opacity="1.000000" stroke="none" 
	d="
M346.479614,191.826538 
	C346.066803,176.662155 346.040497,161.293488 346.074432,145.458450 
	C346.428589,145.671982 346.978760,146.351898 346.978729,147.031784 
	C346.978058,161.895279 346.916229,176.758759 346.479614,191.826538 
z"/>
<path fill="currentColor" opacity="1.000000" stroke="none" 
	d="
M496.075195,144.399109 
	C496.393158,144.358444 496.831360,144.788620 496.829834,145.217224 
	C496.778900,159.591843 496.686035,173.966339 496.374146,188.695084 
	C496.096130,174.322632 496.043274,159.595932 496.075195,144.399109 
z"/>
<path fill="currentColor" opacity="1.000000" stroke="none" 
	d="
M679.084961,145.438843 
	C679.435730,146.063812 679.953125,147.157791 679.946899,148.248779 
	C679.870361,161.616104 679.717041,174.983017 679.363831,188.709503 
	C679.098877,174.681473 679.053589,160.293961 679.084961,145.438843 
z"/>
<path fill="currentColor" opacity="1.000000" stroke="none" 
	d="
M671.532593,195.088562 
	C670.621582,195.441376 669.246643,195.956818 667.869507,195.962738 
	C655.223572,196.017181 642.577148,195.983307 629.465820,195.906525 
	C630.363403,195.558594 631.724976,195.042984 633.088928,195.036819 
	C645.748230,194.979477 658.408020,195.009903 671.532593,195.088562 
z"/>
<path fill="currentColor" opacity="1.000000" stroke="none" 
	d="
M594.446594,145.256378 
	C594.845642,159.029556 594.891541,173.043610 594.870117,187.522247 
	C594.537964,187.116379 594.044006,186.246277 594.042664,185.375397 
	C594.021667,172.082748 594.065063,158.789993 594.446594,145.256378 
z"/>
<path fill="currentColor" opacity="1.000000" stroke="none" 
	d="
M676.910278,375.582275 
	C676.589355,370.475037 676.257202,364.901764 676.126404,359.323792 
	C675.998108,353.852051 676.074463,348.375549 676.088440,342.432312 
	C676.404419,343.962402 676.921692,345.958923 676.942078,347.960510 
	C677.033875,357.010956 676.985229,366.062836 676.910278,375.582275 
z"/>
<path fill="currentColor" opacity="1.000000" stroke="none" 
	d="
M222.115250,161.551086 
	C222.307724,170.809525 222.447571,180.528488 222.374023,190.598145 
	C222.127960,181.303101 222.095291,171.657364 222.115250,161.551086 
z"/>
<path fill="currentColor" opacity="1.000000" stroke="none" 
	d="
M588.732422,195.170044 
	C588.782104,195.397293 588.551636,195.595139 588.093018,195.868622 
	C588.085815,195.705673 588.281555,195.437790 588.732422,195.170044 
z"/>
<path fill="currentColor" opacity="1.000000" stroke="none" 
	d="
M490.681641,195.154694 
	C490.742249,195.370209 490.527405,195.577591 490.085510,195.863083 
	C489.958618,195.630005 490.141235,195.365143 490.681641,195.154694 
z"/>
<path fill="currentColor" opacity="1.000000" stroke="none" 
	d="
M314.731873,195.169205 
	C314.781738,195.396255 314.551361,195.594528 314.092743,195.868652 
	C314.085419,195.705750 314.281097,195.437744 314.731873,195.169205 
z"/>
<path fill="currentColor" opacity="1.000000" stroke="none" 
	d="
M217.729797,195.168335 
	C217.780365,195.394699 217.550781,195.593643 217.092987,195.868622 
	C217.085236,195.706146 217.280197,195.438248 217.729797,195.168335 
z"/>
</svg>