<svg version="1.1" id="Layer_1" xmlns="http://www.w3.org/2000/svg" xmlns:xlink="http://www.w3.org/1999/xlink" x="0px" y="0px"
	 width="100%" viewBox="0 0 900 600" enable-background="new 0 0 900 600" xml:space="preserve">
<path fill="currentColor" opacity="1.000000" stroke="none" 
	d="
M497.000214,366.852661 
	C496.999969,338.376434 497.036072,310.381775 496.946075,282.387512 
	C496.936676,279.459290 496.601593,276.391693 495.671783,273.640869 
	C494.392151,269.855164 492.000061,267.079712 487.695374,265.750031 
	C478.465881,262.899109 469.418762,264.131134 460.424683,266.281738 
	C459.279022,266.555664 458.117065,269.583069 458.104065,271.343231 
	C457.945496,292.837891 458.000580,314.334106 457.999969,335.829926 
	C457.999664,346.494507 457.871887,357.161407 458.065338,367.822479 
	C458.135345,371.680939 456.939301,373.167633 452.936798,373.070251 
	C443.610809,372.843384 434.273346,372.881104 424.945129,373.056366 
	C421.328003,373.124359 419.934082,371.974854 419.942932,368.206024 
	C420.038727,327.380890 419.967590,286.555237 420.135193,245.730560 
	C420.141724,244.135330 421.777466,241.564453 423.183441,241.118912 
	C431.451355,238.499054 439.755890,235.599091 448.278259,234.274765 
	C459.810516,232.482697 471.546234,231.975372 483.202881,231.016251 
	C493.048126,230.206192 501.914734,234.057510 511.013306,236.914108 
	C513.474182,237.686722 516.474792,238.067734 518.899231,237.412766 
	C534.255005,233.264267 549.717712,229.297852 565.718445,231.132904 
	C583.725647,233.198074 599.625732,239.645508 607.983704,257.397827 
	C609.754578,261.159119 610.584839,265.586121 610.879822,269.774567 
	C611.566833,279.528290 611.891907,289.322052 611.954163,299.102234 
	C612.098267,321.763550 611.889954,344.427399 612.091431,367.087860 
	C612.132019,371.645447 610.868774,373.241211 606.170898,373.098541 
	C595.710144,372.780731 585.233154,372.999329 574.000183,372.999329 
	C574.000183,370.654327 574.000122,368.727509 574.000122,366.800690 
	C574.000061,339.639313 573.656372,312.471893 574.131287,285.318817 
	C574.407837,269.510834 561.345886,262.344391 547.607849,264.657074 
	C544.204834,265.229919 540.745605,265.479980 537.353516,266.103149 
	C534.684326,266.593506 533.202087,267.996765 534.471191,271.031281 
	C534.900818,272.058624 534.975037,273.292938 534.975769,274.432800 
	C534.997437,306.259918 534.990601,338.087006 534.973877,369.914124 
	C534.973450,370.716949 534.808228,371.519714 534.683899,372.649109 
	C522.270691,372.649109 510.032410,372.649109 497.253815,372.649109 
	C497.168640,370.862854 497.084473,369.098602 497.000214,366.852661 
z"/>
<path fill="currentColor" opacity="1.000000" stroke="none" 
	d="
M388.983093,373.000000 
	C372.326324,373.000000 356.162231,372.759918 340.008820,373.072998 
	C326.087708,373.342804 312.590973,370.774750 299.956055,365.637665 
	C288.574219,361.010071 279.009186,353.555756 272.752838,341.989838 
	C267.225372,331.771362 265.142731,321.193146 265.032898,309.952637 
	C264.928009,299.220673 264.228912,288.420227 267.981934,278.014862 
	C271.820923,267.371094 277.460022,258.152191 285.919342,250.288757 
	C299.535217,237.631973 316.057159,233.638046 333.692261,231.963516 
	C346.381683,230.758621 358.773621,232.841919 370.147705,237.894455 
	C386.485779,245.152039 396.506866,258.128632 400.058746,276.018250 
	C402.512024,288.374573 403.260742,300.755920 403.069672,313.314117 
	C402.795990,331.301910 402.890289,349.298157 403.079529,367.288116 
	C403.124298,371.544891 401.992523,373.534180 397.471191,373.050262 
	C394.835968,372.768219 392.145844,372.999603 388.983093,373.000000 
M346.510132,340.000000 
	C352.249573,340.000000 357.989014,340.000000 363.977631,340.000000 
	C363.977631,323.485931 364.416992,307.844391 363.763733,292.248657 
	C363.498322,285.912048 362.268555,279.377502 357.622192,273.936707 
	C351.022125,266.208130 342.740387,264.827576 333.245422,264.861359 
	C319.240112,264.911194 308.872528,275.227753 305.037781,287.328949 
	C302.355133,295.794556 302.679108,304.432343 303.849640,313.244385 
	C305.424896,325.103699 314.338104,335.610229 325.932159,337.966858 
	C332.333679,339.268036 338.980560,339.361877 346.510132,340.000000 
z"/>
<path fill="currentColor" opacity="1.000000" stroke="none" 
	d="
M106.000000,373.000000 
	C94.386765,372.665131 83.105911,373.424408 72.197380,371.753296 
	C53.169029,368.838348 35.196133,362.513428 24.034918,345.284241 
	C17.656851,335.438629 13.694343,324.310730 14.071676,312.279358 
	C14.387192,302.219147 14.003996,291.861694 16.314615,282.206482 
	C19.458338,269.070038 26.619083,257.839844 37.295040,248.730637 
	C50.508095,237.456589 65.967972,233.603745 82.567986,231.936310 
	C95.839684,230.603195 108.427910,233.534058 120.490952,238.224426 
	C127.936325,241.119339 134.292892,246.410538 139.042542,253.179703 
	C148.726685,266.981506 152.210449,282.469238 152.052444,299.124115 
	C151.840607,321.454926 151.999924,343.789246 151.999893,366.122070 
	C151.999893,368.112976 151.999893,370.103882 151.999893,373.000000 
	C136.653030,373.000000 121.576515,373.000000 106.000000,373.000000 
M54.934479,322.409790 
	C58.527905,330.154877 64.622635,336.261200 72.570938,337.623596 
	C85.488365,339.837708 98.774338,339.901733 111.997948,340.880219 
	C111.997948,326.356293 112.202087,313.233459 111.905334,300.121979 
	C111.772057,294.233612 111.082886,288.267639 109.792076,282.528961 
	C108.997406,278.996002 107.209244,275.259033 104.781975,272.606812 
	C99.134224,266.435608 91.778870,264.595123 83.331200,264.860016 
	C67.675903,265.350983 55.753540,274.171326 52.420242,289.287933 
	C50.001324,300.257751 50.206448,311.208221 54.934479,322.409790 
z"/>
<path fill="currentColor" opacity="1.000000" stroke="none" 
	d="
M854.223755,363.275452 
	C842.895020,370.328796 831.349915,375.753021 817.915466,374.963684 
	C809.862854,374.490570 801.434937,374.948608 793.899231,372.633240 
	C785.960388,370.194000 778.767639,365.148468 771.459167,360.881592 
	C762.829407,355.843292 757.676392,347.458374 752.153015,339.534607 
	C750.680359,337.421844 749.879456,334.835968 748.803467,332.452271 
	C742.649841,318.819489 741.214783,304.575745 744.078125,290.019257 
	C746.258850,278.933167 751.064270,268.427673 758.064758,259.970337 
	C769.872070,245.705917 784.723694,235.808685 804.197571,233.762375 
	C818.380676,232.272003 831.861145,233.605911 844.677124,239.448257 
	C854.913330,244.114578 863.805298,251.098190 870.485291,260.167145 
	C878.548035,271.113464 883.434326,283.478638 885.092712,297.187439 
	C887.449829,316.671661 880.868835,333.474701 869.828003,348.698608 
	C865.796265,354.257751 859.657288,358.288544 854.223755,363.275452 
M798.166931,271.393097 
	C793.508850,275.445801 788.236755,278.988464 784.342957,283.675995 
	C779.078064,290.014191 777.423462,297.720306 777.853027,306.208771 
	C778.544556,319.874237 785.098877,330.077606 796.605530,335.891724 
	C810.664246,342.995331 825.136658,343.002411 837.832642,331.650085 
	C849.463379,321.250183 853.924133,306.667969 848.866638,292.555817 
	C845.967896,284.467468 840.880432,277.290131 833.110718,273.244629 
	C827.526733,270.337189 821.192017,267.858429 815.025574,267.392029 
	C809.771118,266.994629 804.278931,269.740906 798.166931,271.393097 
z"/>
<path fill="currentColor" opacity="1.000000" stroke="none" 
	d="
M666.634888,284.768555 
	C662.660400,299.179321 661.938232,313.307861 668.488586,326.640533 
	C672.725159,335.263580 680.645630,339.541138 690.273621,341.094757 
	C700.774475,342.789276 710.510620,341.113953 719.977417,336.578003 
	C723.559814,334.861542 726.545471,336.578003 728.728638,339.317993 
	C733.601990,345.434387 738.250427,351.730072 743.155396,358.169250 
	C731.649597,368.656433 718.344360,374.565369 703.063110,374.842957 
	C693.197632,375.022125 683.172791,374.473938 673.458252,372.835388 
	C661.912598,370.887970 652.031311,364.694916 643.947693,356.297119 
	C628.027466,339.758118 623.760803,319.038757 625.314636,297.153625 
	C625.975769,287.841705 628.476929,278.098663 632.557007,269.728851 
	C638.062744,258.434448 645.660889,248.469788 657.462280,241.887955 
	C670.697327,234.506485 684.596436,230.359375 699.347351,231.282593 
	C712.677612,232.116898 726.152283,234.428024 737.446533,242.832977 
	C739.980408,244.718658 741.277039,246.955902 739.388367,250.262466 
	C735.404053,257.237946 731.752075,264.405884 727.644287,271.304688 
	C727.143982,272.145081 724.447144,272.420532 723.171997,271.922943 
	C718.614075,270.144379 714.355591,266.590393 709.752808,266.155914 
	C701.522827,265.378998 692.788818,265.033295 684.888184,267.003815 
	C676.335205,269.137085 669.863464,275.506531 666.634888,284.768555 
z"/>
<path fill="currentColor" opacity="1.000000" stroke="none" 
	d="
M193.306931,244.303101 
	C202.880157,237.495926 213.406448,234.823181 224.577286,233.940002 
	C229.654922,233.538559 234.707855,232.032104 239.749069,232.136246 
	C248.817352,232.323547 257.877472,233.256424 266.912109,234.165054 
	C267.791748,234.253540 269.327881,236.551361 269.108429,237.481308 
	C266.895142,246.861832 264.474518,256.198425 261.804047,265.458527 
	C261.529388,266.410889 259.233459,267.379120 257.910828,267.332672 
	C249.762222,267.046509 241.608459,265.902863 233.485443,266.121552 
	C220.515137,266.470825 208.399841,280.316895 208.082855,293.029510 
	C207.477676,317.299866 207.332550,341.581757 207.003769,365.858948 
	C206.974869,367.993408 206.999939,370.128601 206.999939,373.000000 
	C198.463028,373.000000 190.363068,373.000000 182.263123,373.000000 
	C168.000000,373.000000 168.000000,373.000000 168.000000,358.525757 
	C168.000000,339.193451 167.424072,319.838501 168.182236,300.535980 
	C168.788757,285.094696 170.725327,269.521179 180.378189,256.554871 
	C183.802689,251.954880 188.747253,248.486496 193.306931,244.303101 
z"/>
</svg>