<svg version="1.1" id="Layer_1" xmlns="http://www.w3.org/2000/svg" xmlns:xlink="http://www.w3.org/1999/xlink" x="0px" y="0px"
	 width="100%" viewBox="0 0 600 338" enable-background="new 0 0 600 338" xml:space="preserve">
<path fill="currentColor" opacity="1.000000" stroke="none" 
	d="
M61.996872,225.000244 
	C61.997868,219.171768 61.900948,213.840805 62.033398,208.515549 
	C62.125668,204.805511 61.669189,201.850449 56.912613,201.890579 
	C56.244682,201.896225 55.567028,200.748260 54.275707,199.570450 
	C55.877151,199.293991 56.726524,199.021866 57.576603,199.019638 
	C68.566620,198.990814 79.591972,198.449005 90.537369,199.148315 
	C102.575676,199.917480 111.152679,206.196350 109.912819,217.916733 
	C108.936707,227.143860 102.228386,231.405792 94.158562,234.037704 
	C93.874969,234.130203 93.640617,234.373611 93.063271,234.761917 
	C104.626549,235.540131 106.000259,244.367996 108.037819,252.788956 
	C108.982323,256.692474 110.361221,260.490906 111.818542,265.232941 
	C114.189758,263.154358 115.399582,262.093811 118.046288,259.773712 
	C117.928894,262.234650 118.362717,263.888031 117.731743,264.607300 
	C113.902565,268.972382 108.735367,269.691040 103.408195,268.731812 
	C97.652786,267.695496 94.929092,263.572723 93.999382,258.061920 
	C93.300941,253.921951 92.785835,249.738510 91.840279,245.655197 
	C89.285149,234.621078 84.538406,234.070709 75.575203,235.418900 
	C76.042358,243.319458 76.530067,251.319763 76.980766,259.322144 
	C77.142700,262.197327 77.726585,264.437592 81.472527,264.108032 
	C82.348457,264.030945 83.338654,265.252686 83.811996,266.739838 
	C74.286346,266.739838 64.760704,266.739838 54.639626,266.739838 
	C55.434818,265.623749 55.944317,264.273590 56.471344,264.266724 
	C62.001583,264.194550 62.099796,260.604523 62.044044,256.471649 
	C61.904808,246.149475 61.997349,235.824203 61.996872,225.000244 
M92.659485,206.133667 
	C89.728477,204.561691 86.936722,202.288498 83.816589,201.668915 
	C81.799591,201.268372 77.444511,203.082657 77.314522,204.256332 
	C76.306175,213.360565 76.071609,222.550476 75.582764,232.000549 
	C78.500465,232.000549 80.472603,232.004578 82.444725,231.999771 
	C88.796890,231.984314 92.125214,229.574463 94.116951,223.429977 
	C95.951988,217.768890 95.392372,212.242661 92.659485,206.133667 
z"/>
<path fill="currentColor" opacity="1.000000" stroke="none" 
	d="
M436.364868,216.007812 
	C442.688416,218.313461 445.201050,222.617081 445.052368,228.932129 
	C444.844543,237.759872 444.746674,246.606873 445.119415,255.423752 
	C445.277832,259.170959 444.070068,264.771912 451.176727,264.081390 
	C451.408936,264.058838 451.840973,264.718384 451.945251,265.120819 
	C452.061554,265.569641 451.909485,266.088013 451.859070,266.786713 
	C443.722961,266.786713 435.606354,266.786713 426.820221,266.786713 
	C427.267426,265.702667 427.664429,264.121490 427.949646,264.141388 
	C432.473633,264.457275 432.025513,261.408234 432.014252,258.504639 
	C431.976654,248.838882 431.901001,239.171402 432.044769,229.507645 
	C432.109558,225.151001 431.861450,221.214996 426.575897,220.189621 
	C423.938629,219.677994 418.180725,224.004105 417.048889,227.429703 
	C416.450378,229.241058 416.071350,231.208176 416.045624,233.111084 
	C415.937469,241.109009 416.025879,249.109360 415.987274,257.108551 
	C415.971771,260.323944 415.632385,263.561066 420.178223,264.167114 
	C420.791504,264.248871 421.201263,265.857239 421.682037,266.717163 
	C413.006378,266.717163 404.598145,266.717163 395.431641,266.717163 
	C396.463287,265.487701 397.029938,264.214600 397.618500,264.204437 
	C402.917572,264.112457 403.006165,260.481293 403.004089,256.683075 
	C402.994781,239.684402 402.973877,222.685684 403.016876,205.687119 
	C403.029083,200.863678 403.242920,196.053726 396.715912,195.167465 
	C396.435333,195.129364 396.250366,194.386642 395.756012,193.493805 
	C402.585663,192.881790 409.138000,192.294632 415.991486,191.680481 
	C415.991486,201.684219 415.991486,212.074829 415.991486,223.394592 
	C421.137604,215.052963 428.674011,215.944931 436.364868,216.007812 
z"/>
<path fill="currentColor" opacity="1.000000" stroke="none" 
	d="
M144.049042,73.018074 
	C150.195786,73.033745 155.906937,73.033745 161.999161,73.033745 
	C161.999161,83.451599 161.999130,94.741112 161.999161,106.030624 
	C161.999176,116.179253 161.995102,126.327888 162.001389,136.476517 
	C162.003830,140.409088 161.813370,144.414490 167.266403,145.148117 
	C167.841248,145.225433 168.234604,146.651672 168.832214,147.653320 
	C162.239365,148.071243 155.958115,148.469406 149.241074,148.895187 
	C149.108719,147.421188 148.974625,145.927933 148.829407,144.310715 
	C139.056961,152.025787 129.005402,152.153625 122.578972,143.744568 
	C119.634506,139.891724 117.831215,134.545990 117.247200,129.669281 
	C116.539299,123.757980 117.151718,117.541893 118.126854,111.611259 
	C119.475090,103.411461 127.874191,96.892143 136.227142,97.066460 
	C140.465714,97.154907 144.689835,97.935135 149.000183,98.411430 
	C149.000183,94.364380 149.122742,89.229042 148.956894,84.103050 
	C148.847275,80.714859 148.614548,77.431267 144.067047,76.428162 
	C141.306168,75.819168 141.426147,75.275246 144.049042,73.018074 
M149.000198,120.501343 
	C149.000198,116.668304 148.659622,112.796974 149.085190,109.011787 
	C149.634506,104.125938 147.178238,101.263031 143.112976,100.178864 
	C138.984619,99.077881 135.650223,101.431801 134.072571,105.245201 
	C132.438705,109.194435 130.914612,113.343758 130.339020,117.542183 
	C129.313217,125.024467 129.761978,132.584793 132.976990,139.578003 
	C135.831680,145.787445 142.725067,147.076813 146.235565,142.094971 
	C147.733688,139.968964 148.623550,137.105209 148.884506,134.486496 
	C149.312027,130.196106 149.000198,125.832031 149.000198,120.501343 
z"/>
<path fill="currentColor" opacity="1.000000" stroke="none" 
	d="
M433.530457,148.000076 
	C427.867126,148.294373 422.650024,148.588776 417.187225,148.897018 
	C417.074188,147.332397 416.971313,145.908295 416.828003,143.924530 
	C410.912811,150.319519 404.272644,151.262650 396.503143,148.200211 
	C389.724945,145.528503 386.498352,139.823242 385.586334,133.815491 
	C384.085358,123.928108 382.586243,113.322395 389.916870,104.730156 
	C392.554871,101.638092 396.361633,98.672684 400.169922,97.659058 
	C405.522247,96.234451 411.518738,95.546204 417.353882,100.182945 
	C415.336700,90.606415 422.027039,79.703949 408.831421,73.947525 
	C416.553528,73.497612 423.052063,73.118988 429.999176,72.714233 
	C429.999176,76.576363 429.999146,81.018745 429.999176,85.461121 
	C429.999176,101.930557 429.977173,118.400040 430.013916,134.869400 
	C430.023773,139.283569 429.071503,144.265991 435.580566,145.371780 
	C436.069244,145.454773 436.312653,146.981735 436.738037,148.000168 
	C435.636597,148.000168 434.806671,148.000168 433.530457,148.000076 
M400.923187,107.598747 
	C400.065277,110.814247 398.883972,113.983330 398.414307,117.254570 
	C397.313263,124.923195 397.778259,132.580750 401.014801,139.695724 
	C403.800690,145.820053 410.863037,147.006287 414.293671,142.039871 
	C415.769745,139.902985 416.791473,137.019424 416.880646,134.435745 
	C417.190216,125.471306 417.197205,116.482071 416.853973,107.520081 
	C416.773712,105.423721 415.352936,102.786156 413.697968,101.457954 
	C409.389832,98.000519 404.786560,100.128220 400.923187,107.598747 
z"/>
<path fill="currentColor" opacity="1.000000" stroke="none" 
	d="
M225.100983,98.000305 
	C229.935349,97.797585 234.295044,97.594841 239.003815,97.375862 
	C239.003815,99.429733 239.003815,101.477554 239.003815,103.985634 
	C243.391586,98.080978 251.442291,95.395622 258.436218,97.150528 
	C263.776611,98.490532 270.627686,106.270859 270.872437,112.588966 
	C271.192413,120.849289 272.149872,129.167175 268.433838,137.244644 
	C263.869293,147.166565 251.430527,153.544876 240.448776,147.831345 
	C240.053040,147.625458 239.585144,147.558258 238.652954,147.275253 
	C239.038773,151.460617 238.423630,155.849106 240.063522,159.100082 
	C241.391205,161.732117 245.432159,162.995499 249.239517,165.505325 
	C238.708725,165.505325 229.512711,165.505325 219.701263,165.505325 
	C220.232040,164.592255 220.590485,163.211823 221.158432,163.119431 
	C225.721741,162.377182 226.049423,159.225006 226.031723,155.528015 
	C225.957611,140.049454 225.988373,124.570328 226.008591,109.091438 
	C226.013916,105.017822 225.287704,101.594894 220.326828,100.892952 
	C219.681458,100.801636 219.211746,99.468765 218.143845,98.000282 
	C221.011871,98.000282 222.819107,98.000282 225.100983,98.000305 
M238.999405,116.622391 
	C238.999405,123.786774 239.172562,130.957077 238.927979,138.113098 
	C238.801422,141.815384 239.592484,145.149979 243.308533,145.818573 
	C247.416397,146.557648 252.226807,146.789261 254.033981,141.445648 
	C255.357620,137.531799 256.239960,133.461105 257.188812,129.429672 
	C259.161072,121.050087 257.880219,112.954079 254.550629,105.177505 
	C252.859665,101.228111 249.419235,100.289017 245.509689,102.150101 
	C239.694092,104.918549 238.657364,109.950272 238.999405,116.622391 
z"/>
<path fill="currentColor" opacity="1.000000" stroke="none" 
	d="
M377.621613,148.000336 
	C369.860870,148.000259 362.564178,148.000259 355.134399,148.000259 
	C355.210907,147.192947 355.161072,146.344559 355.313690,146.306396 
	C361.912048,144.657486 361.091522,139.505814 361.027863,134.584427 
	C360.926605,126.756111 360.846375,118.921585 361.045502,111.097031 
	C361.232635,103.742981 358.281952,101.454628 355.060455,101.139076 
	C350.851562,100.726799 345.135925,106.512291 345.053192,111.270073 
	C344.879395,121.262321 344.883148,131.262787 345.146027,141.251144 
	C345.179626,142.527878 347.180908,143.764832 348.296722,144.996567 
	C348.956085,145.724442 349.666779,146.405838 351.046021,147.814560 
	C341.622314,147.814560 333.505981,147.814560 325.015839,147.814560 
	C325.210266,146.783096 325.450989,145.161957 325.523712,145.169434 
	C331.342010,145.769440 331.691650,140.768799 331.771881,137.652481 
	C332.026367,127.768089 331.237091,117.861244 331.070587,107.959389 
	C331.004913,104.055916 330.030121,101.318970 325.648376,100.825340 
	C325.319183,100.788261 325.132050,99.490349 324.721619,98.336494 
	C331.528687,98.009598 337.980133,97.699783 344.753418,97.374504 
	C344.753418,98.930214 344.753418,100.685745 344.753418,103.924217 
	C349.702728,97.503448 355.661041,97.212097 361.974304,96.824989 
	C368.940796,96.397827 373.678223,101.475555 373.929718,109.205528 
	C374.227478,118.358170 374.051331,127.528343 373.976379,136.690063 
	C373.941193,140.991425 373.957306,145.065323 379.790619,145.455521 
	C380.244171,145.485870 380.641846,146.351120 381.531647,147.353455 
	C380.049316,147.631760 379.067474,147.816086 377.621613,148.000336 
z"/>
<path fill="currentColor" opacity="1.000000" stroke="none" 
	d="
M520.495300,147.999695 
	C519.444702,147.852615 518.841614,147.705856 518.238464,147.559113 
	C518.806946,146.718826 519.277710,145.248642 519.960144,145.142746 
	C523.753845,144.554138 524.052124,142.025955 524.027527,138.965210 
	C523.952637,129.635895 523.841064,120.301926 524.056396,110.976997 
	C524.200684,104.725433 521.839966,101.719238 518.432617,101.129265 
	C514.488281,100.446312 508.185486,106.221962 508.077087,110.894325 
	C507.837585,121.218307 507.917480,131.553391 508.129059,141.878586 
	C508.150726,142.937256 509.889191,144.022400 510.938568,144.977081 
	C511.656433,145.630173 512.561096,146.077972 513.382202,146.617554 
	C513.229553,147.078369 513.076904,147.539169 512.924316,147.999985 
	C508.847809,147.999985 504.771332,147.999985 500.694855,147.999985 
	C496.551117,147.999985 492.407379,147.999985 487.845337,147.999985 
	C488.198822,146.728271 488.449310,145.153717 488.662292,145.158752 
	C494.980408,145.308838 494.750946,140.076218 494.819916,136.523483 
	C495.008759,126.799965 494.248657,117.061470 494.047302,107.325127 
	C493.973083,103.737701 492.762848,101.500580 489.015106,100.866714 
	C488.506439,100.780685 488.204102,99.474899 487.579376,98.311462 
	C494.586121,97.992905 501.062592,97.698463 507.857666,97.389534 
	C507.857666,99.007744 507.857666,100.753731 507.857666,103.543274 
	C512.713867,97.846352 518.380188,97.177330 524.614807,96.810043 
	C532.497070,96.345688 536.726624,102.049431 536.937622,109.347992 
	C537.197510,118.337158 537.053345,127.340034 536.976257,136.336060 
	C536.938293,140.771866 536.743103,145.143448 542.915710,145.505707 
	C543.168945,145.520569 543.455200,145.900391 543.623352,146.173431 
	C543.784973,146.435959 543.812927,146.780731 544.155457,148.000031 
	C536.264954,148.000031 528.603821,148.000031 520.495300,147.999695 
z"/>
<path fill="currentColor" opacity="1.000000" stroke="none" 
	d="
M105.999222,125.996284 
	C105.999298,130.323975 105.966507,134.153198 106.009033,137.981567 
	C106.048599,141.543701 106.063400,145.121628 111.181252,145.115570 
	C112.051666,145.114532 112.922997,145.878601 113.793915,146.289200 
	C113.486809,146.730026 113.179710,147.170837 112.872604,147.611664 
	C104.367500,147.611664 95.862404,147.611664 87.120064,147.611664 
	C87.230942,147.150360 87.257843,146.129898 87.524368,146.062912 
	C93.542839,144.550293 93.180687,140.001709 93.057518,135.255661 
	C92.850288,127.270409 92.820343,119.270576 93.054031,111.286781 
	C93.265717,104.054596 90.501442,101.577011 87.251694,101.136482 
	C82.765808,100.528389 77.122589,106.330063 77.043053,111.577347 
	C76.894203,121.396919 76.883392,131.223389 77.136887,141.038666 
	C77.171616,142.383423 78.988632,143.735275 80.098106,144.978912 
	C80.747871,145.707275 81.630470,146.227951 83.559166,147.750595 
	C73.646408,147.750595 65.399300,147.750595 56.766251,147.750595 
	C57.175743,146.671844 57.506641,145.139328 57.791172,145.147903 
	C63.841202,145.329956 63.716434,140.172440 63.794064,136.901566 
	C64.028503,127.022789 63.262573,117.123566 63.042141,107.228859 
	C62.967907,103.896606 61.882549,101.720848 58.425896,100.921478 
	C57.709656,100.755844 57.220734,99.607216 56.152939,98.356155 
	C63.618996,97.992554 70.105942,97.676636 76.917770,97.344894 
	C76.917770,99.042755 76.917770,100.777374 76.917770,103.637985 
	C82.248611,96.876205 88.869125,96.567078 95.673645,97.015800 
	C101.586761,97.405731 105.817673,102.293640 105.973770,109.017365 
	C106.101250,114.507965 105.999397,120.003876 105.999222,125.996284 
z"/>
<path fill="currentColor" opacity="1.000000" stroke="none" 
	d="
M290.653229,216.888550 
	C296.969696,219.476883 298.962006,224.330765 298.988342,230.293381 
	C299.031036,239.955353 299.015900,249.617676 298.990479,259.279755 
	C298.982300,262.380890 298.838928,265.442383 303.459503,262.925629 
	C303.988129,262.637695 304.953705,263.152008 305.716705,263.294342 
	C305.237061,264.175568 304.980469,265.384674 304.242767,265.886536 
	C297.921600,270.186890 290.174408,268.602661 285.532623,262.034271 
	C280.529541,267.843872 274.412781,269.547028 267.114197,267.081787 
	C262.995911,265.690735 260.481049,262.928833 260.061859,258.706696 
	C259.538086,253.430557 259.458466,247.877838 265.116211,245.068527 
	C269.965271,242.660736 275.272125,241.188858 280.202148,238.923615 
	C282.355896,237.934006 285.644379,236.052185 285.698944,234.481125 
	C285.868134,229.610275 288.265442,223.528427 283.211334,220.172729 
	C280.556915,218.410324 276.214142,219.190765 272.469421,218.806046 
	C273.956268,222.078705 275.777191,224.326843 275.777618,226.575333 
	C275.778046,228.891602 274.520477,232.595428 272.887726,233.202423 
	C270.382477,234.133774 266.185760,233.948792 264.382141,232.348877 
	C262.647644,230.810333 261.731506,226.170868 262.810669,224.153809 
	C264.394073,221.194290 267.814636,217.896637 270.914307,217.346771 
	C277.197296,216.232239 283.790131,216.864304 290.653229,216.888550 
M274.972351,260.447388 
	C281.035126,263.354126 285.976959,260.342285 285.998169,253.715500 
	C286.012268,249.311127 286.000824,244.906662 286.000824,240.012283 
	C282.931732,241.780731 280.165558,243.054657 277.764526,244.824081 
	C272.606964,248.624908 271.395477,254.501175 274.972351,260.447388 
z"/>
<path fill="currentColor" opacity="1.000000" stroke="none" 
	d="
M493.282501,220.776459 
	C497.382751,225.892227 498.707306,231.388550 497.743958,237.851044 
	C488.718384,237.851044 479.642303,237.851044 469.515930,237.851044 
	C470.236328,242.920273 470.188538,247.721771 471.669373,251.993362 
	C475.379944,262.696991 486.287140,264.248047 493.959930,255.544647 
	C494.883118,254.497467 496.008942,253.628922 497.380981,253.046524 
	C495.535156,265.551880 485.384430,270.182159 475.772858,268.843964 
	C460.011993,266.649628 454.737518,252.395874 456.763428,238.313675 
	C457.753510,231.431641 459.787384,225.668686 464.704407,220.679855 
	C470.006866,215.299927 487.987701,213.273972 493.282501,220.776459 
M473.408508,222.076462 
	C472.144135,226.184189 470.879730,230.291931 469.430786,234.999252 
	C472.747681,234.999252 475.373413,234.999237 477.999176,234.999237 
	C480.606384,234.999237 483.213562,234.999252 486.856354,234.999252 
	C485.784485,230.553329 485.278229,226.706558 483.912567,223.193893 
	C481.806458,217.776718 478.444427,217.364944 473.408508,222.076462 
z"/>
<path fill="currentColor" opacity="1.000000" stroke="none" 
	d="
M174.005341,132.620026 
	C172.791260,125.738266 173.203690,119.479179 174.849106,113.039757 
	C177.555588,102.447876 187.469025,96.804657 196.725662,96.747482 
	C207.487839,96.681015 212.413940,102.394615 214.444427,110.001465 
	C215.150940,112.648293 214.974350,115.530846 215.247528,118.874176 
	C205.747559,118.874176 196.545761,118.874176 185.842758,118.874176 
	C187.354584,125.092415 187.860397,130.838913 190.148651,135.755890 
	C193.915741,143.850677 203.407623,144.322220 210.083771,137.413727 
	C211.339752,136.114029 212.656616,134.873199 214.840286,132.724731 
	C213.172897,146.146744 202.194611,151.189117 192.541214,149.808075 
	C182.611267,148.387482 176.890427,142.282654 174.005341,132.620026 
M201.236557,115.995682 
	C201.822769,115.422173 202.974106,114.765953 202.904221,114.288475 
	C202.420914,110.986107 202.096817,107.554749 200.871735,104.506371 
	C200.139603,102.684624 197.663666,100.108597 196.333466,100.306313 
	C194.054001,100.645119 191.197327,102.436478 190.136459,104.440331 
	C188.357239,107.801056 187.797791,111.807549 186.593903,115.998993 
	C191.698837,115.998993 195.993988,115.998993 201.236557,115.995682 
z"/>
<path fill="currentColor" opacity="1.000000" stroke="none" 
	d="
M288.485199,100.196640 
	C295.263977,96.418457 302.298584,95.648422 309.081848,97.794243 
	C317.205475,100.364067 320.408447,107.418228 319.793701,118.821747 
	C310.753479,118.821747 301.677277,118.821747 291.535767,118.821747 
	C292.237244,123.889534 292.171936,128.688416 293.636810,132.962891 
	C297.298065,143.646103 308.274750,145.239853 315.929596,136.577942 
	C316.864044,135.520538 317.987701,134.630341 319.356506,134.022354 
	C317.649261,146.444916 307.466675,151.175934 297.813904,149.860291 
	C281.958527,147.699265 276.823303,133.223389 278.717133,119.348518 
	C279.766937,111.657227 282.312683,105.362633 288.485199,100.196640 
M308.000488,110.790672 
	C307.342682,108.672852 307.052826,106.327057 305.922241,104.502159 
	C304.820801,102.724319 303.088318,100.745934 301.224243,100.163559 
	C298.012421,99.160110 295.990448,101.625648 294.999786,104.378983 
	C293.688507,108.023468 292.800964,111.820419 291.665924,115.779953 
	C297.521088,115.779953 302.605469,115.779953 308.000549,115.779953 
	C308.000549,114.274117 308.000549,112.984268 308.000488,110.790672 
z"/>
<path fill="currentColor" opacity="1.000000" stroke="none" 
	d="
M474.945099,119.000214 
	C468.148346,119.000214 461.842712,119.000214 454.339600,119.000214 
	C455.269714,124.275711 455.353058,129.418945 457.133484,133.885742 
	C460.978241,143.531586 470.676758,144.980148 477.961548,137.527924 
	C479.262207,136.197357 480.591370,134.894653 482.642303,132.844421 
	C481.648743,145.420166 470.507935,151.178543 460.164642,149.749298 
	C445.490540,147.721573 439.504669,132.660034 441.760681,119.114342 
	C442.903900,112.250298 444.822449,106.387123 449.886841,101.545975 
	C455.725647,95.964531 473.111206,94.393623 478.601105,102.009567 
	C482.218445,107.027779 483.700134,112.401634 482.720978,119.000206 
	C480.325836,119.000206 477.881042,119.000206 474.945099,119.000214 
M455.142639,115.597198 
	C460.371796,115.597198 465.600983,115.597198 471.617920,115.597198 
	C470.864777,111.859573 470.516174,108.297325 469.361115,105.019211 
	C468.544464,102.701515 467.865662,98.765617 464.059235,100.162155 
	C461.495209,101.102875 458.786682,103.162910 457.428131,105.476845 
	C455.878510,108.116302 455.756195,111.593750 455.142639,115.597198 
z"/>
<path fill="currentColor" opacity="1.000000" stroke="none" 
	d="
M235.063889,215.999802 
	C248.819351,216.001770 255.036514,223.396881 253.618576,237.969269 
	C244.582535,237.969269 235.495819,237.969269 224.869888,237.969269 
	C226.348297,244.050095 226.847839,249.800125 229.141800,254.712173 
	C233.007950,262.990692 242.714798,263.335144 249.456497,256.073029 
	C250.568436,254.875244 251.750076,253.742172 253.873734,251.593475 
	C252.165512,265.139679 241.136688,270.157166 231.464447,268.798401 
	C216.643234,266.716248 210.592072,252.686142 212.795105,237.927994 
	C214.348007,227.525162 218.153458,219.729401 228.826172,216.720047 
	C230.672440,216.199448 232.672989,216.225937 235.063889,215.999802 
M241.994049,233.433426 
	C241.359177,230.148010 240.874222,226.824005 240.041275,223.589600 
	C239.393280,221.073410 238.456665,217.943069 234.994141,219.143387 
	C232.696243,219.939987 230.088242,221.690323 229.013412,223.743637 
	C227.302521,227.012054 226.754333,230.889145 225.489380,235.292099 
	C231.499146,234.953384 236.711853,234.659607 241.994049,233.433426 
z"/>
<path fill="currentColor" opacity="1.000000" stroke="none" 
	d="
M121.000916,250.759186 
	C119.033386,241.287842 120.402420,232.733078 125.050133,224.794846 
	C131.278397,214.157059 151.330093,212.937836 157.356262,220.780685 
	C161.242752,225.838806 162.711670,231.333344 161.727081,237.949799 
	C152.598236,237.949799 143.526108,237.949799 132.879913,237.949799 
	C134.348007,243.997574 134.866531,249.709793 137.124084,254.622955 
	C140.814316,262.654114 150.018906,263.393219 156.630249,256.861359 
	C158.067993,255.440887 159.486847,254.001282 161.687576,251.795578 
	C160.414032,264.674561 149.803802,270.277466 139.674301,268.823547 
	C129.437546,267.354248 123.331665,261.196442 121.000916,250.759186 
M137.025040,222.778107 
	C135.929840,226.699615 134.834656,230.621140 133.670425,234.789795 
	C139.472717,234.789795 144.567047,234.789795 149.994781,234.789795 
	C149.994781,232.630661 150.515518,230.485229 149.884003,228.762100 
	C148.652466,225.401840 147.482483,221.438644 144.953217,219.309784 
	C142.752609,217.457596 139.337997,219.389053 137.025040,222.778107 
z"/>
<path fill="currentColor" opacity="1.000000" stroke="none" 
	d="
M29.996977,124.998428 
	C29.997450,113.180557 29.916428,101.861351 30.041420,90.544411 
	C30.086798,86.435921 30.054092,82.787865 24.488117,82.764580 
	C23.958542,82.762360 23.433443,81.689209 22.313644,80.465775 
	C32.670582,80.465775 42.236488,80.465775 53.189510,80.465775 
	C51.330479,81.738792 50.349556,82.980339 49.508045,82.892105 
	C44.862911,82.405113 44.946995,85.241707 44.961891,88.521111 
	C45.038242,105.331757 45.045753,122.143211 44.954716,138.953720 
	C44.935093,142.577240 44.740055,145.837036 49.985092,145.122391 
	C50.612759,145.036865 51.439575,146.412994 52.838589,147.743652 
	C42.284962,147.743652 32.760471,147.743652 22.642044,147.743652 
	C23.434155,146.627563 23.941517,145.276825 24.467489,145.269516 
	C29.983833,145.193100 30.211536,141.622925 30.035059,137.480499 
	C29.865183,133.493027 29.997459,129.492676 29.996977,124.998428 
z"/>
<path fill="currentColor" opacity="1.000000" stroke="none" 
	d="
M352.147644,252.440720 
	C351.001678,245.273422 350.864197,238.734756 352.827545,231.896790 
	C357.699799,214.927658 376.331757,212.587692 387.980621,219.018295 
	C392.224304,221.360962 392.757629,225.671173 391.775879,229.666153 
	C391.272766,231.713425 388.867218,234.164581 386.832062,234.759705 
	C383.777405,235.652924 380.339569,235.225266 378.708130,231.283478 
	C376.986725,227.124344 378.068176,223.738083 382.516205,220.599945 
	C377.454803,217.773209 372.032593,218.385529 369.577393,223.086121 
	C364.366028,233.063614 362.687134,243.563187 367.776154,254.241165 
	C372.725159,264.625275 383.753204,261.724243 388.142944,255.558792 
	C389.053589,254.279755 390.731689,253.547150 392.666382,252.109070 
	C390.895233,264.136292 379.822968,272.335876 366.215698,267.682129 
	C358.961334,265.201080 354.747955,259.839050 352.147644,252.440720 
z"/>
<path fill="currentColor" opacity="1.000000" stroke="none" 
	d="
M170.000595,228.150208 
	C168.993698,222.092621 176.034714,216.497513 180.568054,216.163193 
	C186.164352,215.750504 192.113052,214.799469 197.218018,218.623505 
	C197.691223,218.977966 198.454102,218.945709 198.979691,219.068924 
	C199.971680,217.863449 200.862686,216.780701 202.739883,214.499512 
	C202.739883,221.698944 202.739883,227.268936 202.739883,234.198944 
	C201.333710,232.661636 200.444885,232.029556 200.028305,231.168884 
	C198.917099,228.873047 198.315384,226.275284 196.926956,224.185715 
	C195.730713,222.385391 193.959000,220.638412 192.034866,219.722763 
	C188.576370,218.076965 184.253357,218.128876 182.459183,221.566132 
	C180.724304,224.889786 181.692825,229.087585 185.261703,231.664917 
	C189.296326,234.578613 193.466476,237.303909 197.550613,240.149963 
	C203.637756,244.391830 206.738434,252.398346 204.959854,259.171356 
	C203.690338,264.005890 195.886978,269.205078 188.917694,268.853851 
	C183.900635,268.601074 178.951691,266.996704 173.272964,265.854553 
	C172.784271,266.217804 171.314545,267.310242 168.893204,269.109985 
	C169.442352,261.218292 169.895432,254.706970 170.348526,248.195633 
	C170.726379,248.025009 171.104233,247.854370 171.482086,247.683746 
	C171.988098,248.733688 172.675049,249.735413 172.969925,250.841660 
	C174.540939,256.735565 175.387192,262.795013 182.551788,265.304138 
	C186.631592,266.732910 189.378311,265.157288 190.783829,262.345367 
	C191.858810,260.194733 191.955444,256.057434 190.573303,254.464935 
	C186.843094,250.167023 182.123428,246.717514 177.734253,243.004822 
	C173.239731,239.203003 169.283829,235.159286 170.000595,228.150208 
z"/>
<path fill="currentColor" opacity="1.000000" stroke="none" 
	d="
M523.960388,261.850891 
	C525.835022,262.855774 527.653687,263.373932 529.424011,264.023590 
	C530.322021,264.353149 531.132935,264.919952 531.983215,265.379517 
	C531.209412,265.918915 530.442627,266.914856 529.660767,266.926880 
	C521.996338,267.044891 514.329346,267.006348 506.663116,266.991425 
	C505.517944,266.989197 504.372986,266.879364 502.861176,266.800049 
	C503.193787,265.712494 503.481995,264.146149 503.697601,264.156067 
	C509.773468,264.435944 509.724762,259.292450 509.799438,255.981171 
	C510.022522,246.090317 509.257080,236.180573 509.043427,226.274628 
	C508.966003,222.683273 507.725281,220.452377 503.962158,219.856537 
	C503.479889,219.780151 503.200043,218.425446 502.663727,217.330917 
	C509.608185,216.992828 516.091492,216.677185 522.920715,216.344696 
	C522.920715,218.375763 522.920715,220.446091 522.920715,223.471237 
	C526.648010,217.604340 531.115356,215.300110 537.254517,215.933945 
	C543.190308,216.546829 546.983643,223.428452 543.841309,228.464996 
	C541.827820,231.692215 535.919556,233.344894 532.994202,231.499252 
	C529.385193,229.222305 529.285889,225.352661 533.034302,220.049942 
	C527.415039,220.240662 524.435974,223.925415 524.188110,228.036606 
	C523.519165,239.129684 523.912537,250.286835 523.960388,261.850891 
z"/>
<path fill="currentColor" opacity="1.000000" stroke="none" 
	d="
M349.034424,227.820892 
	C344.080505,233.772934 337.738373,233.889755 335.824432,228.143478 
	C335.062683,225.856583 336.339294,222.890747 336.663818,220.417404 
	C332.226196,220.601883 328.157745,225.206665 328.039001,231.852036 
	C327.881500,240.665863 328.002136,249.484604 327.999176,258.301239 
	C327.997925,262.060394 329.889313,263.850372 333.625305,264.053741 
	C334.865601,264.121307 336.071808,264.814911 337.293579,265.222290 
	C337.153076,265.737946 337.012573,266.253601 336.872070,266.769257 
	C327.439117,266.769257 318.006134,266.769257 307.975281,266.769257 
	C308.285278,265.777344 308.580261,264.144226 308.824890,264.151733 
	C314.917145,264.338715 314.707886,259.113525 314.788940,255.876358 
	C315.035980,246.005844 314.262970,236.113220 314.042358,226.225723 
	C313.968079,222.896103 312.882355,220.722076 309.429932,219.921799 
	C308.712769,219.755539 308.221924,218.612946 307.136871,217.350159 
	C314.610107,216.993271 321.090393,216.683792 327.905518,216.358322 
	C327.905518,218.369766 327.905518,220.441925 327.905518,223.341431 
	C331.582336,217.983597 335.674377,215.363739 341.702362,215.914490 
	C347.738831,216.465988 351.089081,221.287689 349.034424,227.820892 
z"/>
<path fill="currentColor" opacity="1.000000" stroke="none" 
	d="
M565.000000,130.947754 
	C565.000000,133.601913 564.593445,135.868713 565.111206,137.899887 
	C565.657288,140.042297 567.026672,143.588364 568.140991,143.628662 
	C570.304260,143.706894 572.677490,141.957535 574.685425,140.564255 
	C575.598145,139.930923 575.847778,138.341949 576.915955,136.099564 
	C577.708191,137.761246 578.771362,138.902588 578.575012,139.753281 
	C577.137329,145.983932 570.488525,150.625137 564.141846,149.988403 
	C555.175537,149.088867 552.332397,143.599655 552.108704,136.865982 
	C551.717651,125.092323 551.999695,113.296318 551.999695,101.118378 
	C549.316223,101.118378 546.907043,101.118378 543.101257,101.118378 
	C545.413757,96.416359 549.228821,98.986313 551.840332,97.543785 
	C551.840332,93.718605 551.840332,89.623375 551.840332,85.401024 
	C556.316833,84.331154 560.461609,83.340569 564.923218,82.274269 
	C564.923218,87.287682 564.923218,92.376732 564.923218,97.862030 
	C568.984131,97.862030 572.736877,97.862030 576.484253,97.862030 
	C576.417847,100.549309 576.417847,100.549309 565.000000,101.248123 
	C565.000000,110.953262 565.000000,120.705009 565.000000,130.947754 
z"/>
</svg>