<?xml version="1.0" encoding="UTF-8"?>
<svg width="2365pt" height="2365pt" preserveAspectRatio="xMidYMid" version="1.0" viewBox="0 0 2365 2365" xmlns="http://www.w3.org/2000/svg">
<defs>
<clipPath id="a">
<rect x="-2123.6" y="-1099.6" width="650.31" height="649.62"/>
</clipPath>
</defs>
<g transform="matrix(.1 0 0 -.1 121.37 2179)" fill="currentColor" stroke="currentColor">
<path d="m4506 20099c-181-24-405-116-555-230-395-298-567-805-432-1276 119-416 453-737 868-833 200-47 363-47 561 1 447 109 792 471 883 928 27 132 29 307 5 440-112 622-699 1050-1330 970z"/>
<path d="m3760 9965v-6315h1810v12630h-1810z"/>
<path d="m8242 9958 3-6323 2385-3c2408-3 2807 1 3215 33 198 16 183 14 445 51 678 94 1367 297 1970 580 899 422 1688 1051 2290 1824 608 782 1024 1702 1209 2675 16 88 35 196 41 240s15 109 20 145c47 331 62 786 40 1163-69 1156-435 2268-1053 3197-931 1400-2375 2309-4162 2620-186 32-265 44-400 60-50 5-128 14-175 20-326 38-451 40-3182 40h-2648zm5203 4668c535-50 852-103 1238-207 1538-414 2614-1408 3080-2844 78-241 147-538 181-780 9-60 20-141 26-180 35-250 43-819 16-1070-45-412-144-867-256-1170-109-298-157-410-257-609-695-1384-1944-2220-3633-2430-387-49-384-49-2122-53l-1658-4v9373l1608-5c1368-4 1632-7 1777-21z"/>
</g>
<path transform="matrix(1.5377 0 0 1.6146 3265.4 1775.4)" d="m-2123.6-1099.6v1299.2h650.31a649.62 649.62 0 0 1-650.31-648.25 649.62 649.62 0 0 1 647.56-650.99 649.62 649.62 0 0 1 651.68 646.88l6e-3 2.7436v-649.62zm1299.2 649.62a649.62 649.62 0 0 1-648.94 649.62h648.94z" clip-path="url(#a)" fill="currentColor" stroke="currentColor"/>
<path transform="matrix(1.5377 0 0 -1.6146 3265.4 589.56)" d="m-2123.6-1099.6v1299.2h650.31a649.62 649.62 0 0 1-650.31-648.25 649.62 649.62 0 0 1 647.56-650.99 649.62 649.62 0 0 1 651.68 646.88l6e-3 2.7436v-649.62zm1299.2 649.62a649.62 649.62 0 0 1-648.94 649.62h648.94z" clip-path="url(#a)" fill="currentColor" stroke="currentColor"/>
<path transform="matrix(-1.5377 0 0 -1.6146 -900.45 589.56)" d="m-2123.6-1099.6v1299.2h650.31a649.62 649.62 0 0 1-650.31-648.25 649.62 649.62 0 0 1 647.56-650.99 649.62 649.62 0 0 1 651.68 646.88l6e-3 2.7436v-649.62zm1299.2 649.62a649.62 649.62 0 0 1-648.94 649.62h648.94z" clip-path="url(#a)" fill="currentColor" stroke="currentColor"/>
<path transform="matrix(-1.5377 0 0 1.6146 -900.45 1775.4)" d="m-2123.6-1099.6v1299.2h650.31a649.62 649.62 0 0 1-650.31-648.25 649.62 649.62 0 0 1 647.56-650.99 649.62 649.62 0 0 1 651.68 646.88l6e-3 2.7436v-649.62zm1299.2 649.62a649.62 649.62 0 0 1-648.94 649.62h648.94z" clip-path="url(#a)" fill="currentColor" stroke="currentColor"/>
</svg>
