<?xml version="1.0" standalone="no"?>
<!DOCTYPE svg PUBLIC "-//W3C//DTD SVG 20010904//EN"
 "http://www.w3.org/TR/2001/REC-SVG-20010904/DTD/svg10.dtd">
<svg version="1.0" xmlns="http://www.w3.org/2000/svg"
 width="2365.000000pt" height="2365.000000pt" viewBox="0 0 2365.000000 2365.000000"
 preserveAspectRatio="xMidYMid meet">

<g transform="translate(0.000000,2365.000000) scale(0.100000,-0.100000)"
fill="currentColor" stroke="currentColor">
<path d="M4506 20099 c-181 -24 -405 -116 -555 -230 -395 -298 -567 -805 -432
-1276 119 -416 453 -737 868 -833 200 -47 363 -47 561 1 447 109 792 471 883
928 27 132 29 307 5 440 -112 622 -699 1050 -1330 970z"/>
<path d="M3760 9965 l0 -6315 905 0 905 0 0 6315 0 6315 -905 0 -905 0 0
-6315z"/>
<path d="M8242 9958 l3 -6323 2385 -3 c2408 -3 2807 1 3215 33 198 16 183 14
445 51 678 94 1367 297 1970 580 899 422 1688 1051 2290 1824 608 782 1024
1702 1209 2675 16 88 35 196 41 240 6 44 15 109 20 145 47 331 62 786 40 1163
-69 1156 -435 2268 -1053 3197 -931 1400 -2375 2309 -4162 2620 -186 32 -265
44 -400 60 -50 5 -128 14 -175 20 -326 38 -451 40 -3182 40 l-2648 0 2 -6322z
m5203 4668 c535 -50 852 -103 1238 -207 1538 -414 2614 -1408 3080 -2844 78
-241 147 -538 181 -780 9 -60 20 -141 26 -180 35 -250 43 -819 16 -1070 -45
-412 -144 -867 -256 -1170 -109 -298 -157 -410 -257 -609 -695 -1384 -1944
-2220 -3633 -2430 -387 -49 -384 -49 -2122 -53 l-1658 -4 0 4686 0 4687 1608
-5 c1368 -4 1632 -7 1777 -21z"/>
</g>
</svg>
