<?xml version="1.0" standalone="no"?>
<!DOCTYPE svg PUBLIC "-//W3C//DTD SVG 20010904//EN"
 "http://www.w3.org/TR/2001/REC-SVG-20010904/DTD/svg10.dtd">
<svg version="1.0" xmlns="http://www.w3.org/2000/svg"
 width="237.000000pt" height="182.000000pt" viewBox="0 0 237.000000 182.000000"
 preserveAspectRatio="xMidYMid meet">

<g transform="translate(0.000000,182.000000) scale(0.100000,-0.100000)"
fill="currentColor" stroke="currentColor">
<path d="M518 1545 c-117 -30 -201 -92 -248 -183 -65 -125 -16 -290 110 -374
31 -20 128 -64 215 -96 88 -33 180 -69 205 -80 97 -42 139 -103 126 -185 -14
-86 -65 -134 -171 -162 -117 -30 -212 -14 -365 63 -52 26 -98 48 -102 50 -4 2
-21 -21 -37 -50 l-31 -53 22 -19 c41 -33 158 -87 237 -108 111 -30 264 -30
351 0 200 68 305 269 224 430 -47 95 -111 136 -347 226 -197 75 -231 92 -271
136 -48 54 -57 113 -25 177 29 59 77 88 172 103 87 14 171 0 287 -45 48 -19
90 -35 93 -35 7 0 57 94 57 105 0 11 -144 74 -205 90 -87 23 -228 28 -297 10z"/>
<path d="M1710 1549 c-231 -30 -395 -177 -457 -409 -12 -46 -17 -104 -17 -200
0 -96 5 -154 17 -200 52 -197 168 -323 354 -386 71 -25 91 -27 218 -27 109 1
157 6 219 22 44 12 81 23 84 25 7 8 -21 116 -31 116 -6 0 -46 -7 -90 -16 -56
-12 -115 -15 -201 -12 -110 3 -127 7 -186 34 -86 41 -130 80 -169 153 -41 78
-61 172 -61 296 0 258 96 409 294 461 84 23 254 18 392 -11 30 -7 30 -6 42 45
7 28 12 55 12 60 0 14 -102 39 -201 50 -106 11 -128 11 -219 -1z"/>
</g>
</svg>
