<svg version="1.1" id="Layer_1" xmlns="http://www.w3.org/2000/svg" xmlns:xlink="http://www.w3.org/1999/xlink" x="0px" y="0px"
	 width="100%" viewBox="0 0 900 600" enable-background="new 0 0 900 600" xml:space="preserve">
<path fill="currentColor" opacity="1.000000" stroke="none" 
	d="
M11.000238,363.833466 
	C11.000064,358.038116 11.000064,352.729126 11.000064,347.466827 
	C22.000051,346.029327 22.000040,346.029327 22.000036,335.098816 
	C22.000031,312.934357 21.904417,290.769073 22.088049,268.606140 
	C22.121161,264.609924 20.998728,262.872284 16.922298,262.929016 
	C15.046935,262.955078 13.160894,262.213837 11.161350,261.795807 
	C11.161350,255.352158 11.161350,249.042358 11.161350,242.365692 
	C45.138828,242.365692 79.208458,242.365692 113.639992,242.365692 
	C113.639992,254.476929 113.639992,266.883545 113.639992,279.645874 
	C105.848816,279.645874 97.777641,279.645874 89.091270,279.645874 
	C88.609619,275.801300 88.092751,271.675598 87.540512,267.267578 
	C77.029526,267.267578 66.284332,267.267578 55.268841,267.267578 
	C55.268841,275.667542 55.268841,284.071503 55.268841,292.887390 
	C68.682129,292.887390 82.090515,292.887390 95.746536,292.887390 
	C95.746536,301.363831 95.746536,309.433929 95.746536,317.915955 
	C82.289833,317.915955 68.881721,317.915955 55.001614,317.915955 
	C55.001614,326.427551 54.827015,334.546783 55.194489,342.641388 
	C55.248085,343.822083 57.736736,345.499664 59.357407,345.900177 
	C67.970772,348.028687 68.057556,347.913544 67.984573,357.106781 
	C67.893738,368.547821 69.585777,366.923004 58.337280,366.981598 
	C43.839108,367.057098 29.340225,367.009766 14.841692,366.987793 
	C13.001835,366.985016 10.499576,367.766144 11.000238,363.833466 
z"/>
<path fill="currentColor" opacity="1.000000" stroke="none" 
	d="
M579.461426,274.203735 
	C587.596802,271.624420 595.383118,270.210541 603.431580,272.868927 
	C613.691101,276.257660 621.464539,285.446259 621.927307,295.967224 
	C622.553345,310.200012 622.721130,324.454346 622.977295,338.701385 
	C623.107422,345.938507 622.972839,346.253204 629.976257,346.864990 
	C633.435669,347.167145 634.149963,348.480896 634.041687,351.488892 
	C633.879944,355.982849 634.002441,360.486816 633.989685,364.986511 
	C633.988342,365.466614 633.891541,365.946442 633.776184,367.000000 
	C632.020691,367.000000 630.255737,367.000000 628.490723,367.000000 
	C614.658264,367.000000 600.823486,366.860138 586.994751,367.087189 
	C582.967529,367.153259 581.508301,365.870819 581.956665,361.932098 
	C582.200134,359.793304 582.167236,357.588379 581.966858,355.440521 
	C581.480225,350.224670 581.900452,345.885040 588.800110,345.851227 
	C589.536133,345.847626 590.911011,344.101044 590.897705,343.178802 
	C590.709412,330.111023 590.609924,317.030090 589.863708,303.988129 
	C589.566162,298.787323 584.613464,295.478851 579.898621,296.033081 
	C573.103882,296.831848 570.001221,300.006195 570.000427,306.167389 
	C569.998840,317.833313 570.136658,329.501892 569.911499,341.163483 
	C569.849060,344.396545 571.153442,345.801025 573.811279,347.083984 
	C575.165771,347.737793 576.762756,349.504578 576.857544,350.865265 
	C577.215027,355.997772 577.001099,361.170105 577.001099,366.663391 
	C560.473755,366.663391 544.068237,366.663391 527.330078,366.663391 
	C527.330078,360.466858 527.330078,354.058289 527.330078,347.404846 
	C527.529785,347.328705 527.934875,347.060760 528.357117,347.030151 
	C536.997070,346.403473 536.997437,346.408905 536.997437,337.877258 
	C536.997437,323.731293 536.997437,309.585327 536.997437,295.404602 
	C532.974670,294.522858 529.211365,293.697998 525.224304,292.824066 
	C525.224304,286.435974 525.224304,279.999084 525.224304,273.279968 
	C539.317322,273.279968 553.396423,273.279968 567.696411,273.279968 
	C568.214111,276.314850 568.745117,279.428009 569.310181,282.741058 
	C572.618347,279.914429 575.856079,277.147858 579.461426,274.203735 
z"/>
<path fill="currentColor" opacity="1.000000" stroke="none" 
	d="
M435.999756,284.263397 
	C435.967682,281.868134 436.155731,280.869598 438.492981,279.554932 
	C448.960785,273.666901 460.364502,271.459869 471.922882,271.225128 
	C483.952179,270.980835 496.133270,273.196136 505.125397,281.992737 
	C511.227997,287.962616 514.701111,296.139343 514.931519,304.987396 
	C515.217407,315.968414 514.999878,326.962555 515.000061,337.951019 
	C515.000183,346.628967 515.000305,346.628967 523.764404,347.270752 
	C523.764404,353.664917 523.764404,360.078949 523.764404,366.747742 
	C511.616577,366.747742 499.528625,366.747742 487.420044,366.747742 
	C486.270111,364.555206 485.084595,362.294739 483.740021,359.731110 
	C473.937256,371.294250 461.099915,369.485687 449.358490,366.698364 
	C439.143524,364.273407 432.344757,355.961548 431.183136,345.040588 
	C430.150726,335.333740 432.113129,326.303436 440.138275,319.182922 
	C447.735260,312.442352 456.758392,310.766327 466.206177,310.067139 
	C471.302887,309.690002 476.450470,310.000000 482.340851,310.000000 
	C481.919952,306.251617 482.030701,302.772430 481.069458,299.620117 
	C479.154297,293.339539 468.596985,291.208527 463.278198,295.189484 
	C461.309967,296.662689 460.462982,300.342499 460.143890,303.134705 
	C459.726227,306.788818 458.534790,308.259491 454.706879,308.075867 
	C448.728149,307.789032 442.725555,307.999908 435.999756,307.999908 
	C435.999756,300.209747 435.999756,292.469879 435.999756,284.263397 
M468.648193,345.137970 
	C477.987885,348.028229 483.139038,342.102356 481.479218,330.000366 
	C478.734863,330.000366 475.938110,330.084045 473.148254,329.981598 
	C468.462677,329.809601 464.999298,331.647644 463.428375,336.133789 
	C461.921326,340.437439 465.007263,342.721069 468.648193,345.137970 
z"/>
<path fill="currentColor" opacity="1.000000" stroke="none" 
	d="
M260.171265,365.330200 
	C247.688904,369.566864 235.087280,369.317932 222.937408,366.757721 
	C210.593506,364.156616 201.893372,355.720795 196.062592,344.404755 
	C192.483582,337.458801 191.350494,329.949280 191.127960,322.434082 
	C190.729996,308.995117 194.056671,296.153595 202.393143,285.572510 
	C207.998535,278.457825 215.919357,273.182983 225.310043,272.164398 
	C234.099579,271.210999 243.023804,270.762726 251.702728,273.910919 
	C264.093567,278.405579 271.788940,287.220947 273.778442,299.912018 
	C275.350311,309.938751 274.962372,320.272675 275.462219,330.838562 
	C258.276031,330.838562 241.843719,330.838562 225.385117,330.838562 
	C226.051025,338.788727 232.819153,342.144257 238.196167,342.839478 
	C247.036621,343.982483 255.754517,342.649353 263.884979,338.591278 
	C264.590179,338.239258 265.402710,338.102264 266.783875,337.673340 
	C269.274658,344.653656 271.720245,351.507263 274.213379,358.494049 
	C269.412018,360.775696 264.929504,362.905792 260.171265,365.330200 
M245.001495,305.464844 
	C244.882187,299.118500 240.990097,294.590515 235.952148,295.009613 
	C230.019409,295.503143 224.220490,301.636444 225.383423,309.836243 
	C232.137222,309.836243 238.914291,309.836243 245.484161,309.836243 
	C245.310730,308.575470 245.156067,307.451019 245.001495,305.464844 
z"/>
<path fill="currentColor" opacity="1.000000" stroke="none" 
	d="
M340.726440,367.999939 
	C331.692383,367.698639 322.932648,368.418182 314.613434,366.830048 
	C304.846222,364.965546 296.794434,359.385864 291.080750,350.687500 
	C285.327209,341.928558 282.115967,332.493378 282.038788,322.079987 
	C281.940582,308.821869 285.048279,296.079132 293.312714,285.803284 
	C299.567810,278.025787 308.160706,272.523956 319.047302,271.907928 
	C327.000458,271.457825 334.793854,271.223328 342.460571,273.878143 
	C355.107117,278.257416 362.821198,287.229034 364.794373,300.143829 
	C366.306671,310.042206 365.972931,320.222656 366.485809,330.805298 
	C349.368378,330.805298 332.825897,330.805298 316.145264,330.805298 
	C318.500336,339.040985 323.577759,342.671814 331.368317,343.076355 
	C340.376312,343.544128 348.782745,341.669861 357.591309,337.362122 
	C360.165375,344.531830 362.615265,351.355682 365.452148,359.257477 
	C357.297791,362.196411 349.246704,365.098145 340.726440,367.999939 
M317.843170,309.997559 
	C324.120117,309.997559 330.397064,309.997559 336.826324,309.997559 
	C336.068207,306.143707 336.081024,302.295349 334.506104,299.274841 
	C332.844604,296.088196 329.503174,294.094116 325.348022,295.256317 
	C319.032837,297.022614 314.912170,304.208466 317.843170,309.997559 
z"/>
<path fill="currentColor" opacity="1.000000" stroke="none" 
	d="
M783.955933,272.968323 
	C797.221130,276.244995 806.563660,286.104401 808.851807,299.808502 
	C810.299255,308.477417 810.263550,317.388458 811.032898,326.178680 
	C811.355103,329.859375 810.049255,331.122803 806.270020,331.076630 
	C791.291748,330.893555 776.309814,331.001343 761.281555,331.001343 
	C763.275146,339.079987 768.226318,343.476196 776.135193,342.869324 
	C784.715332,342.210907 793.217346,340.534302 802.499451,339.193970 
	C804.397339,344.797791 806.692017,351.573273 809.033081,358.485687 
	C798.761230,364.395508 788.420654,369.572174 776.022644,368.036591 
	C769.088928,367.177765 761.567322,368.130432 755.255615,365.755341 
	C738.835266,359.576355 729.890442,348.016937 727.829773,329.336304 
	C726.621399,318.382080 728.109741,308.031616 730.996643,297.655884 
	C734.561707,284.842957 751.665466,270.683716 765.356018,271.958344 
	C771.389954,272.520111 777.466248,272.627686 783.955933,272.968323 
M772.351196,295.000061 
	C764.431091,295.812408 761.989319,298.990814 760.901917,309.776184 
	C767.489258,309.776184 774.090027,309.776184 780.662354,309.776184 
	C781.548462,300.035797 780.261536,297.542450 772.351196,295.000061 
z"/>
<path fill="currentColor" opacity="1.000000" stroke="none" 
	d="
M699.876282,273.961182 
	C705.953979,277.020508 711.782043,279.790985 717.167786,283.250183 
	C718.511108,284.112946 718.966064,287.212952 718.905884,289.257446 
	C718.658386,297.651062 718.054382,306.034119 717.564941,314.716736 
	C710.022461,314.716736 702.275635,314.716736 694.287170,314.716736 
	C693.225037,310.327148 691.477356,305.869934 691.224609,301.329529 
	C690.936707,296.157776 687.461304,295.633484 684.026489,295.079773 
	C678.545105,294.196136 674.019775,296.497467 671.764526,301.832001 
	C667.123962,312.808716 666.918274,324.090179 670.878357,335.368103 
	C672.371277,339.619904 674.871643,342.639374 679.878845,343.057190 
	C685.422485,343.519714 689.347900,341.665192 691.885437,336.586273 
	C692.463074,335.430145 694.170044,334.144226 695.387390,334.113434 
	C703.854736,333.899323 712.330017,334.000366 721.644592,334.000366 
	C718.514954,341.964905 716.895691,350.287384 712.360229,356.470978 
	C707.626343,362.925079 700.378540,367.906494 691.336426,367.990479 
	C685.506409,368.044617 679.665955,367.789368 673.846924,368.048218 
	C664.704407,368.454926 657.655273,363.978790 651.101135,358.540161 
	C641.976013,350.968018 638.182007,340.947937 636.762451,329.225159 
	C635.246460,316.706726 636.179199,304.763336 641.926331,293.709961 
	C648.777832,280.532288 659.698975,272.864563 675.055298,271.902740 
	C683.358459,271.382690 691.456604,271.671906 699.876282,273.961182 
z"/>
<path fill="currentColor" opacity="1.000000" stroke="none" 
	d="
M415.999969,248.006439 
	C415.999969,278.653290 416.197906,308.804230 415.823639,338.948059 
	C415.753479,344.594971 417.731689,346.911743 422.706573,346.894684 
	C426.467590,346.881775 427.036316,348.520752 427.058136,351.736450 
	C427.161621,367.000427 427.233582,366.999969 412.223755,366.999969 
	C400.397552,367.000000 388.569122,366.871063 376.746460,367.075195 
	C372.983368,367.140167 371.674988,365.894012 371.940948,362.191895 
	C372.202850,358.546234 372.107941,354.862701 371.962524,351.204010 
	C371.850037,348.372986 372.806305,347.531433 375.779755,346.824646 
	C384.161987,344.832153 382.960297,347.263397 382.978302,338.920807 
	C383.032898,313.602844 382.998047,288.284698 382.998047,262.966644 
	C382.998047,254.736877 383.063904,254.066132 375.031586,253.277451 
	C370.086395,252.791885 369.782043,250.787582 369.967072,247.024811 
	C370.170349,242.891541 370.013397,238.740555 370.013397,234.299591 
	C385.295929,234.299591 400.358978,234.299591 415.999969,234.299591 
	C415.999969,238.641708 415.999969,243.074890 415.999969,248.006439 
z"/>
<path fill="currentColor" opacity="1.000000" stroke="none" 
	d="
M865.000000,315.083496 
	C865.000000,323.404053 865.428467,331.268311 864.851501,339.058105 
	C864.457886,344.370850 866.583740,346.665436 871.324158,346.914551 
	C875.198853,347.118195 876.338562,348.843872 876.060730,352.497192 
	C875.783447,356.142426 876.306274,359.865112 875.836487,363.470215 
	C875.666870,364.771484 873.648071,366.832123 872.450378,366.848175 
	C855.815918,367.071411 839.177429,366.999237 822.271118,366.999237 
	C822.271118,360.326050 822.271118,353.912628 822.271118,346.972351 
	C823.513062,346.972351 824.818298,347.191528 826.023010,346.936249 
	C833.007935,345.456177 833.000000,345.418365 833.000000,338.062256 
	C833.000000,323.911926 833.000000,309.761597 833.000000,295.507629 
	C828.639587,294.589478 824.442566,293.705719 820.147095,292.801239 
	C820.147095,286.302429 820.147095,279.996094 820.147095,273.000000 
	C826.009644,273.000000 831.931091,273.000000 837.852600,273.000000 
	C844.018616,273.000000 850.213562,273.368622 856.341980,272.888336 
	C861.649353,272.472351 864.293030,274.315643 864.136047,280.665161 
	C868.653076,274.845917 873.549500,271.525024 880.053772,271.529114 
	C883.227356,271.531097 886.449585,271.770233 889.537842,272.427917 
	C890.258850,272.581451 890.960083,274.882965 890.928711,276.178314 
	C890.737122,284.097992 890.440674,292.020325 889.871948,299.919708 
	C889.793579,301.008514 888.147949,302.605011 886.989197,302.853546 
	C885.142395,303.249725 883.024597,302.992157 881.143982,302.521301 
	C869.913269,299.708984 865.000000,303.333862 865.000000,315.083496 
z"/>
<path fill="currentColor" opacity="1.000000" stroke="none" 
	d="
M120.000633,353.111572 
	C120.000633,350.974945 120.000633,349.319855 120.000633,347.550842 
	C120.514519,347.344666 120.915367,347.064056 121.334541,347.033325 
	C129.999557,346.397919 129.999985,346.403534 130.000000,337.904663 
	C130.000015,325.407806 130.000000,312.910980 130.000000,300.414124 
	C130.000000,298.817352 130.000000,297.220551 130.000000,295.377014 
	C128.952637,295.086792 127.147003,294.522461 125.310539,294.088684 
	C117.003143,292.126251 117.000015,292.139526 117.000000,283.450836 
	C116.999985,273.000000 116.999985,273.000000 127.223755,273.000000 
	C137.882568,273.000000 148.541382,273.000000 159.740707,273.000000 
	C160.294525,275.771667 160.850220,278.552734 161.459427,281.601624 
	C163.243469,279.628876 165.063156,277.536591 166.968964,275.525909 
	C170.908188,271.369904 176.066208,271.561859 181.176682,271.668976 
	C181.822006,271.682495 182.459045,271.928314 183.107254,271.991699 
	C189.835999,272.649597 191.180405,274.360779 189.985397,280.714081 
	C189.301743,284.348785 188.590744,287.980560 188.019180,291.633514 
	C187.464401,295.179077 187.072128,298.750092 186.509613,303.069183 
	C184.142578,302.855225 181.448563,302.326996 178.780396,302.435333 
	C174.460129,302.610809 170.105667,302.928894 165.864227,303.717224 
	C163.000946,304.249359 161.886322,306.475830 161.935623,309.601105 
	C162.103806,320.262421 162.080399,330.929016 161.949936,341.591400 
	C161.911957,344.694427 162.718323,346.022400 166.125748,346.103699 
	C170.839737,346.216217 174.022522,348.007568 173.119476,353.897308 
	C172.497116,357.956299 173.000000,362.187836 173.000000,366.670746 
	C155.458359,366.670746 138.055878,366.670746 120.000633,366.670746 
	C120.000633,362.437866 120.000633,358.015503 120.000633,353.111572 
z"/>
</svg>