<svg version="1.1" id="Layer_1" xmlns="http://www.w3.org/2000/svg" xmlns:xlink="http://www.w3.org/1999/xlink" x="0px" y="0px"
	 width="100%" viewBox="0 0 900 600" enable-background="new 0 0 900 600" xml:space="preserve">
<path fill="currentColor" opacity="1.000000" stroke="none" 
	d="
M212.000000,154.000000 
	C233.808029,154.000000 255.116074,154.000000 276.739197,154.000000 
	C276.834930,155.473648 276.989410,156.744064 276.989685,158.014511 
	C277.001617,214.173981 277.101837,270.333740 276.932678,326.492706 
	C276.886963,341.672852 273.029846,356.209045 267.299805,370.203491 
	C264.330322,377.455872 261.476959,384.850555 257.553497,391.588348 
	C254.288254,397.195770 249.904007,402.293274 245.361496,406.983307 
	C237.805405,414.784790 230.315842,422.867310 221.677887,429.335236 
	C214.877075,434.427551 206.043716,436.711273 198.740311,441.251343 
	C190.379242,446.448853 181.186661,448.833374 171.874863,450.414764 
	C160.309265,452.378906 148.690002,453.661377 136.705780,452.295380 
	C125.529755,451.021515 114.222519,450.446320 103.942039,445.857422 
	C92.236908,440.632507 80.292015,435.290924 69.918686,427.931702 
	C60.709011,421.398071 53.693638,411.836548 45.365711,403.975952 
	C37.578316,396.625580 32.771179,387.419983 28.569832,377.939911 
	C22.751699,364.811646 17.134451,351.499146 17.006392,336.731842 
	C16.654491,296.151245 16.280741,255.570740 16.022295,214.989517 
	C15.894034,194.849838 16.000000,174.708664 16.000000,154.000000 
	C81.322624,154.000000 146.411316,154.000000 212.000000,154.000000 
M232.018356,384.471405 
	C234.360825,380.467194 236.642868,376.426178 239.056808,372.465546 
	C246.984711,359.458038 251.736237,345.257599 251.855179,330.146362 
	C252.242142,280.987823 252.000000,231.824356 252.000000,182.662781 
	C252.000000,181.216934 252.000000,179.771088 252.000000,178.236435 
	C181.462418,178.236435 111.396950,178.236435 41.000000,178.236435 
	C41.000000,180.265823 41.000000,182.063309 41.000000,183.860794 
	C41.000000,229.022781 40.961689,274.184814 41.044323,319.346649 
	C41.055756,325.596008 41.583008,331.849884 42.013721,338.091858 
	C43.176048,354.936462 51.020554,369.312958 59.764648,383.048187 
	C69.804161,398.818207 84.662346,409.703064 100.944458,418.192932 
	C112.716896,424.331329 125.764099,427.246124 139.135025,427.986938 
	C150.675354,428.626312 162.208130,427.998596 173.307037,424.843933 
	C181.109848,422.626160 188.634613,419.262299 196.034180,415.866821 
	C199.546890,414.254913 202.222931,410.844818 205.718018,409.164764 
	C216.909210,403.785370 223.713516,393.903748 232.018356,384.471405 
z"/>
<path fill="currentColor" opacity="1.000000" stroke="none" 
	d="
M488.014465,342.000000 
	C479.690857,340.567352 473.545013,344.987457 467.259155,348.374786 
	C463.663605,343.048218 458.600159,340.382874 455.265350,342.026062 
	C454.015656,342.641815 452.039703,344.192261 452.212250,344.803131 
	C452.618073,346.239624 453.876312,347.973846 455.219818,348.510315 
	C460.104828,350.460968 465.164062,351.976562 470.162354,353.641937 
	C477.073456,355.944580 479.671875,361.412231 479.909973,368.003784 
	C480.191467,375.796051 475.695251,381.151062 468.905914,383.857391 
	C459.048981,387.786438 449.120667,386.828827 440.277985,380.855591 
	C437.600769,379.047119 436.175354,375.379211 434.203308,372.544434 
	C434.036041,372.303955 433.921356,371.720612 434.035522,371.635223 
	C437.021423,369.402252 439.876556,366.895569 443.151276,365.205536 
	C444.179321,364.674988 446.938385,365.901886 447.888763,367.118378 
	C450.684784,370.697266 454.200958,372.529144 458.497650,371.838013 
	C460.557251,371.506714 462.359589,369.575836 464.278442,368.369385 
	C464.101746,367.770111 463.925018,367.170837 463.748322,366.571564 
	C457.475586,364.201202 451.162415,361.931488 444.941071,359.433167 
	C438.261414,356.750824 434.578186,348.936279 436.501617,341.971497 
	C439.047729,332.751953 445.336884,328.145905 455.021942,327.956085 
	C462.513153,327.809296 469.829865,327.885864 475.498474,333.843781 
	C476.736938,335.145477 477.843872,336.572296 479.656616,338.698181 
	C479.853149,335.204102 480.011383,332.390839 480.185852,329.289124 
	C495.912659,329.289124 511.659149,329.289124 527.703613,329.289124 
	C527.703613,333.273346 527.703613,337.344971 527.703613,341.851074 
	C522.380005,341.851074 516.958557,341.851074 511.693115,341.851074 
	C511.693115,356.315430 511.693115,370.353180 511.693115,384.696106 
	C506.739716,384.696106 501.668549,384.696106 496.185333,384.696106 
	C496.185333,370.727051 496.185333,356.652832 496.185333,342.000000 
	C493.358063,342.000000 490.926514,342.000000 488.014465,342.000000 
z"/>
<path fill="currentColor" opacity="1.000000" stroke="none" 
	d="
M547.999573,256.833374 
	C543.749207,264.329010 538.711060,271.509216 535.537598,279.435974 
	C533.564941,284.363281 534.372620,290.418365 534.021973,295.972931 
	C533.886963,298.111328 534.000000,300.265350 534.000000,302.997864 
	C529.542664,302.997864 525.261597,303.198334 521.023804,302.858856 
	C519.945984,302.772491 518.649597,301.129364 518.106873,299.910645 
	C517.611389,298.798126 517.807739,297.258423 518.030212,295.963867 
	C519.961487,284.725372 515.612183,275.289917 509.717560,266.240112 
	C506.366852,261.095856 503.114197,255.884598 499.957184,250.619690 
	C499.256989,249.452057 499.145935,247.931168 498.602539,246.000687 
	C504.268188,246.000687 509.388275,245.904755 514.498596,246.085037 
	C515.472229,246.119385 516.807007,247.023621 517.295288,247.903702 
	C520.399170,253.498169 523.312378,259.198486 526.527039,265.318207 
	C529.647827,259.640503 532.407166,254.203842 535.617432,249.047897 
	C536.514832,247.606583 538.733826,246.144699 540.360474,246.128937 
	C560.668945,245.932068 580.979980,246.000061 601.645081,246.000061 
	C601.645081,250.155991 601.645081,254.226044 601.645081,258.711945 
	C597.170898,258.711945 592.426636,258.711945 587.278320,258.711945 
	C587.278320,273.511292 587.278320,287.917328 587.278320,302.660583 
	C581.817749,302.660583 576.743896,302.660583 571.260010,302.660583 
	C571.260010,288.469208 571.260010,274.063354 571.260010,259.244812 
	C565.464233,259.244812 560.056030,259.244812 554.295044,259.244812 
	C554.295044,255.776154 554.295044,252.689865 554.295044,248.595093 
	C551.854919,251.280869 550.066895,253.248840 548.143555,255.788071 
	C548.008240,256.359314 547.999573,256.833374 547.999573,256.833374 
z"/>
<path fill="currentColor" opacity="1.000000" stroke="none" 
	d="
M448.550415,250.032684 
	C454.345093,253.268433 458.354156,258.412750 459.524841,263.841888 
	C460.979095,270.586273 460.339691,278.039856 459.282898,284.986053 
	C458.443298,290.504944 454.179779,294.504120 449.620026,297.976929 
	C440.338165,305.046204 427.214417,306.888672 418.001617,300.125397 
	C410.947754,294.947021 404.276031,288.351868 404.959290,277.970459 
	C405.220856,273.996063 404.105225,269.720459 405.189789,266.046326 
	C410.639587,247.585068 429.169250,239.202988 447.393005,248.175812 
	C447.842499,248.397125 447.983673,249.244705 448.550415,250.032684 
M426.713776,261.033539 
	C420.398865,268.867157 419.322723,277.016846 424.942200,285.766052 
	C427.779999,290.184357 434.797943,291.723053 438.337097,288.005310 
	C444.279388,281.763062 446.208282,273.941162 441.876770,265.781799 
	C438.031219,258.537750 432.660767,256.956665 426.713776,261.033539 
z"/>
<path fill="currentColor" opacity="1.000000" stroke="none" 
	d="
M702.000000,285.996033 
	C702.000000,273.845215 702.105713,262.191803 701.935364,250.542435 
	C701.884521,247.066849 702.975403,245.709167 706.508606,245.946136 
	C710.133118,246.189224 713.786621,246.000046 717.824585,246.000046 
	C717.824585,252.615906 717.824585,259.020721 717.824585,265.710510 
	C724.616577,265.710510 731.016602,265.710510 738.000122,265.710510 
	C738.000122,260.528625 738.121521,255.265640 737.953674,250.011887 
	C737.856079,246.957016 739.014343,245.820740 742.039185,245.958527 
	C745.835022,246.131439 749.644653,246.000153 753.723022,246.000153 
	C753.723022,264.965271 753.723022,283.687073 753.723022,302.705078 
	C748.725586,302.705078 743.658508,302.705078 738.186523,302.705078 
	C738.186523,295.729065 738.186523,288.657104 738.186523,281.295349 
	C731.396118,281.295349 724.995544,281.295349 718.190430,281.295349 
	C718.190430,288.266907 718.190430,295.338898 718.190430,302.998016 
	C713.548950,302.998016 709.265930,303.236511 705.043335,302.836945 
	C703.933167,302.731903 702.244873,300.715973 702.139709,299.466736 
	C701.778076,295.169312 702.000305,290.822815 702.000000,285.996033 
z"/>
<path fill="currentColor" opacity="1.000000" stroke="none" 
	d="
M811.000000,275.000000 
	C811.000000,284.471619 811.000000,293.443237 811.000000,302.992615 
	C807.040527,302.992615 802.845581,304.028442 799.634827,302.694885 
	C796.559265,301.417511 794.215820,297.894043 792.060486,294.980560 
	C786.808838,287.881989 781.852661,280.564850 776.217712,272.538330 
	C776.217712,283.079712 776.217712,292.743805 776.217712,302.701477 
	C771.398621,302.701477 766.995667,302.701477 762.293762,302.701477 
	C762.293762,284.063599 762.293762,265.335541 762.293762,246.000992 
	C765.771118,246.000992 769.371765,245.898483 772.959595,246.067200 
	C773.958923,246.114197 775.280029,246.703674 775.844482,247.484573 
	C782.638062,256.881958 789.317139,266.362183 796.803711,276.917114 
	C796.803711,265.908966 796.803711,256.241150 796.803711,246.289246 
	C801.619324,246.289246 806.022339,246.289246 811.000000,246.289246 
	C811.000000,255.646454 811.000000,265.073212 811.000000,275.000000 
z"/>
<path fill="currentColor" opacity="1.000000" stroke="none" 
	d="
M395.030640,357.067810 
	C395.003265,366.445618 395.003265,375.415466 395.003265,384.692200 
	C390.418762,384.692200 386.017670,384.692200 381.305847,384.692200 
	C381.305847,366.430328 381.305847,348.043488 381.305847,329.622284 
	C391.492462,327.383362 393.369873,328.226349 399.070251,336.247314 
	C403.484161,342.458069 408.274994,348.402161 412.952209,354.422882 
	C413.496185,355.123169 414.384430,355.556030 415.699158,356.560791 
	C415.699158,347.142120 415.699158,338.438660 415.699158,329.367615 
	C420.455231,329.367615 424.859985,329.367615 429.635071,329.367615 
	C429.635071,347.570038 429.635071,366.075592 429.635071,384.576691 
	C429.332672,384.711700 429.059662,384.874908 428.764099,384.959595 
	C416.377075,388.508942 412.864075,377.890625 407.084076,371.157257 
	C403.412415,366.880035 400.383179,362.054230 396.985931,357.534454 
	C396.613922,357.039520 395.713409,356.941803 395.030640,357.067810 
z"/>
<path fill="currentColor" opacity="1.000000" stroke="none" 
	d="
M545.995361,191.470093 
	C546.843445,190.621201 547.901001,189.474228 547.922668,188.308044 
	C548.070312,180.360046 548.000000,172.407990 548.000000,164.231049 
	C552.403381,164.231049 556.469177,164.231049 560.769043,164.231049 
	C560.769043,182.722946 560.769043,201.107925 560.769043,219.227615 
	C549.351929,223.763153 545.183411,215.068039 539.989807,208.093826 
	C535.991699,202.724976 531.831543,197.476776 527.097046,191.336594 
	C527.097046,201.453201 527.097046,210.376846 527.097046,219.649628 
	C522.506531,219.649628 518.104858,219.649628 513.348511,219.649628 
	C513.348511,201.398743 513.348511,182.895050 513.348511,164.000702 
	C516.850464,164.000702 520.308716,163.895020 523.751892,164.076401 
	C524.593079,164.120712 525.589172,164.946182 526.166443,165.684341 
	C530.167419,170.800522 534.070618,175.993042 538.017212,181.151901 
	C540.576233,184.496979 543.155396,187.826569 545.995361,191.470093 
z"/>
<path fill="currentColor" opacity="1.000000" stroke="none" 
	d="
M487.698425,218.990234 
	C483.541901,219.337723 479.817566,219.859894 476.082245,219.956802 
	C469.938904,220.116150 463.788391,220.000000 457.000000,220.000000 
	C457.000000,210.601624 457.000000,201.351959 457.000000,192.102280 
	C457.000000,182.954956 457.000000,173.807648 457.000000,163.996597 
	C470.779327,164.882080 485.215698,160.516373 497.314392,170.056534 
	C501.032043,172.988022 503.995361,177.829391 505.511871,182.391907 
	C508.293335,190.760300 507.044617,199.131531 503.355255,207.401749 
	C500.243286,214.377655 494.022522,216.221619 487.698425,218.990234 
M471.000000,200.420654 
	C471.000000,202.525726 471.000000,204.630798 471.000000,206.961258 
	C478.019379,207.025406 484.993500,207.779190 488.878174,201.062744 
	C492.420929,194.937439 492.379486,187.948364 488.409912,182.168076 
	C484.359100,176.269516 477.603119,176.743500 471.000000,177.205414 
	C471.000000,184.876114 471.000000,192.156006 471.000000,200.420654 
z"/>
<path fill="currentColor" opacity="1.000000" stroke="none" 
	d="
M638.000000,347.994537 
	C638.000000,341.525818 638.000000,335.555847 638.000000,329.294128 
	C642.941467,329.294128 647.674438,329.294128 653.902649,329.294128 
	C652.934021,343.976196 652.527222,358.732025 650.749146,373.320770 
	C649.911011,380.197540 643.223633,383.204163 637.046204,384.844299 
	C630.247803,386.649292 623.144043,386.970825 616.510986,383.946320 
	C607.825256,379.985840 603.088989,376.401215 603.017334,365.277344 
	C602.940491,353.335419 603.000000,341.392548 603.000000,329.226746 
	C608.079651,329.226746 612.811523,329.226746 618.000000,329.226746 
	C618.000000,339.607910 617.957214,349.873352 618.012817,360.138214 
	C618.061646,369.151215 621.741272,371.287079 627.804443,371.918854 
	C633.036987,372.464020 637.661072,367.084747 637.965759,360.472595 
	C638.149353,356.487427 637.999878,352.486908 638.000000,347.994537 
z"/>
<path fill="currentColor" opacity="1.000000" stroke="none" 
	d="
M396.848145,171.536972 
	C398.889709,175.547119 398.585571,178.404785 394.253998,180.006760 
	C392.910522,180.503632 391.690338,181.339920 390.425385,182.041855 
	C388.157043,183.300629 386.275238,183.951584 384.407196,181.045074 
	C382.594849,178.225235 379.916321,175.905014 376.130341,177.086517 
	C374.610046,177.560989 373.387085,178.988052 372.028809,179.981537 
	C373.046356,181.314545 373.796448,183.334366 375.130737,183.854034 
	C379.441528,185.532944 383.986969,186.598389 388.405487,188.014099 
	C395.494110,190.285309 400.231873,199.046906 398.343689,206.242355 
	C395.602173,216.689651 390.035004,220.957336 379.278137,221.017059 
	C373.715515,221.047943 368.415588,220.849747 363.132782,218.185532 
	C357.671478,215.431320 355.388519,210.772186 352.794830,206.198105 
	C355.867249,204.423218 358.547180,202.758774 361.334106,201.298508 
	C364.015869,199.893341 366.364166,198.656113 368.493225,202.756958 
	C370.726654,207.058746 375.313110,207.704346 379.743469,206.852097 
	C380.984863,206.613297 382.162842,204.887390 382.837677,203.570816 
	C383.038605,203.178909 381.598358,201.413910 380.618774,201.038864 
	C375.847961,199.212296 371.002594,197.568710 366.138519,196.000198 
	C357.478577,193.207657 355.014008,184.072128 356.439972,178.196320 
	C359.442261,165.824905 370.586304,159.965073 383.698090,163.210709 
	C388.964783,164.514420 393.264893,167.060730 396.848145,171.536972 
z"/>
<path fill="currentColor" opacity="1.000000" stroke="none" 
	d="
M864.971436,259.546021 
	C852.798218,266.046509 854.152832,281.469788 861.764221,287.388824 
	C866.414429,291.005157 871.858948,290.790527 875.411560,286.109039 
	C876.484863,284.694672 877.986267,282.054871 878.755920,282.237244 
	C881.614197,282.914490 884.720642,284.003113 886.869019,285.911072 
	C891.239929,289.792847 890.630554,291.023987 886.976501,295.629547 
	C874.149658,311.796204 846.644043,303.982422 841.428772,284.563934 
	C838.518616,273.728302 839.492920,262.634796 847.244751,253.332916 
	C852.940613,246.498138 866.232605,243.169510 875.144592,245.468994 
	C881.227661,247.038574 886.009705,249.710266 888.898682,255.393524 
	C890.503967,258.551544 891.380859,261.405701 886.917053,263.049103 
	C885.581604,263.540741 884.376770,264.462372 883.208618,265.318695 
	C880.084656,267.608978 877.323914,267.934235 875.453979,263.895264 
	C873.354675,259.360809 869.689453,258.478607 864.971436,259.546021 
z"/>
<path fill="currentColor" opacity="1.000000" stroke="none" 
	d="
M694.284119,252.778000 
	C700.710449,258.205322 700.467102,260.349731 693.288147,263.966797 
	C692.286865,264.471252 690.962036,264.629333 690.263428,265.387024 
	C687.466003,268.421112 685.612915,266.771301 684.053406,264.237671 
	C681.698242,260.411530 678.019470,257.552521 674.072571,259.352753 
	C671.055176,260.729034 667.148376,262.612701 665.985657,266.877777 
	C664.090027,273.831543 664.417847,280.396027 668.857239,286.311829 
	C673.468750,292.456818 680.916443,290.292877 683.634888,285.552307 
	C685.895691,281.609833 688.003662,281.337158 691.332642,283.742737 
	C693.021667,284.963257 694.771484,286.159637 696.642761,287.055603 
	C700.451416,288.879181 699.450134,292.069855 697.541809,293.677155 
	C693.025574,297.480957 689.363647,302.699188 682.845398,303.704651 
	C675.545532,304.830719 667.797485,304.710175 662.018677,300.686340 
	C654.518799,295.464142 649.176208,287.807739 648.973328,277.765686 
	C648.817139,270.036835 649.319153,262.579681 653.978577,255.914734 
	C662.251160,244.081390 677.812195,242.168015 688.957703,247.582779 
	C690.969482,248.560120 692.346619,250.843552 694.284119,252.778000 
z"/>
<path fill="currentColor" opacity="1.000000" stroke="none" 
	d="
M369.845947,302.999817 
	C365.732758,303.000000 362.103058,303.000000 358.240662,303.000000 
	C358.240662,292.617218 358.240662,282.553436 358.240662,272.000000 
	C364.910278,272.000000 371.515320,272.020874 378.120117,271.993195 
	C383.133789,271.972198 386.050446,269.721649 385.996948,265.996704 
	C385.945648,262.427246 382.236481,259.074982 378.031189,259.021637 
	C371.557312,258.939514 365.081635,259.000061 358.303955,259.000061 
	C358.303955,254.746185 358.303955,250.676590 358.303955,245.344559 
	C368.843750,246.059448 379.610809,245.826996 389.963470,247.785294 
	C398.836792,249.463760 404.919342,263.459167 401.962982,271.957886 
	C399.671234,278.545990 390.800568,284.723541 383.576630,285.048676 
	C380.188599,285.201233 376.823975,285.873627 372.999664,286.368591 
	C372.999664,290.912323 373.153381,295.542236 372.878296,300.146515 
	C372.818695,301.144745 371.219513,302.050995 369.845947,302.999817 
z"/>
<path fill="currentColor" opacity="1.000000" stroke="none" 
	d="
M616.330200,164.000061 
	C620.947205,164.000000 625.102112,164.000000 629.496094,164.000000 
	C632.757202,170.104950 636.025208,176.222748 639.555298,182.831177 
	C643.392212,176.009995 646.750122,170.040390 650.061096,164.154175 
	C655.513000,164.154175 660.644470,164.154175 666.898926,164.154175 
	C663.896545,170.086945 661.297485,175.519547 658.422668,180.802094 
	C656.416016,184.489365 654.326843,188.201294 651.755798,191.497604 
	C646.108459,198.738098 646.846680,207.078049 646.996582,215.378937 
	C647.020447,216.698074 647.000000,218.018005 647.000000,219.668594 
	C642.136780,219.668594 637.405701,219.668594 632.000000,219.668594 
	C632.000000,215.136322 632.015442,210.389923 631.995422,205.643677 
	C631.977234,201.342560 632.094238,197.513245 628.243225,193.833511 
	C624.822632,190.565033 623.337646,185.273788 620.987549,180.881088 
	C618.647644,176.507401 616.341797,172.114410 613.928284,167.781540 
	C612.609680,165.414276 612.192017,163.710754 616.330200,164.000061 
z"/>
<path fill="currentColor" opacity="1.000000" stroke="none" 
	d="
M408.642273,182.653030 
	C405.183838,176.663925 401.591949,171.010223 397.352417,164.337112 
	C404.491852,164.337112 409.868195,164.337112 415.654449,164.337112 
	C419.110474,170.197754 422.770660,176.404617 426.673737,183.023331 
	C429.878265,176.725967 433.043304,170.506241 436.276245,164.153046 
	C441.388336,164.153046 446.503174,164.153046 452.449554,164.153046 
	C450.763855,167.910721 449.468170,171.430298 447.671570,174.672302 
	C443.931000,181.422104 440.155487,188.175247 435.941254,194.631256 
	C433.461975,198.429428 432.738892,202.276611 432.953888,206.630432 
	C433.165375,210.913345 433.000000,215.214859 433.000000,219.750763 
	C427.969299,219.750763 423.238098,219.750763 418.000000,219.750763 
	C418.000000,215.281708 417.701080,210.820938 418.061554,206.414108 
	C418.838745,196.912674 412.786804,190.343765 408.642273,182.653030 
z"/>
<path fill="currentColor" opacity="1.000000" stroke="none" 
	d="
M657.000000,336.941528 
	C657.000000,334.153992 657.000000,331.848114 657.000000,329.272400 
	C672.648560,329.272400 688.046753,329.272400 703.723267,329.272400 
	C703.723267,333.310944 703.723267,337.380981 703.723267,341.861542 
	C698.687378,341.861542 693.606201,341.861542 688.136597,341.861542 
	C688.136597,356.325348 688.136597,370.394287 688.136597,384.729156 
	C683.009277,384.729156 678.273315,384.729156 673.132812,384.729156 
	C673.132812,370.670929 673.132812,356.601837 673.132812,342.131287 
	C667.677002,342.131287 662.596985,342.131287 657.000000,342.131287 
	C657.000000,340.296112 657.000000,338.859650 657.000000,336.941528 
z"/>
<path fill="currentColor" opacity="1.000000" stroke="none" 
	d="
M551.403076,341.597626 
	C551.063110,337.303467 551.063110,333.349670 551.063110,329.203308 
	C567.125732,329.203308 582.856750,329.203308 598.793945,329.203308 
	C598.793945,333.458313 598.793945,337.526489 598.793945,342.001038 
	C593.207031,342.001038 587.793091,342.001038 581.997314,342.001038 
	C581.997314,356.468842 581.997314,370.538208 581.997314,384.794617 
	C577.195251,384.794617 572.793579,384.794617 567.992065,384.794617 
	C567.992065,370.527283 567.992065,356.457916 567.992065,341.937988 
	C562.314026,341.937988 557.028503,341.937988 551.403076,341.597626 
z"/>
<path fill="currentColor" opacity="1.000000" stroke="none" 
	d="
M606.000000,287.996277 
	C606.000000,280.857452 606.000000,274.218079 606.000000,267.014404 
	C617.636902,267.014404 629.059875,266.961029 640.479797,267.123047 
	C641.326416,267.135040 642.158447,268.687439 642.975159,269.544800 
	C643.060181,269.634003 642.979248,269.869171 643.000000,270.033508 
	C644.324524,280.498047 643.886597,281.000031 633.426331,281.000000 
	C629.787720,281.000000 626.149109,281.000000 621.958740,281.000000 
	C621.958740,283.990997 621.958740,286.719177 621.958740,289.837646 
	C629.401733,289.837646 637.415955,289.837646 645.711853,289.837646 
	C645.711853,294.287506 645.711853,298.357391 645.711853,302.716553 
	C632.708008,302.716553 619.642883,302.716553 606.000000,302.716553 
	C606.000000,298.024536 606.000000,293.260162 606.000000,287.996277 
z"/>
<path fill="currentColor" opacity="1.000000" stroke="none" 
	d="
M495.966766,289.000000 
	C499.106750,289.000000 501.753693,289.000000 504.698364,289.000000 
	C504.698364,293.596100 504.698364,297.999390 504.698364,302.703918 
	C492.397919,302.703918 479.997528,302.703918 467.297546,302.703918 
	C467.297546,284.065247 467.297546,265.335907 467.297546,246.302597 
	C471.927826,246.302597 476.664001,246.302597 481.804993,246.302597 
	C481.804993,260.265289 481.804993,274.334686 481.804993,289.000000 
	C486.616608,289.000000 491.045166,289.000000 495.966766,289.000000 
z"/>
<path fill="currentColor" opacity="1.000000" stroke="none" 
	d="
M585.700867,199.188141 
	C585.640137,201.760437 585.993225,204.169708 586.404663,206.977478 
	C594.059448,206.977478 601.818542,206.977478 609.783691,206.977478 
	C609.783691,211.438980 609.783691,215.508926 609.783691,219.790146 
	C596.547119,219.790146 583.476501,219.790146 570.206970,219.790146 
	C570.206970,208.197495 570.206970,196.794067 570.206970,185.001480 
	C581.531616,185.001480 592.654785,184.937546 603.774475,185.103165 
	C604.853333,185.119247 606.723694,186.456863 606.831665,187.349762 
	C607.209045,190.470078 607.256470,193.706360 606.795532,196.804291 
	C606.662415,197.698959 604.423767,198.845657 603.109131,198.901260 
	C597.452698,199.140518 591.780823,199.016693 585.700867,199.188141 
z"/>
<path fill="currentColor" opacity="1.000000" stroke="none" 
	d="
M720.019653,350.000000 
	C728.486755,350.000000 736.456116,350.000000 744.711731,350.000000 
	C744.711731,354.284973 744.711731,358.354828 744.711731,362.836365 
	C738.043030,362.836365 731.303040,362.836365 724.284119,362.836365 
	C724.284119,365.629242 724.284119,368.033295 724.284119,371.000061 
	C730.632080,371.000061 737.073608,371.164246 743.501099,370.935028 
	C747.043640,370.808746 748.312683,372.081940 748.046631,375.554932 
	C747.820374,378.508209 747.999939,381.492554 747.999939,384.730225 
	C735.017456,384.730225 722.287170,384.730225 709.277466,384.730225 
	C709.277466,373.358917 709.277466,361.962585 709.277466,350.000000 
	C712.649719,350.000000 716.085815,350.000000 720.019653,350.000000 
z"/>
<path fill="currentColor" opacity="1.000000" stroke="none" 
	d="
M834.000000,252.090118 
	C834.000000,269.208710 834.000000,285.839020 834.000000,302.733948 
	C828.998657,302.733948 824.262024,302.733948 819.260376,302.733948 
	C819.260376,283.988617 819.260376,265.256866 819.260376,246.261963 
	C824.009705,246.261963 828.746216,246.261963 834.000000,246.261963 
	C834.000000,248.054733 834.000000,249.828293 834.000000,252.090118 
z"/>
<path fill="currentColor" opacity="1.000000" stroke="none" 
	d="
M532.000000,346.001526 
	C532.000000,340.193512 532.000000,334.885162 532.000000,329.289795 
	C536.951111,329.289795 541.687622,329.289795 546.715210,329.289795 
	C546.715210,347.625641 546.715210,366.022308 546.715210,384.710175 
	C542.046753,384.710175 537.310730,384.710175 532.000000,384.710175 
	C532.000000,372.017700 532.000000,359.259460 532.000000,346.001526 
z"/>
<path fill="currentColor" opacity="1.000000" stroke="none" 
	d="
M358.000000,372.985718 
	C358.000000,358.186035 358.000000,343.883209 358.000000,329.290741 
	C362.951599,329.290741 367.687714,329.290741 372.714478,329.290741 
	C372.714478,347.624725 372.714478,366.021942 372.714478,384.710266 
	C368.048645,384.710266 363.311981,384.710266 358.000000,384.710266 
	C358.000000,381.022064 358.000000,377.252319 358.000000,372.985718 
z"/>
<path fill="currentColor" opacity="1.000000" stroke="none" 
	d="
M643.794983,246.002472 
	C644.851501,246.934967 645.856018,247.836502 645.920654,248.800980 
	C646.131531,251.949783 645.999695,255.121536 645.999695,258.642151 
	C632.861023,258.642151 619.790527,258.642151 606.359314,258.642151 
	C606.359314,254.852142 606.359314,250.780258 606.359314,246.000336 
	C618.490417,246.000336 630.901489,246.000336 643.794983,246.002472 
z"/>
<path fill="currentColor" opacity="1.000000" stroke="none" 
	d="
M602.909607,177.000000 
	C591.789856,177.000000 581.158386,177.000000 570.264526,177.000000 
	C570.264526,172.662857 570.264526,168.593750 570.264526,164.259460 
	C583.010986,164.259460 595.744263,164.259460 608.739624,164.259460 
	C608.739624,168.344864 608.739624,172.414413 608.739624,177.000000 
	C606.945679,177.000000 605.171753,177.000000 602.909607,177.000000 
z"/>
<path fill="currentColor" opacity="1.000000" stroke="none" 
	d="
M709.000000,337.899780 
	C709.000000,334.782440 709.000000,332.144989 709.000000,329.257935 
	C721.681580,329.257935 734.083252,329.257935 746.743286,329.257935 
	C746.743286,333.353149 746.743286,337.423096 746.743286,341.998413 
	C734.938965,341.998413 723.167908,341.920502 711.399109,342.049835 
	C708.211548,342.084869 709.143555,340.020721 709.000000,337.899780 
z"/>
<path fill="currentColor" opacity="1.000000" stroke="none" 
	d="
M112.001564,211.723312 
	C112.668571,218.200348 113.442116,224.191177 113.979385,230.203140 
	C115.509705,247.327164 118.033859,264.442902 124.272453,280.371735 
	C131.567322,298.997559 135.486664,318.284119 138.807922,337.741974 
	C140.539902,347.888855 140.687256,358.358856 140.917007,368.696991 
	C141.247742,383.579865 141.001495,398.475555 141.001495,414.654541 
	C134.495270,413.706696 127.326645,412.809143 120.244270,411.459106 
	C119.275932,411.274567 118.117905,408.843597 118.097542,407.437531 
	C117.926338,395.616089 118.109779,383.789703 117.955368,371.967804 
	C117.873711,365.716583 118.135811,359.300873 116.852989,353.254272 
	C112.382149,332.180908 109.162956,310.828522 102.096573,290.317902 
	C96.113235,272.950958 91.001007,255.288589 89.981270,236.739182 
	C89.114822,220.978302 88.114517,205.224762 87.157570,189.202179 
	C96.134026,189.202179 103.866859,189.202179 112.000214,189.202179 
	C112.000214,196.680298 112.000214,203.963531 112.001564,211.723312 
z"/>
<path fill="currentColor" opacity="1.000000" stroke="none" 
	d="
M153.738678,366.429382 
	C152.832260,359.321808 152.668640,352.526978 151.358917,345.960754 
	C148.538879,331.822632 145.481003,317.709991 141.831467,303.767303 
	C139.574768,295.145752 135.279175,287.034454 133.275497,278.375549 
	C130.218109,265.162994 127.727638,251.748383 126.140854,238.284683 
	C124.240150,222.157410 123.542702,205.888306 122.296471,189.312378 
	C131.234695,189.312378 139.303055,189.312378 148.000000,189.312378 
	C148.000000,191.583206 148.034378,194.011673 147.994446,196.438934 
	C147.723816,212.890411 148.552170,229.268372 152.026749,245.390945 
	C154.769165,258.116119 156.642929,271.219635 161.121521,283.334808 
	C167.876038,301.606598 172.715393,320.350250 174.620987,339.449188 
	C176.848740,361.777069 176.391754,384.377930 176.844528,406.865479 
	C176.872742,408.267700 174.914230,410.617645 173.484451,410.984375 
	C167.285904,412.574188 160.940399,413.591095 153.961914,414.949982 
	C153.961914,398.056396 153.961914,382.451080 153.738678,366.429382 
z"/>
<path fill="currentColor" opacity="1.000000" stroke="none" 
	d="
M108.000000,375.035706 
	C108.000000,385.180328 108.000000,394.830536 108.000000,405.179047 
	C106.209175,404.754852 104.602844,404.713043 103.357979,404.020996 
	C97.900536,400.987152 92.395760,397.988098 87.246170,394.480225 
	C85.622795,393.374359 84.293549,390.782410 84.133675,388.767151 
	C83.481125,380.542297 83.577492,372.258301 82.935249,364.032227 
	C82.211754,354.765503 81.978386,345.296265 79.790504,336.340546 
	C74.385826,314.217346 68.457466,292.193237 61.804726,270.414886 
	C57.981266,257.898468 55.822590,245.295670 54.981804,232.351227 
	C54.054714,218.078049 53.132473,203.804550 52.188808,189.233063 
	C61.072010,189.233063 68.807655,189.233063 76.669876,189.233063 
	C77.117508,196.536865 77.886925,203.734299 77.936073,210.936661 
	C78.063652,229.631561 80.812523,247.970398 85.590515,265.953278 
	C89.779320,281.718658 95.345787,297.127686 99.269226,312.950653 
	C102.067513,324.235931 103.318024,335.922791 104.947021,347.474457 
	C106.214363,356.461548 107.000183,365.516510 108.000000,375.035706 
z"/>
<path fill="currentColor" opacity="1.000000" stroke="none" 
	d="
M196.296783,400.274353 
	C193.661850,401.818817 191.330643,403.129608 188.333298,404.814941 
	C188.178177,402.673950 188.012650,401.444366 188.011520,400.214661 
	C187.994781,382.218964 188.132721,364.221527 187.902939,346.228790 
	C187.848236,341.945679 189.209244,340.694122 193.331345,340.922058 
	C198.973206,341.234009 204.645233,341.000000 211.000000,341.000000 
	C211.000000,345.175934 211.000000,349.259583 211.000000,353.343231 
	C211.000000,362.840973 210.490616,372.374237 211.150162,381.825958 
	C211.751785,390.447693 206.348602,394.215424 200.377747,397.991669 
	C199.169861,398.755615 197.862167,399.361786 196.296783,400.274353 
z"/>
<path fill="currentColor" opacity="1.000000" stroke="none" 
	d="
M64.247726,366.653442 
	C58.925789,357.488708 54.943111,348.217987 53.487274,338.016418 
	C52.934502,334.143005 52.108482,330.257690 52.068005,326.370941 
	C51.905048,310.724548 52.000526,295.075409 53.059631,278.564148 
	C54.038757,279.577454 55.582180,280.435333 55.910709,281.627869 
	C59.665615,295.257751 63.408642,308.896332 66.765846,322.627655 
	C68.033058,327.810669 67.582199,333.461945 69.159042,338.511139 
	C72.630455,349.626831 72.171158,361.052612 72.973495,372.389526 
	C73.061707,373.636078 72.784004,374.908569 72.676010,376.169006 
	C72.155243,376.419708 71.634483,376.670410 71.113724,376.921112 
	C68.896484,373.604492 66.679245,370.287872 64.247726,366.653442 
z"/>
<path fill="currentColor" opacity="1.000000" stroke="none" 
	d="
M221.000000,360.989624 
	C221.000259,355.180573 220.783417,349.854401 221.159088,344.570404 
	C221.248810,343.308441 223.196365,341.347168 224.494904,341.163940 
	C227.912033,340.681885 231.491013,340.673065 234.900772,341.180176 
	C236.084412,341.356232 238.109589,344.071930 237.799652,344.828247 
	C234.597183,352.642609 231.000336,360.295624 227.498917,367.987030 
	C226.902176,369.297913 226.442703,370.747955 225.548538,371.825653 
	C224.610519,372.956207 223.225754,373.716095 221.000000,375.441071 
	C221.000000,369.725342 221.000000,365.606659 221.000000,360.989624 
z"/>
<path fill="currentColor" opacity="1.000000" stroke="none" 
	d="
M227.325104,224.275208 
	C227.811737,224.048019 228.097275,223.995895 228.126434,224.060150 
	C230.001236,228.190598 232.482422,230.895218 237.950729,226.767654 
	C238.080093,227.332474 238.209442,227.897293 238.338806,228.462097 
	C237.476532,230.674576 236.614273,232.887039 235.574646,235.554611 
	C236.644928,236.252945 238.414993,237.407852 240.185059,238.562775 
	C240.186615,239.023895 240.188156,239.485016 240.189713,239.946136 
	C238.031021,240.442551 235.872330,240.938980 233.062408,241.585144 
	C233.350266,243.737991 233.691223,246.288025 234.032181,248.838058 
	C233.855606,249.347549 233.679047,249.857040 233.502472,250.366531 
	C229.584198,244.192108 225.665878,246.070496 221.395630,250.249725 
	C221.395630,246.456696 221.395630,244.007507 221.395630,241.459457 
	C219.531998,240.978409 217.260422,240.392044 214.057419,239.565247 
	C216.510300,237.783371 218.228958,236.534882 219.867691,235.344437 
	C219.199051,233.744614 218.317902,232.197327 217.967743,230.537979 
	C217.815598,229.817047 218.755386,228.865662 219.199219,228.018936 
	C223.514114,230.652359 225.194397,227.434479 227.325104,224.275208 
z"/>
<path fill="currentColor" opacity="1.000000" stroke="none" 
	d="
M204.026611,298.883484 
	C206.121307,298.980316 208.190704,298.684448 211.088608,298.270142 
	C209.426575,302.574127 208.540573,307.100128 214.766022,310.638611 
	C211.104370,310.892670 209.333878,311.015503 207.210114,311.162872 
	C207.081497,313.683014 206.950775,316.244354 206.757751,320.026642 
	C204.200027,318.161102 202.340942,316.805115 200.349472,315.352600 
	C199.060455,316.483856 197.533493,317.823944 195.223038,319.851654 
	C195.223038,316.423340 195.223038,313.924591 195.223038,311.084839 
	C192.597809,311.084839 190.493835,311.084839 188.389847,311.084839 
	C188.109177,310.654907 187.828522,310.225006 187.547867,309.795074 
	C189.343536,308.306000 191.139206,306.816895 192.778641,305.457367 
	C192.068512,303.020264 191.385269,300.675507 190.498993,297.633881 
	C193.169098,298.534851 194.805130,299.086914 196.816422,299.765564 
	C197.839981,298.056183 198.974197,296.162018 200.622345,293.409576 
	C201.968201,295.433472 202.984756,296.962128 204.026611,298.883484 
z"/>
<path fill="currentColor" opacity="1.000000" stroke="none" 
	d="
M182.884933,249.668488 
	C180.956314,251.017044 178.929749,251.968094 176.167862,253.264236 
	C176.097046,254.358093 175.954163,256.565155 175.741028,259.857544 
	C173.625626,257.970306 172.123535,256.630249 170.651657,255.317139 
	C168.761826,256.719818 166.836273,258.149017 164.217438,260.092773 
	C164.060852,256.679138 163.964111,254.570328 163.851379,252.112793 
	C161.977676,252.112793 160.217728,252.112793 156.726059,252.112793 
	C158.831085,249.123672 160.195221,247.186600 161.749176,244.979996 
	C161.208466,243.456299 160.501816,241.464981 159.290787,238.052322 
	C165.776947,242.468018 168.132431,238.016724 170.861053,233.984192 
	C172.155685,236.900177 173.026962,238.862610 173.665298,240.300400 
	C176.276428,240.117767 178.300049,239.976227 180.323685,239.834686 
	C179.701035,241.774490 179.078400,243.714294 178.431168,245.730667 
	C179.799545,246.842850 181.293259,248.056931 182.884933,249.668488 
z"/>
<path fill="currentColor" opacity="1.000000" stroke="none" 
	d="
M202.047134,195.009979 
	C203.221695,200.244705 206.320969,200.919678 211.336609,198.495712 
	C209.834778,202.534576 207.201569,206.199814 212.544739,208.198883 
	C212.582367,208.212982 212.226944,210.497650 211.541824,210.957550 
	C210.296875,211.793289 208.665466,212.053284 207.118835,212.579590 
	C207.018768,214.639374 206.917496,216.723923 206.776169,219.632843 
	C204.274673,217.954132 202.323959,216.645050 200.446472,215.385117 
	C198.949020,216.444794 197.265152,217.636383 195.167725,219.120651 
	C195.167725,216.637634 195.167725,214.731323 195.167725,212.848724 
	C192.688446,211.909149 190.375046,211.032425 187.354248,209.887619 
	C189.603180,208.118973 191.214264,206.851929 192.961884,205.477524 
	C192.235062,203.518250 191.500046,201.536850 190.420181,198.625870 
	C195.900894,200.555191 200.141434,201.173294 198.868240,193.505173 
	C200.263214,194.237885 200.951614,194.599472 202.047134,195.009979 
z"/>
<path fill="currentColor" opacity="1.000000" stroke="none" 
	d="
M206.628540,259.120667 
	C206.720078,258.243988 207.002106,257.206116 207.506882,257.083221 
	C209.169617,256.678467 211.694550,258.828918 212.249039,255.333313 
	C213.440109,255.866638 214.631180,256.399963 216.528183,257.249390 
	C216.953415,257.217377 218.351807,257.112213 219.160904,257.051331 
	C220.020615,259.720154 220.733871,261.934326 221.539871,264.436371 
	C220.352188,265.659515 218.734360,267.325623 216.627457,269.495392 
	C215.003693,269.495392 212.403900,269.495392 210.528793,269.495392 
	C208.798935,268.168243 207.044479,267.283997 206.027267,265.869537 
	C205.412048,265.014069 205.824615,263.321259 205.993729,262.033325 
	C206.113205,261.123505 206.598892,260.261780 206.628540,259.120667 
z"/>
</svg>