<svg version="1.1" id="Layer_1" xmlns="http://www.w3.org/2000/svg" xmlns:xlink="http://www.w3.org/1999/xlink" x="0px" y="0px"
	 width="100%" viewBox="0 0 2679 3443" enable-background="new 0 0 2679 3443" xml:space="preserve">
<path fill="currentColor" opacity="1.000000" stroke="none" 
	d="
M1411.062744,2.000002 
	C1415.658081,3.301491 1419.250977,5.500108 1422.984009,5.771655 
	C1493.717163,10.916885 1563.081177,23.836763 1631.324219,42.777164 
	C1692.145142,59.657627 1750.850830,82.259346 1808.123413,108.832146 
	C1845.690918,126.262428 1881.787964,146.340439 1917.204834,167.584152 
	C1975.605957,202.614075 2030.875732,242.179413 2082.188965,287.034027 
	C2105.248047,307.190796 2127.783447,327.975464 2149.977051,349.084656 
	C2168.780029,366.969025 2187.172852,385.331390 2204.956055,404.226624 
	C2220.011719,420.223694 2234.436768,436.880737 2248.249512,453.966370 
	C2273.381348,485.052979 2298.552734,516.151794 2322.435303,548.194031 
	C2358.909180,597.129517 2391.615723,648.587585 2421.907959,701.604004 
	C2449.046143,749.100220 2473.665771,797.895813 2497.365234,847.136047 
	C2519.196777,892.495544 2537.788818,939.274536 2555.265137,986.499207 
	C2583.177734,1061.925415 2606.458984,1138.747437 2625.174072,1216.938232 
	C2641.325195,1284.416382 2653.292236,1352.688110 2662.083496,1421.499878 
	C2666.220703,1453.882324 2669.970703,1486.322876 2673.277832,1518.799927 
	C2675.435547,1539.992920 2676.373535,1561.308105 2678.119385,1582.546997 
	C2678.462158,1586.715698 2680.004150,1590.785522 2681.496582,1595.450439 
	C2682.000000,1684.708496 2682.000000,1773.416870 2682.000000,1863.062744 
	C2680.695557,1867.651733 2678.445312,1871.248535 2678.229736,1874.963501 
	C2675.313721,1925.212036 2670.109863,1975.229492 2663.448242,2025.101440 
	C2652.315186,2108.447754 2636.277100,2190.836182 2614.930908,2272.181885 
	C2597.064941,2340.265381 2575.187744,2407.040039 2550.492188,2472.947754 
	C2522.496826,2547.662354 2489.629395,2620.163086 2452.458008,2690.700195 
	C2427.744141,2737.597412 2400.502930,2783.068359 2371.557861,2827.482666 
	C2356.642090,2850.369629 2340.902344,2872.718506 2325.900635,2895.550537 
	C2319.015381,2906.029541 2310.208252,2910.166504 2297.467285,2910.143311 
	C2123.812988,2909.827148 1950.157715,2909.933838 1776.502686,2909.912109 
	C1772.508179,2909.911621 1768.478882,2909.914307 1764.525757,2909.428711 
	C1754.007446,2908.135254 1748.409302,2902.781250 1746.692017,2892.243408 
	C1746.053345,2888.324707 1746.042603,2884.274658 1746.041748,2880.284668 
	C1746.011353,2749.293457 1746.015381,2618.302246 1746.028931,2487.311035 
	C1746.029297,2484.313477 1746.019043,2481.297363 1746.322266,2478.321533 
	C1747.753784,2464.273682 1755.707520,2456.492432 1769.770264,2456.132568 
	C1783.426025,2455.782959 1797.108521,2455.741455 1810.760254,2456.169434 
	C1825.462158,2456.630615 1833.214478,2464.747070 1833.890137,2479.507080 
	C1834.088135,2483.832275 1834.005859,2488.171387 1834.006104,2492.504150 
	C1834.011597,2604.163330 1834.004761,2715.822510 1834.030151,2827.481689 
	C1834.031250,2832.809814 1833.901001,2838.185791 1834.527832,2843.457031 
	C1836.531860,2860.304688 1848.331177,2871.088135 1865.193481,2871.896729 
	C1866.192017,2871.944580 1867.192383,2871.958252 1868.192139,2871.967773 
	C1937.155640,2872.630859 2006.118530,2873.379395 2075.083008,2873.913086 
	C2105.745850,2874.150391 2136.414795,2874.211914 2167.075928,2873.886230 
	C2203.044678,2873.503906 2239.005615,2872.437012 2274.974365,2872.061768 
	C2284.504883,2871.962158 2290.251709,2867.239990 2295.368896,2859.995605 
	C2323.079346,2820.767334 2348.842285,2780.291016 2373.193359,2738.916748 
	C2397.031494,2698.414307 2419.901611,2657.377930 2440.454102,2615.079102 
	C2468.447754,2557.465088 2492.953857,2498.389404 2514.860107,2438.222656 
	C2541.117188,2366.107666 2562.599609,2292.556152 2580.461670,2217.944824 
	C2598.871094,2141.048340 2612.815674,2063.330566 2622.046387,1984.799316 
	C2625.662598,1954.035522 2629.182373,1923.231079 2631.493652,1892.351440 
	C2633.828125,1861.155029 2635.048096,1829.855103 2635.963135,1798.577393 
	C2637.072998,1760.626831 2637.953857,1722.649170 2637.781738,1684.688477 
	C2637.664307,1658.748169 2635.740967,1632.807739 2634.318604,1606.884277 
	C2633.169922,1585.941895 2632.100586,1564.971680 2630.045898,1544.107422 
	C2626.161377,1504.660767 2622.381348,1465.176514 2617.146240,1425.895996 
	C2606.302979,1344.537598 2589.980957,1264.208374 2569.220947,1184.794678 
	C2546.005371,1095.987671 2517.665039,1008.859680 2481.280518,924.549500 
	C2462.937500,882.044556 2443.651855,839.873718 2422.910400,798.495178 
	C2398.120117,749.038757 2370.157959,701.284485 2340.021240,654.812988 
	C2306.252441,602.740784 2270.176025,552.363220 2230.393799,504.749359 
	C2207.981934,477.925385 2184.525391,451.953308 2161.002686,426.085632 
	C2144.873779,408.349243 2128.312012,390.945770 2111.087891,374.278107 
	C2061.201904,326.004028 2008.027222,281.692261 1950.740723,242.333267 
	C1908.920410,213.600311 1865.613281,187.374420 1820.420410,164.410263 
	C1771.649048,139.627869 1721.355591,118.356827 1669.293457,101.263031 
	C1612.459473,82.602417 1554.597290,68.392311 1495.443970,59.668659 
	C1461.830566,54.711475 1428.114746,50.391472 1394.039917,49.806286 
	C1373.734131,49.457569 1353.432373,47.983932 1333.136597,48.126762 
	C1278.058716,48.514362 1223.401489,53.952393 1169.103027,63.156570 
	C1109.449341,73.268501 1051.182983,88.882706 994.410522,109.517662 
	C962.204407,121.223572 930.778503,135.214676 899.473999,149.232269 
	C844.571167,173.816757 793.139038,204.656403 743.410767,238.373383 
	C700.601440,267.399170 659.799316,299.041534 621.312744,333.598175 
	C597.527344,354.954865 573.411743,376.026611 550.786865,398.573425 
	C517.986633,431.260529 487.558167,466.194977 458.011414,501.875977 
	C419.057159,548.917603 382.965820,598.093994 350.442200,649.736328 
	C327.192993,686.652466 305.065918,724.336853 283.897156,762.488037 
	C246.334351,830.184937 214.395401,900.588196 186.486496,972.801086 
	C160.031509,1041.252075 137.062378,1110.830444 118.418442,1181.845215 
	C102.578529,1242.179443 89.205116,1303.049194 79.475334,1364.630493 
	C72.145508,1411.022095 66.103455,1457.642090 60.655987,1504.296753 
	C57.260342,1533.378540 56.239689,1562.731079 53.799812,1591.932617 
	C47.907490,1662.453979 49.963940,1733.117920 50.331554,1803.723022 
	C50.483807,1832.965698 53.241310,1862.240845 55.809521,1891.413696 
	C59.255718,1930.559937 63.238190,1969.671021 67.768387,2008.706909 
	C73.959496,2062.054688 84.165428,2114.751953 95.413078,2167.230957 
	C113.524872,2251.736328 136.802567,2334.823730 165.219727,2416.441406 
	C184.076187,2470.599365 205.263092,2523.829834 228.892960,2576.117432 
	C257.067261,2638.461670 288.393677,2699.124023 324.673309,2757.110840 
	C346.405945,2791.846680 369.611938,2825.658691 391.941254,2860.025146 
	C397.563904,2868.679199 404.749573,2871.913330 415.204834,2872.208740 
	C545.490051,2875.888184 675.797302,2873.091797 806.089539,2873.857910 
	C814.366943,2873.906494 822.802490,2873.364014 830.902222,2871.766846 
	C846.946960,2868.603271 855.359924,2857.914551 855.922791,2841.468018 
	C856.070862,2837.139648 856.006531,2832.802979 856.006714,2828.470215 
	C856.010559,2717.144287 856.004028,2605.818604 856.029114,2494.492676 
	C856.030273,2489.164551 855.903687,2483.789062 856.530518,2478.517822 
	C858.098022,2465.336670 867.226746,2456.674072 880.560608,2456.239990 
	C893.876831,2455.806396 907.233826,2455.783203 920.545715,2456.292969 
	C934.467041,2456.826172 941.801208,2463.420898 944.591125,2477.213135 
	C945.573730,2482.071045 945.917847,2487.133545 945.920532,2492.103027 
	C945.989380,2620.760986 945.997559,2749.418945 945.896851,2878.076904 
	C945.892456,2883.691895 945.294983,2889.430176 944.029907,2894.892578 
	C941.803772,2904.504883 936.373779,2908.800293 926.431152,2909.732422 
	C923.121704,2910.042236 919.771973,2909.988525 916.440613,2909.988770 
	C742.118958,2909.999512 567.797302,2909.998535 393.475677,2909.997314 
	C391.809174,2909.997314 390.136261,2909.880615 388.477234,2909.987305 
	C380.532257,2910.498291 374.479523,2907.672363 369.628296,2901.072754 
	C355.223328,2881.475586 339.965210,2862.491455 325.929840,2842.638916 
	C276.919403,2773.315674 235.827362,2699.353027 199.597214,2622.708496 
	C173.240112,2566.950439 149.837982,2509.910400 128.887817,2451.868896 
	C102.833061,2379.685303 80.816368,2306.312988 62.950592,2231.687744 
	C43.917992,2152.188721 29.469728,2071.849365 20.028027,1990.666382 
	C15.758772,1953.957764 12.738717,1917.089355 9.861514,1880.238159 
	C7.918977,1855.358398 7.322345,1830.375488 5.854535,1805.454468 
	C5.609673,1801.297119 3.988238,1797.220703 2.501447,1792.553467 
	C2.000000,1747.291504 2.000000,1702.583130 2.000000,1656.937256 
	C6.130201,1652.143433 5.751005,1647.036133 5.983662,1642.038940 
	C7.377000,1612.112793 8.081239,1582.130737 10.418692,1552.277222 
	C15.673632,1485.162109 23.919287,1418.399170 35.262936,1352.003662 
	C51.903255,1254.606323 75.122452,1158.869995 105.304253,1064.776855 
	C128.129913,993.616760 155.025696,924.083252 185.779587,855.977844 
	C221.778198,776.257690 263.601166,699.778503 311.026581,626.298340 
	C350.475281,565.177246 393.822510,506.946747 440.430115,451.155365 
	C454.932190,433.795746 470.752625,417.530243 486.121796,400.904602 
	C497.649384,388.434631 508.906799,375.649567 521.195496,363.962646 
	C543.628601,342.628052 566.754456,322.022675 589.558960,301.077789 
	C625.199890,268.343292 663.121948,238.428040 702.672852,210.621536 
	C744.133423,181.472473 787.302551,155.078323 831.860168,130.833801 
	C866.192200,112.153137 901.821350,96.415482 937.819397,81.520157 
	C988.388367,60.595711 1040.487671,44.237583 1093.812988,31.717325 
	C1136.697876,21.648357 1179.960327,13.965347 1223.719849,9.054672 
	C1234.969360,7.792277 1246.286377,7.132502 1257.534912,5.863797 
	C1261.382080,5.429880 1265.114624,3.980230 1269.449707,2.497324 
	C1316.708496,2.000000 1363.416870,2.000000 1411.062744,2.000002 
z"/>
<path fill="currentColor" opacity="1.000000" stroke="none" 
	d="
M894.288940,1653.990234 
	C866.310669,1645.380859 846.409546,1628.185181 832.822693,1603.402344 
	C822.580200,1584.719727 816.981873,1564.581909 814.385681,1543.555786 
	C807.302307,1486.187622 815.140259,1430.646851 834.559265,1376.426147 
	C850.969666,1330.606079 874.591003,1288.536865 900.835449,1247.848633 
	C925.222900,1210.039429 950.621338,1172.875610 974.639343,1134.836914 
	C996.101379,1100.846436 1008.856567,1063.446411 1013.971741,1023.498779 
	C1014.638916,1018.287781 1015.801086,1013.140137 1017.096436,1005.951782 
	C1020.199768,1008.794128 1022.489014,1010.095886 1023.605164,1012.063110 
	C1026.888916,1017.851074 1030.164185,1023.720215 1032.631470,1029.882446 
	C1045.700928,1062.525269 1054.890015,1095.839478 1056.485229,1131.484741 
	C1058.658081,1180.040527 1047.201294,1224.596680 1023.142822,1266.282593 
	C1008.316223,1291.972778 992.396667,1317.051025 978.134583,1343.044189 
	C946.687012,1400.358276 922.791626,1460.590454 911.167358,1525.237183 
	C907.249329,1547.026611 906.193970,1568.964600 910.226501,1590.864990 
	C912.869019,1605.216064 918.151428,1618.341431 929.453491,1628.409424 
	C944.234131,1641.576294 966.601318,1636.959717 974.257935,1618.634644 
	C976.390381,1613.530884 977.275269,1607.744507 977.851318,1602.180054 
	C980.148560,1579.988159 981.393250,1557.666870 984.317871,1535.564209 
	C991.181152,1483.695679 1008.795166,1435.415039 1034.578979,1389.979614 
	C1070.173218,1327.256470 1111.629028,1268.404785 1153.227661,1209.638550 
	C1193.473145,1152.783813 1234.202393,1096.224365 1270.092407,1036.465210 
	C1298.640625,988.930847 1323.849365,939.704224 1338.336914,885.739441 
	C1352.866455,831.618347 1355.978271,777.316833 1339.617065,722.986877 
	C1336.361694,712.176941 1331.679199,701.795593 1327.623291,691.228760 
	C1326.355225,687.924866 1324.983154,684.660889 1323.594971,681.220886 
	C1328.380737,678.390137 1331.678589,680.635498 1334.786865,682.105835 
	C1352.789673,690.621399 1368.492310,702.390198 1381.717285,717.203308 
	C1417.858398,757.684814 1432.381226,806.041626 1434.160400,859.448975 
	C1436.069458,916.748718 1424.973511,971.446472 1404.167114,1024.493042 
	C1394.144531,1050.046021 1381.293091,1074.167358 1365.968262,1096.872070 
	C1311.153564,1178.083496 1255.868286,1258.977783 1201.218262,1340.299316 
	C1178.362305,1374.310059 1155.955322,1408.664917 1134.593140,1443.626587 
	C1106.266602,1489.986084 1090.105957,1540.994385 1080.207764,1594.193970 
	C1073.699951,1629.171753 1071.997559,1664.525879 1074.449585,1699.766357 
	C1079.195557,1767.970947 1101.090088,1830.317383 1145.332520,1883.260986 
	C1170.958862,1913.927856 1201.236938,1939.592285 1238.191040,1956.128906 
	C1257.020386,1964.555054 1276.112061,1972.443359 1295.353882,1979.879761 
	C1305.867065,1983.942749 1317.116089,1985.382080 1328.635986,1984.991699 
	C1325.065552,1981.263550 1320.225464,1980.423340 1315.775513,1978.918579 
	C1286.760254,1969.106689 1260.179199,1954.980957 1236.375732,1935.540161 
	C1211.218750,1914.993652 1191.423096,1890.169312 1175.970093,1861.766846 
	C1155.270874,1823.722168 1144.017456,1782.855225 1139.911743,1739.883911 
	C1132.508667,1662.400146 1145.823120,1588.618652 1178.745239,1518.128662 
	C1194.021606,1485.419922 1211.889526,1454.232544 1231.909302,1424.298584 
	C1255.066895,1389.672729 1278.975586,1355.549927 1302.466797,1321.146362 
	C1321.170044,1293.755249 1336.778931,1264.828979 1346.166016,1232.793579 
	C1347.493530,1228.263550 1347.923950,1222.831299 1354.220581,1219.660522 
	C1356.610474,1222.750000 1358.987427,1225.768311 1361.307007,1228.830078 
	C1377.076416,1249.645996 1397.381714,1263.270020 1423.490234,1267.068115 
	C1443.352661,1269.957642 1462.117798,1266.409790 1478.716553,1254.674316 
	C1496.377441,1242.187622 1503.622192,1224.900391 1500.889893,1203.456543 
	C1498.355225,1183.564209 1489.674927,1165.863892 1480.743530,1148.340576 
	C1469.395752,1126.076416 1457.138550,1104.266846 1446.134888,1081.838623 
	C1436.956665,1063.131348 1431.343506,1043.300659 1432.064819,1022.082092 
	C1433.330566,984.849487 1461.052734,946.725586 1495.730469,935.209839 
	C1501.029663,933.450012 1506.750488,932.779541 1512.336792,932.108093 
	C1520.386719,931.140442 1527.247925,933.974915 1533.518555,939.096008 
	C1579.778931,976.876038 1615.308960,1022.836609 1639.411377,1077.537720 
	C1661.174805,1126.930176 1670.677124,1178.728516 1667.719971,1232.494507 
	C1665.260986,1277.201050 1653.915283,1319.861450 1634.840942,1360.519409 
	C1619.306763,1393.631226 1598.184692,1423.214844 1577.542725,1453.073242 
	C1532.625854,1518.045776 1486.421875,1582.186035 1447.930542,1651.318359 
	C1424.060059,1694.190674 1402.821411,1738.309326 1390.222046,1786.089722 
	C1384.586426,1807.461060 1380.859375,1829.225952 1380.415283,1851.196899 
	C1379.984863,1872.487183 1381.460449,1894.020630 1390.574829,1913.851685 
	C1393.997192,1921.298096 1398.494385,1928.664917 1404.040527,1934.639404 
	C1418.042969,1949.723022 1435.626221,1955.068970 1455.897827,1950.400391 
	C1475.099365,1945.978394 1491.780396,1936.207153 1507.690674,1925.119629 
	C1532.669922,1907.712402 1554.866577,1887.295654 1575.036377,1864.363525 
	C1598.812256,1837.331421 1622.768677,1810.508911 1643.948730,1781.343872 
	C1669.412964,1746.279053 1694.634521,1711.042480 1715.849731,1673.167847 
	C1746.580078,1618.306396 1769.042725,1560.517090 1776.980103,1497.706421 
	C1777.981079,1489.785156 1778.456177,1481.796509 1779.096191,1473.832642 
	C1779.139771,1473.289917 1778.519287,1472.693848 1777.710449,1471.211182 
	C1776.308105,1473.348999 1774.807861,1474.954590 1774.072876,1476.855957 
	C1757.667480,1519.292725 1732.801147,1556.659912 1704.938843,1592.208740 
	C1675.747070,1629.453613 1646.258423,1666.466553 1617.188599,1703.805908 
	C1600.568115,1725.154175 1586.015381,1747.850586 1574.633179,1772.512207 
	C1567.512207,1787.940674 1559.965698,1803.174316 1552.472046,1818.427612 
	C1550.916870,1821.593384 1548.751343,1824.459351 1546.787598,1827.590332 
	C1539.556519,1825.387329 1537.825195,1819.613892 1535.692871,1814.655273 
	C1529.292725,1799.773071 1526.743164,1783.957886 1526.095459,1767.897949 
	C1524.329346,1724.103882 1534.355469,1682.547607 1550.860474,1642.354248 
	C1566.505127,1604.256104 1587.559570,1569.067871 1610.205688,1534.848877 
	C1630.620361,1504.001587 1652.010010,1473.800781 1672.543457,1443.030640 
	C1711.784546,1384.226318 1735.128540,1319.622559 1741.454224,1249.136841 
	C1742.671753,1235.570801 1741.787842,1221.822754 1742.089111,1208.163574 
	C1742.171997,1204.406860 1743.035156,1200.667480 1743.842041,1194.680908 
	C1748.346680,1198.323608 1751.263550,1200.306641 1753.735107,1202.741577 
	C1770.483154,1219.241211 1783.843262,1238.330322 1795.682007,1258.514771 
	C1822.982544,1305.061035 1844.471191,1354.058105 1857.125854,1406.665161 
	C1862.980225,1431.001831 1866.249512,1455.723511 1868.335693,1480.704956 
	C1873.725464,1545.244751 1864.300537,1607.665771 1842.734741,1668.408691 
	C1823.238403,1723.322510 1793.815430,1772.644043 1757.040405,1817.686401 
	C1728.893799,1852.160400 1698.003296,1883.857910 1661.339722,1909.363647 
	C1617.677490,1939.738281 1570.700806,1962.859253 1517.773193,1972.179321 
	C1489.970093,1977.075073 1462.003662,1978.499634 1434.305908,1972.341064 
	C1378.744141,1959.986816 1340.809448,1926.257202 1318.627930,1874.350220 
	C1308.582886,1850.843994 1303.844727,1826.136353 1301.721313,1800.651978 
	C1297.621948,1751.450928 1307.446411,1704.539673 1323.396973,1658.530640 
	C1341.628540,1605.941650 1368.319458,1557.558228 1397.643555,1510.505493 
	C1431.520386,1456.147827 1469.754028,1404.802734 1506.531128,1352.444336 
	C1528.364868,1321.360352 1550.747925,1290.536499 1570.497314,1258.140747 
	C1610.425903,1192.643677 1617.389893,1123.212402 1589.922119,1051.046875 
	C1576.716919,1016.352600 1557.958496,985.144470 1530.611572,959.571289 
	C1527.694946,956.843689 1524.741821,954.117859 1521.556396,951.722534 
	C1513.787354,945.880615 1509.483032,945.593750 1501.879150,951.891174 
	C1485.854248,965.163025 1478.045288,982.059448 1481.723389,1003.118958 
	C1485.177124,1022.895203 1495.111694,1039.948608 1505.287476,1056.813599 
	C1515.616211,1073.931885 1526.437378,1090.758301 1536.524658,1108.015503 
	C1547.531616,1126.845947 1555.803589,1146.802124 1558.735718,1168.654663 
	C1562.897217,1199.667358 1554.590820,1227.061401 1533.122070,1249.626221 
	C1501.081909,1283.301880 1461.380371,1294.324341 1416.316528,1285.077148 
	C1405.800781,1282.919189 1396.067993,1276.910767 1386.004395,1272.605103 
	C1382.463745,1271.090210 1379.011475,1269.369141 1373.575073,1266.836548 
	C1373.554932,1272.090698 1373.179932,1275.511230 1373.595337,1278.832886 
	C1374.959717,1289.743530 1376.696899,1300.607056 1378.137085,1311.508911 
	C1384.138794,1356.935913 1375.111938,1400.059082 1355.211792,1440.551758 
	C1343.500854,1464.380859 1328.698120,1486.771973 1314.311157,1509.184204 
	C1295.904419,1537.858521 1278.727051,1567.133789 1265.626953,1598.629761 
	C1247.853394,1641.361816 1236.269897,1685.691895 1231.695435,1731.832275 
	C1228.419434,1764.877197 1229.127686,1797.730103 1235.544312,1830.346436 
	C1242.673218,1866.583496 1256.539185,1899.895630 1280.447632,1928.378906 
	C1304.624390,1957.181885 1334.564697,1977.579102 1371.072632,1987.648315 
	C1380.061401,1990.127441 1389.245117,1991.894165 1398.317627,1994.078247 
	C1401.478638,1994.839478 1404.574097,1995.872314 1407.760254,1998.511475 
	C1405.415283,1998.969238 1403.075806,1999.796509 1400.724854,1999.830444 
	C1344.403687,2000.644165 1288.873413,1995.832642 1235.301147,1976.763550 
	C1200.487915,1964.371826 1168.236694,1947.076538 1138.620239,1925.175781 
	C1122.052490,1912.924194 1106.077637,1899.691162 1090.987305,1885.661621 
	C1065.885986,1862.324829 1046.445312,1834.343018 1029.620605,1804.664551 
	C1005.886475,1762.798462 989.958801,1718.098145 983.086304,1670.327759 
	C982.327454,1665.052979 981.958008,1659.695190 980.798340,1654.512329 
	C979.438477,1648.434692 977.480652,1647.513428 971.488464,1649.083618 
	C969.880615,1649.505005 968.304260,1650.079956 966.757141,1650.694458 
	C943.259216,1660.025879 919.317261,1660.152466 894.288940,1653.990234 
z"/>
<path fill="currentColor" opacity="1.000000" stroke="none" 
	d="
M1352.000000,2742.000000 
	C1319.691895,2741.999756 1288.383789,2742.007324 1257.075684,2741.988037 
	C1253.747681,2741.986084 1250.390015,2742.077393 1247.097900,2741.688477 
	C1240.962158,2740.962646 1239.030029,2739.010742 1238.315308,2732.832275 
	C1237.934204,2729.538574 1238.022339,2726.181885 1238.021973,2722.853760 
	C1238.009399,2602.950439 1238.004028,2483.047119 1238.019165,2363.143799 
	C1238.021484,2344.633301 1238.633179,2344.020752 1257.085327,2344.013428 
	C1316.370850,2343.989990 1375.656494,2343.989502 1434.942017,2344.012695 
	C1453.382568,2344.020020 1453.998779,2344.639648 1454.001099,2363.152344 
	C1454.015747,2483.055664 1454.015869,2602.958984 1454.001099,2722.862305 
	C1453.998901,2741.370605 1453.380615,2741.973877 1434.934326,2741.992432 
	C1407.622925,2742.019531 1380.311401,2741.999756 1352.000000,2742.000000 
z"/>
<path fill="currentColor" opacity="1.000000" stroke="none" 
	d="
M1618.000000,2344.000000 
	C1641.315918,2344.001953 1663.631958,2343.988770 1685.947876,2344.022461 
	C1689.274170,2344.027588 1692.617310,2344.082275 1695.922241,2344.415771 
	C1700.510742,2344.879150 1703.154541,2347.606934 1703.614990,2352.185303 
	C1703.914062,2355.160400 1703.989502,2358.168457 1703.989868,2361.161621 
	C1704.007324,2482.400635 1704.018188,2603.639648 1703.988770,2724.878662 
	C1703.984985,2740.696777 1702.706543,2741.968262 1686.913818,2741.979004 
	C1626.960449,2742.020020 1567.007202,2741.995850 1507.053833,2741.995605 
	C1506.720703,2741.995605 1506.387695,2741.995117 1506.054565,2741.990967 
	C1491.566895,2741.818848 1490.026855,2740.413086 1490.022095,2725.845459 
	C1489.982666,2603.940430 1489.998413,2482.035156 1490.010010,2360.130127 
	C1490.010254,2357.801025 1489.980957,2355.448486 1490.280273,2353.147705 
	C1491.081299,2346.989014 1492.953979,2345.039307 1499.105469,2344.315674 
	C1502.398071,2343.928223 1505.755493,2344.017090 1509.083618,2344.015381 
	C1545.055786,2343.996094 1581.027832,2344.001465 1618.000000,2344.000000 
z"/>
<path fill="currentColor" opacity="1.000000" stroke="none" 
	d="
M1202.010010,2711.982666 
	C1201.953369,2719.306396 1202.179932,2725.652344 1201.765381,2731.956299 
	C1201.292480,2739.147217 1199.077515,2741.149902 1191.811157,2741.805664 
	C1188.833862,2742.074463 1185.820801,2741.992188 1182.824097,2741.992676 
	C1124.202637,2742.001465 1065.581299,2742.012695 1006.959839,2741.991455 
	C988.627808,2741.984863 987.999817,2741.351074 987.997620,2722.755371 
	C987.983337,2602.847900 987.982788,2482.940430 987.998779,2363.032959 
	C988.001221,2344.635986 988.628479,2344.019287 1007.178528,2344.012207 
	C1065.799927,2343.990234 1124.421387,2343.989014 1183.042847,2344.013184 
	C1201.375610,2344.020752 1201.999146,2344.657959 1202.001465,2363.254395 
	C1202.016113,2479.165039 1202.009521,2595.075684 1202.010010,2711.982666 
z"/>
<path fill="currentColor" opacity="1.000000" stroke="none" 
	d="
M1238.009766,2165.999023 
	C1238.012817,2136.371094 1237.878540,2107.741455 1238.121948,2079.115234 
	C1238.178101,2072.521240 1238.890015,2065.785889 1240.419067,2059.383057 
	C1243.424683,2046.796265 1251.958984,2039.410156 1264.582520,2037.105591 
	C1269.454712,2036.216064 1274.512451,2036.064331 1279.486572,2036.056030 
	C1324.426392,2035.980591 1369.366333,2035.994019 1414.306274,2036.039062 
	C1418.624634,2036.043457 1422.992310,2036.094604 1427.252075,2036.711060 
	C1441.648071,2038.794067 1452.473877,2050.465576 1453.735352,2065.027588 
	C1453.993286,2068.006104 1453.973267,2071.014404 1453.974487,2074.008789 
	C1453.989990,2111.958008 1453.989136,2149.907227 1453.979736,2187.856445 
	C1453.979126,2190.518555 1454.043701,2193.196045 1453.794922,2195.839844 
	C1453.112061,2203.092041 1451.118530,2205.121826 1443.919556,2205.797119 
	C1440.945679,2206.076172 1437.933228,2205.991699 1434.938232,2205.992188 
	C1375.684082,2206.001709 1316.430054,2206.011719 1257.175903,2205.992432 
	C1238.652954,2205.986328 1238.066650,2205.370605 1238.014648,2186.971924 
	C1237.995728,2180.314209 1238.010376,2173.656250 1238.009766,2165.999023 
z"/>
<path fill="currentColor" opacity="1.000000" stroke="none" 
	d="
M1538.051270,2036.004883 
	C1580.341064,2036.005859 1621.640503,2035.955078 1662.939575,2036.065674 
	C1668.905762,2036.081665 1674.988037,2036.274902 1680.811401,2037.424927 
	C1694.729736,2040.173828 1702.780884,2049.718994 1703.815918,2063.778076 
	C1704.011230,2066.431396 1703.996094,2069.103760 1703.996826,2071.767334 
	C1704.007812,2110.735352 1704.005737,2149.703125 1704.002930,2188.671143 
	C1704.002808,2190.336182 1704.019775,2192.004150 1703.937256,2193.666016 
	C1703.454590,2203.385498 1701.539307,2205.377686 1692.117310,2205.913330 
	C1690.124268,2206.026611 1688.121826,2205.994385 1686.123657,2205.994629 
	C1626.839111,2205.998291 1567.554565,2206.014648 1508.270020,2205.987793 
	C1490.981934,2205.979736 1490.023315,2205.041504 1490.005859,2188.065674 
	C1489.966797,2150.096924 1489.987915,2112.128174 1490.006836,2074.159424 
	C1490.008545,2070.830811 1489.990479,2067.485352 1490.296753,2064.176758 
	C1491.675171,2049.287598 1500.388428,2039.391602 1515.151733,2037.058594 
	C1522.330933,2035.923950 1529.750122,2036.308228 1538.051270,2036.004883 
z"/>
<path fill="currentColor" opacity="1.000000" stroke="none" 
	d="
M1096.000000,2206.000000 
	C1065.705933,2205.999756 1036.411865,2206.008057 1007.117798,2205.988770 
	C1003.791321,2205.986572 1000.436462,2206.077393 997.144653,2205.695557 
	C990.980896,2204.979980 989.051941,2203.040527 988.297729,2196.905518 
	C987.933960,2193.946289 988.004578,2190.924805 988.003357,2187.931396 
	C987.987244,2149.316406 987.988953,2110.701660 988.004089,2072.086670 
	C988.005310,2069.092285 988.013611,2066.087891 988.238464,2063.104980 
	C989.063110,2052.164307 994.355957,2044.105225 1004.571106,2040.010864 
	C1009.431519,2038.062866 1014.801758,2036.345825 1019.950256,2036.319336 
	C1070.213013,2036.060547 1120.478027,2036.142212 1170.741821,2036.276611 
	C1174.338623,2036.286255 1178.093872,2037.010376 1181.497559,2038.198486 
	C1192.405884,2042.006714 1199.332764,2049.580078 1201.300537,2061.138916 
	C1201.910645,2064.722900 1201.963989,2068.431641 1201.968262,2072.083740 
	C1202.013916,2111.364502 1202.002930,2150.645020 1201.989258,2189.925781 
	C1201.988525,2192.253418 1202.017334,2194.605225 1201.714478,2196.904053 
	C1200.906860,2203.034912 1199.021118,2204.979736 1192.857910,2205.695312 
	C1189.566284,2206.077881 1186.211304,2205.986572 1182.884888,2205.988770 
	C1154.256592,2206.008057 1125.628296,2206.000000 1096.000000,2206.000000 
z"/>
<path fill="currentColor" opacity="1.000000" stroke="none" 
	d="
M1238.009766,2818.000000 
	C1238.019409,2802.686035 1237.907104,2788.370605 1238.076050,2774.058594 
	C1238.217407,2762.092041 1240.151123,2760.045410 1252.141602,2760.027344 
	C1314.723511,2759.932617 1377.305908,2759.932373 1439.887817,2760.028076 
	C1451.853760,2760.046143 1453.883179,2762.102051 1453.917480,2774.087646 
	C1454.033447,2814.698975 1454.033691,2855.311279 1453.917236,2895.922607 
	C1453.882812,2907.909424 1451.881958,2909.914307 1439.859863,2909.931885 
	C1377.277954,2910.023438 1314.695557,2910.023438 1252.113647,2909.930908 
	C1240.112061,2909.913086 1238.151001,2907.903320 1238.080933,2895.895996 
	C1237.931519,2870.264648 1238.019287,2844.632080 1238.009766,2818.000000 
z"/>
<path fill="currentColor" opacity="1.000000" stroke="none" 
	d="
M1489.989990,2838.000000 
	C1489.991821,2817.024902 1489.978638,2797.049805 1490.011597,2777.074707 
	C1490.016479,2774.082764 1490.082642,2771.075195 1490.394409,2768.103271 
	C1490.874512,2763.527588 1493.557373,2760.851074 1498.128784,2760.365967 
	C1501.100098,2760.050781 1504.108154,2759.977051 1507.099731,2759.976074 
	C1567.024902,2759.954834 1626.950073,2759.934326 1686.875244,2759.977295 
	C1702.671265,2759.988770 1703.966187,2761.292236 1703.987549,2777.049805 
	C1704.039917,2815.668213 1704.009521,2854.286621 1703.993774,2892.905029 
	C1703.992798,2895.565918 1704.043579,2898.252686 1703.710693,2900.882080 
	C1702.932739,2907.029053 1701.031616,2908.951660 1694.878418,2909.698730 
	C1691.918091,2910.058350 1688.896606,2909.986572 1685.902832,2909.987305 
	C1626.643433,2910.001709 1567.384155,2910.015625 1508.124756,2909.986572 
	C1490.977051,2909.978271 1490.044800,2909.022461 1490.002563,2891.933838 
	C1489.958984,2874.289307 1489.991089,2856.644531 1489.989990,2838.000000 
z"/>
<path fill="currentColor" opacity="1.000000" stroke="none" 
	d="
M993.598572,2760.992432 
	C998.708191,2760.454590 1003.020874,2759.991455 1007.333862,2759.988037 
	C1065.950806,2759.940186 1124.567749,2759.940918 1183.184692,2759.965820 
	C1201.138916,2759.973389 1201.981201,2760.798828 1201.997070,2778.368652 
	C1202.031006,2816.003418 1202.007812,2853.637939 1202.007202,2891.272705 
	C1202.007080,2892.604980 1202.014038,2893.937500 1201.986816,2895.269287 
	C1201.726685,2908.023926 1200.085083,2909.857666 1187.520630,2909.941406 
	C1166.206299,2910.083496 1144.890381,2909.997314 1123.575195,2909.999268 
	C1085.274414,2910.002686 1046.973511,2910.000488 1008.672729,2909.998535 
	C1006.341431,2909.998291 1004.008606,2910.029785 1001.679016,2909.960938 
	C990.192139,2909.622314 988.188171,2907.844238 988.071838,2896.466797 
	C987.881287,2877.817627 987.991760,2859.165771 987.990479,2840.514893 
	C987.989014,2818.533691 987.948669,2796.552002 988.054016,2774.571289 
	C988.077454,2769.677246 987.375732,2764.330566 993.598572,2760.992432 
z"/>
<path fill="currentColor" opacity="1.000000" stroke="none" 
	d="
M1538.758789,298.876892 
	C1545.278687,287.468323 1554.906860,283.222748 1566.834839,284.162537 
	C1573.428711,284.682037 1580.149414,285.540375 1586.446167,287.453186 
	C1597.588379,290.837860 1608.595825,294.784485 1619.396118,299.148163 
	C1635.778564,305.767365 1641.703491,315.822266 1640.286499,333.610901 
	C1639.838013,339.242645 1638.803833,344.827393 1638.047363,350.434967 
	C1637.081421,357.596710 1633.180908,361.758026 1625.917480,362.984772 
	C1620.669678,363.871094 1615.482788,365.174042 1610.321899,366.498169 
	C1607.429565,367.240265 1604.360718,367.952667 1601.895020,369.508392 
	C1599.592773,370.961151 1596.985596,373.281769 1596.437988,375.663116 
	C1596.103638,377.116852 1599.119141,379.826538 1601.148804,381.212952 
	C1603.580688,382.874237 1606.543701,383.778870 1609.313965,384.920685 
	C1621.326416,389.871765 1633.741943,394.021393 1645.295166,399.874878 
	C1671.720093,413.263214 1697.726685,427.477264 1723.898926,441.363953 
	C1724.780762,441.831818 1725.602661,442.411560 1726.476318,442.895905 
	C1735.733276,448.026825 1737.880371,447.387207 1743.256104,438.463684 
	C1749.270874,428.479126 1755.235474,418.453857 1761.601318,408.693756 
	C1770.864014,394.491638 1772.572388,394.053589 1787.051880,402.454315 
	C1797.994385,408.802979 1808.675903,415.606873 1819.388306,422.343658 
	C1822.192993,424.107483 1824.636108,426.436279 1827.320679,428.402863 
	C1843.197021,440.033997 1844.690918,455.784393 1839.822388,473.098206 
	C1835.282349,489.243256 1825.651001,502.557037 1814.145386,514.236938 
	C1801.605103,526.967163 1786.454712,529.187866 1770.018311,521.835083 
	C1758.430420,516.651306 1748.840698,509.891205 1744.487671,496.886414 
	C1740.653809,485.432373 1731.990967,477.128937 1722.014893,470.831940 
	C1705.688354,460.526306 1689.123901,450.546448 1672.244873,441.176544 
	C1621.848022,413.200317 1568.209595,393.253693 1512.548706,378.808624 
	C1477.045532,369.594849 1441.004028,362.857635 1404.368164,359.894623 
	C1387.121338,358.499756 1369.846313,357.451263 1352.582764,356.264069 
	C1347.501099,355.914551 1342.688232,355.260223 1339.464355,350.454315 
	C1337.408203,347.388916 1334.297852,348.167389 1331.309082,349.124664 
	C1325.608643,350.950500 1319.984985,353.208252 1314.147583,354.381683 
	C1290.398804,359.155640 1272.380981,347.220978 1267.837036,323.653625 
	C1264.841675,308.118439 1264.965820,292.488342 1268.477417,277.013214 
	C1272.375610,259.833527 1281.783203,250.742111 1299.084595,248.728821 
	C1318.255249,246.498001 1337.493652,244.520523 1356.827148,247.866974 
	C1365.720459,249.406311 1367.702759,250.776352 1367.855103,259.992279 
	C1368.130371,276.647888 1367.974609,293.310547 1368.018311,309.970184 
	C1368.027954,313.634521 1367.928833,317.313538 1368.213501,320.959747 
	C1368.812256,328.625671 1370.596313,331.140076 1378.212280,332.403870 
	C1387.723389,333.982178 1397.355469,335.132080 1406.979858,335.669922 
	C1438.708496,337.442932 1469.795410,342.871552 1500.599976,350.520935 
	C1512.198242,353.401001 1524.132568,355.007355 1535.973389,356.799011 
	C1541.877319,357.692322 1547.842163,357.375061 1553.074951,353.284454 
	C1552.422241,347.553284 1548.643555,344.197754 1545.204224,340.686127 
	C1543.814575,339.267151 1542.137085,338.129181 1540.585693,336.869354 
	C1527.218140,326.013702 1526.664673,323.888916 1533.636963,308.280762 
	C1534.989746,305.252106 1536.771851,302.415100 1538.758789,298.876892 
M1335.946411,328.898224 
	C1337.116455,326.951324 1339.256348,325.026764 1339.301758,323.053955 
	C1339.646362,308.086273 1339.753906,293.106812 1339.547363,278.136322 
	C1339.476807,273.018341 1335.852539,270.445862 1330.905762,270.257660 
	C1324.921387,270.029907 1318.908203,269.837341 1312.936279,270.159515 
	C1303.092407,270.690552 1298.773071,274.501678 1296.244385,284.273804 
	C1293.436035,295.127502 1293.385376,306.017365 1296.071777,316.908295 
	C1298.717896,327.635712 1305.886597,333.517395 1316.977051,332.936584 
	C1322.882690,332.627289 1328.710083,330.823334 1335.946411,328.898224 
M1767.730103,452.762665 
	C1764.198364,459.139496 1760.276489,465.342957 1757.327759,471.978851 
	C1756.156250,474.615631 1755.834839,479.237457 1757.370728,481.190887 
	C1763.879272,489.468842 1772.636719,494.890594 1783.113647,496.750793 
	C1785.419556,497.160217 1788.451050,495.985626 1790.554810,494.623627 
	C1803.832764,486.027557 1811.646729,473.796234 1813.615601,458.054352 
	C1814.311401,452.490234 1812.869263,447.273621 1808.130615,443.888000 
	C1802.484131,439.853790 1796.700195,435.890503 1790.554810,432.710510 
	C1784.648926,429.654449 1781.677002,430.808594 1777.976074,436.341156 
	C1774.659790,441.299103 1771.628540,446.447693 1767.730103,452.762665 
M1577.690552,339.473511 
	C1581.737549,345.163696 1587.243408,346.233063 1593.620850,344.473602 
	C1596.828613,343.588562 1600.079956,342.813446 1603.208862,341.699738 
	C1608.470093,339.826843 1612.946533,336.979034 1613.305908,330.665955 
	C1613.663330,324.390411 1609.838013,320.563293 1604.588135,318.586273 
	C1595.572388,315.191071 1586.335815,312.375031 1577.149414,309.448822 
	C1575.610107,308.958496 1573.832031,308.888611 1572.206909,309.050873 
	C1563.221558,309.947998 1559.931763,317.231384 1565.365479,324.470581 
	C1568.959351,329.258728 1572.959839,333.741638 1577.690552,339.473511 
z"/>
<path fill="currentColor" opacity="1.000000" stroke="none" 
	d="
M1451.154297,2329.183350 
	C1446.360718,2330.474609 1442.163208,2331.820557 1437.962769,2331.830078 
	C1376.702881,2331.966553 1315.442383,2331.925293 1254.182129,2331.921143 
	C1252.517944,2331.920898 1250.848145,2331.935547 1249.190552,2331.812744 
	C1240.774536,2331.189453 1238.511475,2329.217285 1238.195312,2320.891846 
	C1237.841675,2311.582031 1238.022705,2302.251221 1238.015015,2292.929443 
	C1237.999634,2274.285156 1237.997681,2255.640625 1238.032837,2236.996338 
	C1238.038452,2234.004395 1238.103149,2230.995361 1238.427246,2228.025391 
	C1238.927734,2223.440430 1241.661011,2220.816895 1246.227539,2220.355225 
	C1249.201172,2220.054932 1252.207886,2219.976318 1255.199707,2219.975342 
	C1315.794189,2219.954834 1376.388550,2219.959961 1436.983032,2219.960449 
	C1437.315918,2219.960449 1437.648926,2219.961914 1437.981812,2219.966064 
	C1452.406982,2220.149170 1453.934937,2221.588867 1453.978027,2236.160400 
	C1454.056641,2262.795166 1454.096558,2289.430908 1453.898193,2316.064453 
	C1453.866943,2320.253418 1452.499146,2324.432617 1451.154297,2329.183350 
z"/>
<path fill="currentColor" opacity="1.000000" stroke="none" 
	d="
M1665.998047,2331.936279 
	C1612.666626,2331.934570 1560.334717,2331.955322 1508.002930,2331.918945 
	C1490.945312,2331.907227 1490.029053,2330.954346 1490.002808,2313.706299 
	C1489.964233,2288.373779 1489.987915,2263.041016 1490.001953,2237.708496 
	C1490.003418,2235.043213 1489.935547,2232.358398 1490.217041,2229.716553 
	C1490.928223,2223.042725 1492.950317,2220.948486 1499.513184,2220.218018 
	C1502.482422,2219.887207 1505.504517,2219.966797 1508.502563,2219.966309 
	C1567.500854,2219.953857 1626.499268,2219.939453 1685.497559,2219.967285 
	C1703.173340,2219.975586 1703.976074,2220.811279 1703.999634,2238.708496 
	C1704.032593,2263.707764 1704.010132,2288.707031 1704.003052,2313.706299 
	C1704.002319,2316.039062 1704.049316,2318.379395 1703.889282,2320.703613 
	C1703.307983,2329.153564 1701.346558,2331.390869 1692.991943,2331.742920 
	C1684.339844,2332.107666 1675.663330,2331.895996 1665.998047,2331.936279 
z"/>
<path fill="currentColor" opacity="1.000000" stroke="none" 
	d="
M1202.000854,2315.699707 
	C1201.886353,2318.975342 1201.878174,2321.311279 1201.645386,2323.624756 
	C1201.129517,2328.750488 1198.039673,2331.269287 1193.070679,2331.632568 
	C1190.418335,2331.826416 1187.752441,2331.915771 1185.092651,2331.916504 
	C1125.179565,2331.932617 1065.266479,2331.953857 1005.353455,2331.914795 
	C989.322083,2331.904297 988.051575,2330.659180 988.012878,2315.099609 
	C987.948242,2289.137207 987.987305,2263.175049 988.004272,2237.212646 
	C988.005981,2234.552246 987.953003,2231.867188 988.273804,2229.236084 
	C989.028564,2223.044434 990.921997,2221.062744 996.982239,2220.283691 
	C999.937988,2219.904053 1002.961243,2219.970703 1005.953979,2219.969971 
	C1065.201294,2219.954102 1124.448730,2219.939209 1183.696045,2219.968262 
	C1200.973633,2219.976807 1201.964600,2220.957764 1201.994507,2237.861572 
	C1202.039795,2263.491211 1202.005737,2289.120605 1202.000854,2315.699707 
z"/>
<path fill="currentColor" opacity="1.000000" stroke="none" 
	d="
M751.486145,617.497620 
	C765.762939,602.533325 778.952026,587.445190 793.465393,573.761597 
	C813.557434,554.818420 834.644409,536.930542 855.312439,518.598694 
	C856.058838,517.936768 856.897583,517.380188 857.664734,516.740295 
	C869.424072,506.932617 870.298706,501.041199 861.023987,488.878510 
	C854.362915,480.143341 847.133850,471.842896 840.224915,463.294556 
	C836.645813,458.866058 832.496155,456.656342 826.430664,456.950287 
	C822.822998,457.125153 818.441895,455.717590 815.564209,453.513000 
	C809.993896,449.245483 810.098877,443.985779 815.384827,439.205475 
	C820.561096,434.524384 825.994507,430.058014 831.709473,426.061432 
	C837.638977,421.914856 841.332886,422.189667 845.743286,427.422272 
	C860.547668,444.986450 875.163513,462.713745 889.577271,480.599609 
	C892.445007,484.158112 894.634094,488.500488 896.199768,492.820801 
	C899.221191,501.157867 898.523499,509.595825 892.720154,516.454590 
	C886.080688,524.301575 879.293518,532.325623 871.299500,538.671509 
	C838.865601,564.418030 809.199524,593.093262 780.402588,622.724182 
	C773.912903,629.401733 768.025757,636.664734 761.856201,643.653748 
	C757.177551,648.953979 755.819275,654.747437 759.629456,661.054871 
	C769.524780,677.435547 765.405396,692.347107 754.879333,706.509827 
	C744.103577,721.008545 731.985779,734.195251 717.330566,744.967712 
	C703.361450,755.235901 688.680481,756.548279 673.068542,749.421753 
	C661.065308,743.942566 651.264465,735.410828 641.716187,726.568481 
	C638.297119,723.402039 634.971069,720.106567 631.873596,716.628662 
	C628.014099,712.295166 623.783203,709.955750 617.778564,711.844666 
	C612.928772,713.370300 609.510681,710.621826 606.485046,707.237122 
	C603.665466,704.082947 603.000793,700.715820 605.958496,697.398438 
	C611.275024,691.435303 616.641418,685.506470 622.219604,679.790344 
	C625.816162,676.104736 630.016296,676.341187 633.913818,679.445435 
	C636.510376,681.513367 638.838623,683.920776 641.263489,686.201172 
	C652.175415,696.462952 663.077332,706.735413 673.989502,716.996887 
	C674.716919,717.680908 675.477173,718.334595 676.260254,718.954163 
	C689.615051,729.518738 699.411804,729.870178 711.862854,718.538330 
	C719.919189,711.206238 727.171204,702.815674 733.810608,694.153625 
	C739.709229,686.458008 738.893860,677.767822 733.183655,669.990601 
	C729.850403,665.450867 726.109375,661.134827 722.093872,657.183594 
	C689.097412,624.715027 656.013855,592.334900 622.905212,559.980713 
	C616.160278,553.389465 609.246399,548.152893 598.516785,548.701599 
	C589.077393,549.184448 584.644043,539.628845 589.968628,531.770264 
	C593.674438,526.300842 598.101990,521.198792 602.844543,516.588257 
	C607.459229,512.102051 610.967285,512.283325 616.267090,515.990540 
	C618.164307,517.317688 619.864380,518.957458 621.527039,520.584656 
	C654.612244,552.963684 687.719666,585.320374 720.730469,617.775146 
	C735.504944,632.300781 736.407410,632.401672 751.486145,617.497620 
z"/>
<path fill="currentColor" opacity="1.000000" stroke="none" 
	d="
M1005.257812,447.253876 
	C993.782654,454.158875 982.960022,460.725952 972.114075,467.254242 
	C969.260864,468.971619 966.451904,470.836548 963.415955,472.159271 
	C958.795410,474.172333 954.287109,478.854950 948.858337,473.984955 
	C943.404541,469.092468 941.477661,460.164917 944.894653,453.430695 
	C947.502686,448.290741 945.223877,444.412018 942.814392,440.416687 
	C936.104187,429.290039 929.279419,418.232544 922.506165,407.143890 
	C907.396606,382.407623 892.267761,357.683136 877.199524,332.921692 
	C873.302673,326.517975 869.502686,320.690918 860.401917,321.143707 
	C854.870361,321.418884 852.879272,316.367645 851.507080,311.744751 
	C850.186462,307.295746 851.915710,303.875305 855.640869,301.458282 
	C860.948914,298.014252 866.192078,294.420288 871.752747,291.429321 
	C877.724426,288.217285 880.207214,288.835785 884.906433,293.917358 
	C887.156067,296.349976 889.243103,299.011536 890.974060,301.833008 
	C907.518860,328.800842 923.932129,355.849426 940.467163,382.823334 
	C949.169250,397.019135 957.870239,411.220947 966.892944,425.212860 
	C972.511597,433.925964 974.903809,434.542969 984.199402,429.847931 
	C1000.253967,421.739105 1016.061890,413.143188 1032.092163,404.985107 
	C1071.433594,384.963440 1112.571045,369.626129 1155.182861,358.181091 
	C1176.468628,352.463959 1180.844849,345.551239 1175.650513,324.153381 
	C1174.023438,317.450806 1171.032837,310.994385 1168.017090,304.738342 
	C1165.178467,298.850220 1159.838745,295.731018 1153.315796,296.262726 
	C1147.073608,296.771515 1140.685913,297.602936 1134.762085,299.524780 
	C1115.434448,305.795135 1096.323486,312.730896 1077.051636,319.178619 
	C1071.707520,320.966553 1066.159180,322.548523 1060.588013,323.153229 
	C1053.072388,323.969025 1045.399048,312.042603 1048.996338,305.380402 
	C1049.954224,303.606354 1052.396851,302.210815 1054.453369,301.517303 
	C1080.965820,292.575928 1107.424194,283.444305 1134.151611,275.187683 
	C1141.950073,272.778595 1150.531250,272.663910 1158.794556,272.050537 
	C1174.219116,270.905487 1185.214233,278.659485 1192.311157,291.390747 
	C1201.178955,307.298737 1205.665771,324.626373 1206.029785,343.018951 
	C1206.297974,356.578674 1199.858887,365.961700 1188.672485,372.301208 
	C1182.925537,375.558136 1176.611206,377.968445 1170.328857,380.099792 
	C1144.777588,388.768494 1119.042847,396.903351 1093.558228,405.759766 
	C1062.929810,416.403778 1034.151367,431.120697 1005.257812,447.253876 
z"/>
<path fill="currentColor" opacity="1.000000" stroke="none" 
	d="
M2061.529297,711.496216 
	C2063.222656,709.821045 2064.458008,708.693726 2065.563232,707.450500 
	C2073.294922,698.753357 2074.326904,690.717285 2067.213135,681.299805 
	C2057.385010,668.288391 2046.650269,655.962646 2036.334961,643.317749 
	C2028.546387,633.770142 2020.588623,624.349060 2013.119873,614.556091 
	C2007.886841,607.694702 2008.366943,604.990173 2014.037720,600.112366 
	C2020.908447,594.202393 2024.579102,593.757446 2030.433716,599.642212 
	C2037.232422,606.475891 2043.587524,613.787109 2049.745850,621.213989 
	C2061.440918,635.318359 2073.089355,649.474670 2084.284668,663.974304 
	C2089.131104,670.251465 2093.624268,677.070251 2096.827881,684.286682 
	C2102.156738,696.290100 2101.431396,708.328003 2093.423340,719.322449 
	C2082.561768,734.234741 2068.366943,745.100281 2051.545166,752.284119 
	C2035.378296,759.188232 2020.377808,756.019836 2008.595825,743.243591 
	C1997.104736,730.782898 1986.987061,717.064697 1976.066895,704.066223 
	C1959.151367,683.931213 1942.503052,663.545837 1924.924438,644.001526 
	C1908.899292,626.184570 1891.952881,609.181213 1875.085815,592.142822 
	C1866.427734,583.396667 1856.944458,575.473267 1848.062866,566.939941 
	C1844.620361,563.632324 1839.830444,560.430908 1843.276001,554.296448 
	C1847.051025,547.575500 1854.002808,543.229797 1860.072754,544.916443 
	C1864.591553,546.172180 1867.773071,545.037170 1870.966797,542.161255 
	C1875.667114,537.928406 1880.733521,534.076172 1885.213257,529.627991 
	C1912.405640,502.626221 1939.449463,475.474731 1966.610840,448.441528 
	C1971.693359,443.382996 1976.287842,438.687012 1974.064209,430.281799 
	C1972.570679,424.635834 1977.241577,421.174164 1981.588013,418.502014 
	C1985.354126,416.186462 1988.815186,417.924042 1991.547363,420.585907 
	C1996.777954,425.681671 2001.944336,430.874786 2006.740723,436.373566 
	C2010.026978,440.141266 2009.516724,444.422272 2006.330566,448.211914 
	C2004.404541,450.502686 2002.314697,452.665039 2000.197510,454.784241 
	C1974.054565,480.951050 1947.923584,507.130157 1921.705078,533.221252 
	C1917.463623,537.442078 1912.730713,541.164307 1908.371094,545.272095 
	C1903.282837,550.066284 1898.062988,554.771179 1893.432007,559.986938 
	C1887.691895,566.451721 1887.890747,570.160889 1893.663086,576.513062 
	C1897.469604,580.701782 1901.513306,584.684631 1905.583130,588.622803 
	C1943.467407,625.281006 1979.021362,663.999329 2010.477417,706.394897 
	C2014.218994,711.437683 2018.865479,715.874084 2023.456421,720.205933 
	C2030.041260,726.419006 2037.818481,727.298889 2045.578247,722.921448 
	C2051.039795,719.840454 2055.888672,715.672913 2061.529297,711.496216 
z"/>
<path fill="currentColor" opacity="1.000000" stroke="none" 
	d="
M1544.135376,590.607178 
	C1526.072632,595.970642 1508.482300,594.940674 1491.030640,592.291016 
	C1479.006226,590.465454 1471.433838,582.723206 1468.927124,570.737061 
	C1464.305786,548.639160 1464.330444,526.372620 1468.982666,504.373688 
	C1471.510620,492.420013 1479.665161,484.761536 1492.056885,482.198730 
	C1510.299316,478.425934 1528.480591,479.535828 1546.575439,482.998474 
	C1553.662964,484.354736 1555.540649,487.273560 1554.492920,493.220581 
	C1553.422852,499.294464 1550.770996,501.350677 1543.913452,500.788757 
	C1537.949707,500.300079 1532.036133,499.088898 1526.069702,498.769409 
	C1519.454590,498.415161 1512.705200,497.981506 1506.190063,498.870605 
	C1491.426758,500.885376 1486.002197,512.572266 1492.989624,527.538574 
	C1495.312988,526.727234 1497.835693,526.132629 1500.096069,525.009949 
	C1513.737671,518.234009 1527.794800,518.841309 1541.943970,522.714661 
	C1551.775391,525.406067 1557.749146,531.758545 1559.862061,542.031921 
	C1561.840210,551.648926 1562.295166,561.074707 1560.041138,570.696960 
	C1557.944580,579.646973 1553.824951,586.784180 1544.135376,590.607178 
M1518.713989,575.980103 
	C1534.840210,575.231750 1541.500122,567.608093 1538.950928,552.814087 
	C1537.510132,544.451416 1534.694458,541.544861 1526.419189,539.512634 
	C1515.751709,536.893005 1505.322510,539.134094 1494.914795,541.083313 
	C1493.177979,541.408447 1491.298950,542.923889 1490.205933,544.416748 
	C1483.760986,553.218628 1489.587646,571.351685 1500.163696,574.283936 
	C1505.483765,575.758911 1511.290894,575.477722 1518.713989,575.980103 
z"/>
<path fill="currentColor" opacity="1.000000" stroke="none" 
	d="
M1443.962280,510.126831 
	C1444.884399,527.319458 1436.829834,537.367859 1421.949097,542.734741 
	C1411.302979,546.574280 1400.521484,550.119202 1390.153931,554.611572 
	C1385.840088,556.480835 1381.580444,559.850708 1378.849365,563.653625 
	C1375.333252,568.549744 1377.655273,572.799011 1383.724365,573.512817 
	C1389.316284,574.170410 1395.019531,573.943909 1400.674561,573.990356 
	C1412.325562,574.085999 1423.985962,573.846863 1435.625366,574.245117 
	C1443.233276,574.505371 1446.119507,577.968872 1445.705811,584.824341 
	C1445.387329,590.102844 1443.242188,592.513855 1437.902588,593.556580 
	C1437.251953,593.683594 1436.579468,593.757507 1435.917114,593.757690 
	C1412.614868,593.765747 1389.310181,593.949646 1366.011841,593.647949 
	C1358.815552,593.554810 1356.636719,591.012085 1356.227539,583.722839 
	C1355.855103,577.087280 1356.058105,570.412292 1356.179688,563.757874 
	C1356.374634,553.092285 1361.270508,545.067749 1370.950806,540.747192 
	C1381.268188,536.142334 1391.952148,532.360535 1402.466919,528.196350 
	C1406.483887,526.605530 1410.667847,525.302795 1414.434570,523.244507 
	C1420.359009,520.007263 1422.421021,515.229309 1421.458252,509.130554 
	C1420.538086,503.301483 1416.635620,500.200043 1411.348755,499.615997 
	C1404.133301,498.818848 1396.792480,498.556915 1389.539673,498.867249 
	C1382.579346,499.165039 1375.680542,500.685516 1368.722046,501.298676 
	C1362.248657,501.869110 1359.528320,500.045929 1357.920288,494.922119 
	C1356.006348,488.823395 1357.639893,485.184174 1364.004150,483.725220 
	C1370.467163,482.243652 1377.126465,481.034912 1383.728638,480.871399 
	C1395.661865,480.575836 1407.656250,480.609589 1419.551880,481.493378 
	C1434.168945,482.579376 1445.544922,495.729645 1443.962280,510.126831 
z"/>
<path fill="currentColor" opacity="1.000000" stroke="none" 
	d="
M1317.444824,516.298950 
	C1323.456421,517.213684 1325.537842,520.660522 1325.753906,525.506226 
	C1325.946777,529.832520 1325.899170,534.168823 1326.033447,538.498413 
	C1326.347046,548.611755 1326.535767,548.967896 1336.639160,552.235840 
	C1340.088257,553.351379 1342.611938,554.982056 1343.384644,558.738220 
	C1344.460327,563.967773 1342.484497,568.588135 1337.106812,569.338074 
	C1328.021606,570.604919 1326.079224,575.962341 1325.711792,583.894958 
	C1325.360596,591.476624 1322.190918,593.806702 1314.829102,593.740112 
	C1307.856812,593.677063 1305.231445,591.428528 1304.185303,584.572021 
	C1304.035034,583.586914 1304.072266,582.574524 1303.958252,581.582214 
	C1302.853760,571.977356 1301.252686,570.326904 1291.350586,570.111084 
	C1280.356567,569.871460 1269.354004,570.035645 1258.355225,569.991394 
	C1255.357300,569.979370 1252.335571,570.065308 1249.367188,569.729919 
	C1243.099854,569.021667 1240.955444,567.144104 1240.323853,561.117920 
	C1239.110718,549.540588 1240.369385,538.974976 1249.044678,529.601379 
	C1261.024292,516.657532 1271.770020,502.578156 1283.212158,489.128052 
	C1290.136353,480.988708 1300.572754,479.515076 1311.936646,485.359497 
	C1309.438232,488.891449 1307.245605,492.494141 1304.567749,495.690216 
	C1292.800293,509.734985 1280.892212,523.662109 1269.035522,537.632324 
	C1268.172974,538.648682 1267.241699,539.616089 1266.464722,540.694397 
	C1261.938354,546.976868 1263.263794,550.877747 1270.853760,551.480469 
	C1278.794434,552.111023 1286.850342,551.995300 1294.808350,551.476990 
	C1300.810303,551.086182 1302.941406,548.624573 1303.602661,542.539307 
	C1304.104980,537.917908 1303.857544,533.219360 1304.059082,528.560120 
	C1304.500000,518.367554 1305.836670,517.085510 1317.444824,516.298950 
z"/>
<path fill="currentColor" opacity="1.000000" stroke="none" 
	d="
M1166.009766,526.043823 
	C1165.953491,520.056274 1166.156616,515.040222 1165.779297,510.068085 
	C1165.232788,502.863953 1163.163452,500.944550 1155.873291,500.111511 
	C1153.229004,499.809357 1150.516235,499.971283 1147.909790,499.503174 
	C1142.558716,498.542084 1140.260010,495.662598 1140.434692,490.631836 
	C1140.596558,485.972534 1142.948364,482.673615 1147.578491,482.534637 
	C1158.545898,482.205505 1169.535767,482.254395 1180.505371,482.557068 
	C1184.656372,482.671600 1187.085938,485.673431 1187.511963,489.785645 
	C1187.888306,493.419708 1187.959961,497.096924 1187.968750,500.755585 
	C1188.015137,520.079041 1187.924561,539.403137 1188.031616,558.726135 
	C1188.101685,571.357422 1188.685181,571.919922 1200.892090,574.191467 
	C1207.489868,575.419250 1209.747437,577.947998 1209.707642,584.065613 
	C1209.667725,590.203064 1207.244751,593.421204 1200.659180,593.577271 
	C1184.346558,593.963806 1168.014038,593.963196 1151.699707,593.624512 
	C1144.956665,593.484619 1142.498047,590.454346 1142.313477,584.411194 
	C1142.115601,577.932068 1144.664917,575.158264 1151.795532,574.170288 
	C1153.112427,573.987793 1154.461548,574.042480 1155.780640,573.870789 
	C1163.573975,572.856384 1165.578247,571.064392 1165.811890,563.012756 
	C1166.159668,551.028320 1165.970459,539.028320 1166.009766,526.043823 
z"/>
<path fill="currentColor" opacity="1.000000" stroke="none" 
	d="
M834.122681,391.951355 
	C838.300171,398.001282 836.616760,402.688110 832.006958,406.526215 
	C820.515869,416.093933 809.123413,425.808868 797.218994,434.842163 
	C788.348267,441.573517 783.104065,439.387054 781.477539,428.693268 
	C780.730164,423.779236 778.491272,420.859711 774.217957,418.916931 
	C771.195801,417.542969 768.150818,416.136597 765.350098,414.372955 
	C755.604858,408.236298 753.059082,396.821228 760.138428,387.678375 
	C769.585999,375.477234 781.950867,366.328186 794.438232,357.459717 
	C797.787354,355.081146 801.367371,355.085449 804.336426,358.328400 
	C807.389465,361.663147 809.801758,365.505005 807.178833,369.983063 
	C805.547546,372.768250 803.127686,375.250061 800.614563,377.326965 
	C795.493103,381.559509 789.943359,385.273956 784.823547,389.508270 
	C782.314148,391.583679 779.878540,394.062469 778.279602,396.856628 
	C775.333008,402.005737 776.613403,407.389709 780.973877,411.263153 
	C785.257385,415.068115 789.420288,415.715576 794.519897,411.861176 
	C803.258118,405.256622 811.456421,397.942749 820.007629,391.084106 
	C826.007324,386.271820 826.678223,386.403259 834.122681,391.951355 
z"/>
<path fill="currentColor" opacity="1.000000" stroke="none" 
	d="
M1921.858765,744.222412 
	C1918.055054,738.478882 1919.350464,734.220642 1923.965332,730.592590 
	C1927.630493,727.711243 1931.253052,724.773743 1934.968750,721.959412 
	C1938.792725,719.062927 1942.401367,719.637451 1945.692261,722.950195 
	C1946.865845,724.131470 1948.034058,725.323059 1949.131958,726.573853 
	C1961.711426,740.903381 1959.702393,749.490540 1942.084595,757.421326 
	C1937.866821,759.319885 1934.156128,758.795410 1931.123657,755.580872 
	C1927.936035,752.201904 1925.179932,748.415955 1921.858765,744.222412 
z"/>
<path fill="currentColor" opacity="1.000000" stroke="none" 
	d="
M1357.115112,219.717819 
	C1352.606689,219.844925 1348.961060,219.986984 1345.324585,219.863937 
	C1343.363892,219.797592 1341.143188,219.777206 1339.512695,218.878204 
	C1331.095459,214.237579 1334.336670,206.114044 1334.411133,199.268631 
	C1334.478516,193.092636 1336.911255,191.165192 1342.886230,190.267944 
	C1344.515137,190.023331 1346.187500,190.037460 1347.841553,189.995087 
	C1364.596313,189.565857 1369.693848,196.227875 1365.485474,212.807236 
	C1364.450562,216.884308 1362.000244,219.021011 1357.115112,219.717819 
z"/>
<path fill="currentColor" opacity="1.000000" stroke="none" 
	d="
M1313.448486,212.826187 
	C1312.055908,217.709671 1309.069580,219.483795 1305.093750,219.692810 
	C1301.459106,219.883865 1297.790161,220.067062 1294.172119,219.788132 
	C1286.951050,219.231400 1284.946777,217.124252 1284.161499,210.030731 
	C1282.258301,192.840302 1286.830933,188.244705 1303.964966,190.127777 
	C1311.088989,190.910721 1313.247925,192.907837 1313.779907,200.088394 
	C1314.072021,204.033234 1313.698364,208.027359 1313.448486,212.826187 
z"/>
<path fill="currentColor" opacity="1.000000" stroke="none" 
	d="
M1350.083862,3299.668457 
	C1351.008911,3287.473633 1351.231689,3276.101807 1353.068848,3264.997070 
	C1356.136353,3246.456299 1364.968994,3238.253662 1383.677734,3236.653320 
	C1394.901611,3235.693115 1406.341919,3235.621338 1417.560059,3236.593018 
	C1437.617432,3238.330078 1447.343384,3248.440674 1449.548096,3268.422363 
	C1451.412598,3285.318359 1451.424927,3302.252197 1449.598877,3319.158691 
	C1447.509033,3338.508057 1439.776733,3346.812256 1420.479370,3350.406250 
	C1405.536377,3353.189209 1390.641724,3352.382080 1375.873047,3349.124023 
	C1362.105225,3346.086426 1355.075195,3336.664062 1352.786499,3323.401123 
	C1351.487671,3315.874512 1350.974365,3308.212402 1350.083862,3299.668457 
M1427.295410,3272.432129 
	C1425.364380,3258.444092 1418.347778,3255.474121 1407.171143,3254.506104 
	C1401.593018,3254.022705 1395.853760,3254.471924 1390.272095,3255.173584 
	C1381.636841,3256.259766 1375.739502,3261.419678 1375.334961,3270.097656 
	C1374.592529,3286.022705 1374.301025,3302.032715 1375.115601,3317.941162 
	C1375.562500,3326.667725 1380.898560,3330.849365 1389.768555,3331.520508 
	C1397.379395,3332.096191 1405.085693,3331.879639 1412.723267,3331.490723 
	C1419.393677,3331.151611 1423.943726,3327.354248 1425.745117,3320.895264 
	C1426.809814,3317.078125 1427.721436,3313.077148 1427.776733,3309.145752 
	C1427.941162,3297.490479 1427.646362,3285.828857 1427.295410,3272.432129 
z"/>
<path fill="currentColor" opacity="1.000000" stroke="none" 
	d="
M1327.830811,3339.703613 
	C1321.914307,3343.292236 1316.788452,3347.587891 1310.946655,3349.079346 
	C1294.617065,3353.249023 1278.014404,3353.152344 1261.517212,3349.158936 
	C1248.428711,3345.990479 1240.775146,3337.797607 1238.548706,3324.580811 
	C1235.318604,3305.407471 1234.546753,3286.172363 1238.280762,3266.998047 
	C1239.285400,3261.839355 1241.041382,3256.688232 1243.315063,3251.947510 
	C1246.960571,3244.345703 1253.175781,3239.561279 1261.626709,3237.904297 
	C1276.483643,3234.990234 1291.508789,3234.829834 1306.332520,3237.057129 
	C1323.543213,3239.643066 1331.871948,3247.536621 1334.408813,3264.896240 
	C1337.394897,3285.328369 1337.448975,3306.036865 1333.856689,3326.494873 
	C1333.083862,3330.896729 1330.204224,3334.928711 1327.830811,3339.703613 
M1290.709961,3331.994141 
	C1292.372437,3331.946533 1294.042236,3331.982666 1295.696167,3331.838135 
	C1307.299072,3330.825195 1311.825317,3327.826904 1312.573975,3316.237793 
	C1313.575439,3300.737793 1312.933105,3285.091797 1312.260376,3269.540283 
	C1311.897217,3261.146240 1306.246582,3256.166016 1298.056396,3255.296387 
	C1290.844727,3254.530518 1283.421387,3254.137207 1276.253540,3254.971680 
	C1266.540039,3256.102783 1261.561401,3260.705322 1260.963013,3270.521240 
	C1260.014404,3286.084473 1260.072510,3301.758789 1260.686646,3317.347656 
	C1261.021362,3325.843506 1266.313599,3330.335938 1274.912964,3331.458984 
	C1279.506104,3332.058838 1284.204590,3331.853760 1290.709961,3331.994141 
z"/>
<path fill="currentColor" opacity="1.000000" stroke="none" 
	d="
M1469.990479,3269.907471 
	C1470.030518,3261.597412 1469.829468,3254.258789 1470.176147,3246.946045 
	C1470.555542,3238.940430 1472.667114,3236.374268 1480.288940,3236.267334 
	C1501.599976,3235.967041 1522.921265,3235.977295 1544.231812,3236.301758 
	C1551.235596,3236.408447 1553.906372,3239.920166 1553.706909,3246.439941 
	C1553.521851,3252.488770 1551.045410,3255.089844 1544.353516,3255.760010 
	C1541.050781,3256.090576 1537.699463,3255.979248 1534.369873,3255.991211 
	C1524.044312,3256.027832 1513.715820,3255.879883 1503.393799,3256.080322 
	C1492.177979,3256.298096 1489.096802,3259.887207 1490.193726,3270.821777 
	C1490.887085,3277.733154 1493.116943,3279.462158 1499.179565,3276.383301 
	C1511.368896,3270.192871 1523.728516,3271.309570 1536.175415,3274.627686 
	C1550.602539,3278.473389 1558.618042,3288.274902 1559.730591,3303.261230 
	C1560.123779,3308.558105 1560.103271,3313.933105 1559.713867,3319.231445 
	C1558.563232,3334.886963 1549.151367,3345.904541 1533.884521,3349.675781 
	C1521.421875,3352.754639 1508.764282,3352.482422 1496.132812,3351.188965 
	C1489.852783,3350.546143 1483.546387,3349.615234 1477.427979,3348.103271 
	C1471.862183,3346.727783 1470.763794,3343.929932 1471.846191,3337.262695 
	C1472.830566,3331.199463 1474.337036,3329.805908 1480.302856,3329.861816 
	C1482.623901,3329.883545 1484.936157,3330.396484 1487.261108,3330.515381 
	C1497.223389,3331.025635 1507.195557,3331.967285 1517.151733,3331.832764 
	C1534.737305,3331.595215 1543.446899,3316.183350 1535.320679,3300.463623 
	C1532.587280,3295.175781 1527.986572,3292.409180 1522.398193,3292.477051 
	C1512.798828,3292.593506 1503.199707,3293.406982 1493.621704,3294.189697 
	C1490.671753,3294.430908 1487.826538,3295.809814 1484.872437,3296.173096 
	C1476.621338,3297.187500 1471.267456,3293.095215 1470.361328,3284.863037 
	C1469.853271,3280.247559 1470.089600,3275.550537 1469.990479,3269.907471 
z"/>
<path fill="currentColor" opacity="1.000000" stroke="none" 
	d="
M1174.044189,3331.935059 
	C1184.695801,3331.945801 1194.355957,3331.901123 1204.014648,3332.003418 
	C1206.659424,3332.031250 1209.375854,3332.196777 1211.924561,3332.836426 
	C1216.108398,3333.886963 1217.607788,3337.129395 1217.565552,3341.183594 
	C1217.522705,3345.302979 1215.725586,3348.342285 1211.555908,3349.255127 
	C1208.981079,3349.818604 1206.270386,3349.941650 1203.619751,3349.948486 
	C1182.635132,3350.001465 1161.650269,3349.986572 1140.665527,3349.967529 
	C1138.670288,3349.965820 1136.669312,3349.857178 1134.681152,3349.682861 
	C1129.636475,3349.241211 1126.442749,3346.481201 1126.414429,3341.418701 
	C1126.368042,3333.123779 1126.134155,3324.713867 1127.351440,3316.557129 
	C1128.899170,3306.187256 1135.850342,3299.433105 1145.397095,3295.549805 
	C1156.190063,3291.159912 1167.118164,3287.103271 1177.935913,3282.772705 
	C1181.321777,3281.416992 1184.724243,3279.933838 1187.792847,3277.993164 
	C1192.473999,3275.032715 1194.077515,3270.414062 1193.363525,3265.005859 
	C1192.652344,3259.620361 1189.089966,3256.464600 1184.152100,3255.851074 
	C1176.947021,3254.955811 1169.608276,3254.511475 1162.358643,3254.770996 
	C1154.727783,3255.043945 1147.150024,3256.562500 1139.520264,3257.181152 
	C1132.880005,3257.719238 1129.832886,3255.464111 1128.400757,3249.763428 
	C1126.917358,3243.858398 1128.349365,3240.875977 1134.474731,3239.483398 
	C1154.169922,3235.004883 1174.139282,3234.148926 1193.986816,3237.727051 
	C1207.856323,3240.227539 1214.494751,3248.332520 1216.494629,3262.243652 
	C1218.534790,3276.436523 1213.505615,3288.456055 1202.056885,3294.686035 
	C1195.365845,3298.327148 1188.152222,3301.051514 1181.053467,3303.887451 
	C1173.944702,3306.727295 1166.599121,3308.982666 1159.535156,3311.921631 
	C1156.558594,3313.160400 1153.454346,3315.005127 1151.423096,3317.425781 
	C1145.979736,3323.912354 1148.749268,3330.749512 1157.079346,3331.601318 
	C1162.359863,3332.141357 1167.724976,3331.852783 1174.044189,3331.935059 
z"/>
<path fill="currentColor" opacity="1.000000" stroke="none" 
	d="
M1780.682861,3154.787354 
	C1776.837036,3151.953369 1777.476074,3149.292725 1780.038330,3146.899170 
	C1789.743652,3137.834229 1785.768921,3126.494629 1784.780884,3115.904297 
	C1784.588257,3113.841064 1780.135742,3110.686768 1777.547241,3110.584229 
	C1763.924438,3110.044189 1750.267944,3110.209229 1736.626343,3110.380859 
	C1732.122070,3110.437744 1728.787964,3112.982666 1728.563232,3117.653076 
	C1728.228638,3124.608643 1727.932739,3131.682129 1728.879761,3138.531006 
	C1729.313599,3141.669434 1732.728149,3144.404785 1734.819946,3147.302246 
	C1737.356812,3150.815918 1736.691528,3154.531250 1732.604248,3154.879395 
	C1724.743164,3155.549561 1716.724365,3155.450195 1708.872925,3154.657959 
	C1705.384033,3154.305908 1704.036499,3149.990479 1707.019653,3147.786621 
	C1714.828003,3142.018555 1713.964844,3133.992432 1713.978149,3126.045410 
	C1714.003174,3111.062256 1713.934570,3096.079346 1713.981689,3081.096191 
	C1714.001099,3074.935791 1713.004272,3069.561279 1708.097534,3064.854248 
	C1703.128662,3060.088379 1704.834229,3055.314453 1711.558960,3054.564209 
	C1717.795776,3053.868896 1724.226562,3053.891602 1730.469482,3054.558105 
	C1736.906616,3055.245361 1738.786133,3059.750488 1734.184570,3064.072754 
	C1726.008057,3071.753906 1728.087158,3081.099854 1728.520264,3090.234863 
	C1728.740601,3094.880859 1731.975708,3097.545654 1736.500610,3097.609375 
	C1750.141846,3097.801025 1763.789551,3097.818848 1777.430420,3097.616699 
	C1782.490601,3097.541748 1785.528564,3094.381348 1785.640625,3089.333496 
	C1785.842651,3080.230469 1788.248779,3070.719238 1779.472656,3063.400879 
	C1776.161133,3060.639648 1777.799194,3055.759277 1782.351074,3055.246582 
	C1790.199219,3054.362549 1798.250854,3054.313965 1806.124023,3054.993408 
	C1810.705322,3055.388428 1812.349609,3060.199951 1808.862793,3063.034668 
	C1801.463989,3069.049805 1801.970093,3076.879639 1801.984863,3084.874512 
	C1802.012695,3099.857666 1802.016357,3114.840576 1801.998291,3129.823730 
	C1801.990601,3136.241455 1802.482178,3142.125977 1807.871338,3147.065186 
	C1812.206665,3151.038818 1810.463867,3155.085938 1804.196655,3155.489990 
	C1796.612793,3155.979248 1788.952515,3155.281738 1780.682861,3154.787354 
z"/>
<path fill="currentColor" opacity="1.000000" stroke="none" 
	d="
M767.357483,3075.518066 
	C765.225952,3071.292969 763.341553,3067.836426 761.230164,3064.524902 
	C757.834106,3059.198486 759.083313,3055.265625 765.342896,3054.612305 
	C771.907776,3053.927246 778.670959,3053.948486 785.224976,3054.712158 
	C790.918091,3055.375977 792.479858,3059.987549 788.159912,3063.848633 
	C782.734070,3068.697998 781.971802,3074.450684 781.997925,3080.942871 
	C782.063538,3097.250000 782.117920,3113.559082 781.938110,3129.864502 
	C781.773315,3144.809570 777.146240,3151.020020 762.629517,3154.832275 
	C747.610046,3158.776367 732.395020,3159.218506 717.174194,3155.499756 
	C706.015564,3152.773926 698.831238,3146.380859 697.592163,3134.503662 
	C696.937805,3128.230225 696.199097,3121.938477 696.070007,3115.643311 
	C695.824341,3103.667236 695.953491,3091.682617 695.998779,3079.701904 
	C696.020752,3073.883301 695.033997,3068.833252 690.383301,3064.401123 
	C685.331421,3059.586914 687.007446,3055.207764 693.982178,3054.471436 
	C699.899719,3053.846680 705.983276,3053.850098 711.904419,3054.451660 
	C718.864441,3055.159180 720.878174,3059.390137 716.476196,3064.583008 
	C711.296997,3070.692871 709.870239,3077.582764 710.128296,3085.002930 
	C710.648193,3099.949219 711.318665,3114.898926 712.379517,3129.814941 
	C712.971863,3138.143311 716.349548,3141.491943 724.327881,3143.741943 
	C735.312561,3146.840088 746.250977,3145.218750 756.828064,3142.362793 
	C760.359375,3141.409180 763.670959,3137.339111 765.714966,3133.884277 
	C767.453491,3130.946289 767.754333,3126.847656 767.775391,3123.257080 
	C767.867004,3107.623047 767.624146,3091.987061 767.357483,3075.518066 
z"/>
<path fill="currentColor" opacity="1.000000" stroke="none" 
	d="
M1044.713867,3147.028320 
	C1036.773438,3132.077148 1036.450806,3117.136230 1040.768311,3101.881836 
	C1043.363403,3092.712891 1049.297241,3086.510986 1058.879272,3085.638428 
	C1068.393066,3084.772217 1078.200562,3084.083740 1087.575562,3085.430664 
	C1102.817627,3087.620850 1112.249268,3105.264160 1107.234009,3119.872803 
	C1106.002563,3123.459717 1103.450562,3125.414307 1099.856689,3125.597412 
	C1086.973633,3126.253906 1074.055908,3128.236572 1061.435425,3123.152832 
	C1054.895508,3120.518066 1052.092773,3123.269287 1053.289185,3130.361816 
	C1054.579224,3138.010254 1058.809937,3143.597412 1066.559570,3144.648438 
	C1073.371338,3145.572266 1080.405884,3144.802734 1087.340576,3144.891357 
	C1090.942749,3144.937256 1094.634399,3144.815186 1098.095825,3145.603516 
	C1099.434692,3145.908203 1100.826294,3148.425781 1101.100220,3150.113281 
	C1101.286865,3151.261719 1099.874146,3153.179932 1098.664429,3153.966553 
	C1086.546265,3161.848145 1056.274536,3158.182373 1044.713867,3147.028320 
z"/>
<path fill="currentColor" opacity="1.000000" stroke="none" 
	d="
M1431.990234,3120.010986 
	C1431.981934,3116.041260 1431.873047,3113.038574 1431.986206,3110.044434 
	C1432.223633,3103.757568 1431.077637,3098.140869 1425.507446,3094.180664 
	C1424.566528,3093.512207 1424.252075,3091.962158 1423.418579,3090.384766 
	C1424.694702,3089.177979 1425.780762,3087.239258 1426.982422,3087.164795 
	C1433.906982,3086.735840 1440.898926,3086.246338 1447.787231,3086.793945 
	C1452.108032,3087.137207 1453.669189,3090.722412 1450.904663,3093.970947 
	C1445.809814,3099.957275 1445.986328,3106.784424 1445.991577,3113.784180 
	C1446.000122,3125.446045 1446.003784,3137.108154 1445.999023,3148.770020 
	C1445.998169,3151.102295 1445.998413,3153.436035 1445.916748,3155.766357 
	C1445.080933,3179.605957 1435.009033,3188.958984 1411.238159,3187.689941 
	C1405.931763,3187.406494 1400.575317,3186.763184 1395.422852,3185.529541 
	C1393.324707,3185.027344 1390.462402,3182.726318 1390.138428,3180.862793 
	C1389.497192,3177.175049 1392.704956,3175.807373 1396.001099,3175.772461 
	C1402.994751,3175.698242 1410.006470,3176.138184 1416.981567,3175.788086 
	C1427.459961,3175.262451 1432.611206,3169.024902 1431.707520,3158.675537 
	C1431.138062,3152.155029 1428.364990,3150.344482 1422.481201,3152.723877 
	C1421.253052,3153.220215 1420.147217,3154.010742 1418.947632,3154.588135 
	C1402.320679,3162.589355 1386.659058,3154.341553 1384.615356,3136.107910 
	C1383.765625,3128.526611 1384.131836,3120.805420 1384.018188,3113.146729 
	C1383.919312,3106.489258 1384.315918,3099.846924 1379.221313,3094.329102 
	C1376.760986,3091.664307 1377.193970,3088.011719 1380.944580,3087.198486 
	C1389.281006,3085.390869 1397.803223,3084.422363 1405.928833,3088.505859 
	C1405.707520,3090.365234 1405.961426,3091.791504 1405.423218,3092.218018 
	C1397.920898,3098.161865 1397.646606,3106.374268 1397.992188,3114.866211 
	C1398.235962,3120.854248 1397.891602,3126.894287 1398.538818,3132.831543 
	C1399.420044,3140.915527 1403.341064,3144.459473 1411.441040,3145.608154 
	C1412.756836,3145.794678 1414.095581,3145.845703 1415.426270,3145.895752 
	C1428.955322,3146.402344 1431.734985,3143.731689 1431.964600,3129.978271 
	C1432.014648,3126.980225 1431.983887,3123.980713 1431.990234,3120.010986 
z"/>
<path fill="currentColor" opacity="1.000000" stroke="none" 
	d="
M1889.849487,3155.771973 
	C1884.426392,3154.806396 1865.340942,3156.169189 1859.344971,3156.956787 
	C1853.802856,3157.684814 1847.979370,3157.940430 1842.488525,3157.076660 
	C1825.365112,3154.384033 1817.746948,3137.435547 1826.369873,3122.201172 
	C1829.022705,3117.514404 1833.029663,3114.587158 1838.221191,3113.935303 
	C1845.790771,3112.985107 1853.432007,3112.600586 1861.045166,3112.005127 
	C1864.686646,3111.720215 1868.449341,3111.986572 1871.950684,3111.144775 
	C1877.080322,3109.911621 1878.655884,3104.791260 1874.704834,3101.298340 
	C1871.915405,3098.832031 1867.854004,3096.929443 1864.174194,3096.541504 
	C1857.947754,3095.884766 1851.572021,3096.572510 1845.263184,3096.803955 
	C1842.608887,3096.901123 1839.959961,3097.516602 1837.317261,3097.464355 
	C1833.905273,3097.396973 1829.797241,3096.775635 1830.170166,3092.523682 
	C1830.347900,3090.495361 1833.767822,3087.473145 1836.051880,3087.132324 
	C1845.229858,3085.764404 1854.612183,3084.097168 1863.783203,3084.679688 
	C1886.836060,3086.143555 1891.857300,3092.139648 1891.991333,3115.347900 
	C1892.027832,3121.675049 1891.599854,3128.043213 1892.199829,3134.314697 
	C1892.595459,3138.448730 1893.902100,3142.716797 1895.767334,3146.440674 
	C1899.180420,3153.255371 1899.297241,3153.440674 1889.849487,3155.771973 
M1871.030151,3144.624268 
	C1877.323120,3140.121338 1879.499390,3134.127930 1877.113892,3127.804688 
	C1874.834473,3121.762451 1869.563721,3121.968262 1864.615234,3122.231201 
	C1859.005737,3122.529541 1853.394165,3123.222168 1847.845215,3124.123291 
	C1840.810669,3125.265381 1838.288940,3128.245117 1838.370483,3134.524170 
	C1838.455811,3141.088379 1841.624023,3145.064453 1848.616821,3145.520020 
	C1855.508667,3145.969482 1862.474976,3145.275391 1871.030151,3144.624268 
z"/>
<path fill="currentColor" opacity="1.000000" stroke="none" 
	d="
M835.601807,3091.872070 
	C838.920410,3090.483643 841.588867,3089.146484 844.255920,3087.806641 
	C853.985718,3082.917969 863.695496,3084.109863 873.211548,3088.265137 
	C878.509949,3090.578613 881.273193,3095.399170 882.257446,3100.769531 
	C883.330200,3106.622803 883.736084,3112.641602 883.922668,3118.604492 
	C884.281860,3130.084229 882.021362,3141.967041 890.607910,3151.524414 
	C882.808716,3157.364502 870.572510,3157.584229 862.381287,3152.610840 
	C862.381287,3151.967529 862.097412,3151.061768 862.422302,3150.693359 
	C875.353516,3136.041992 869.878296,3119.545898 866.987305,3103.415283 
	C866.641418,3101.485107 864.476196,3099.135986 862.586487,3098.355225 
	C853.886047,3094.760254 844.867920,3094.805908 836.545776,3099.118164 
	C834.266296,3100.299316 832.555786,3104.551025 832.397583,3107.491455 
	C831.879089,3117.125977 832.194031,3126.805664 832.191528,3136.468018 
	C832.190308,3141.214600 834.900757,3144.330078 838.097717,3147.520264 
	C841.358398,3150.774170 840.581848,3154.510498 836.496155,3154.953125 
	C829.619690,3155.697754 822.570435,3155.635498 815.668884,3155.041992 
	C811.995117,3154.725830 810.610779,3151.248779 813.180664,3148.328369 
	C818.372925,3142.427979 817.988220,3135.469482 818.004761,3128.479736 
	C818.018188,3122.813965 817.984558,3117.148438 818.005737,3111.482666 
	C818.028381,3105.434326 817.613770,3099.755371 813.480591,3094.554443 
	C810.141724,3090.353271 811.961304,3086.772217 817.434326,3086.533203 
	C821.207275,3086.368408 825.116028,3087.732178 828.847900,3088.813965 
	C831.001709,3089.438232 832.924377,3090.859619 835.601807,3091.872070 
z"/>
<path fill="currentColor" opacity="1.000000" stroke="none" 
	d="
M1204.013550,3144.340332 
	C1212.163452,3144.851562 1219.477783,3145.827148 1226.746582,3145.561035 
	C1230.458740,3145.425049 1234.705811,3143.841064 1237.619751,3141.533447 
	C1242.634888,3137.561523 1241.107544,3131.080078 1234.983398,3129.157471 
	C1231.877808,3128.182617 1228.421387,3128.323486 1225.123413,3127.962402 
	C1218.514526,3127.238770 1211.831787,3126.912598 1205.313843,3125.700928 
	C1195.723755,3123.917969 1190.831787,3117.565918 1190.323242,3107.363037 
	C1189.833740,3097.543457 1194.446777,3089.997070 1203.311890,3087.200684 
	C1216.371948,3083.080811 1229.647095,3083.530518 1242.729370,3086.991699 
	C1245.001221,3087.592773 1248.095703,3090.777344 1248.157959,3092.848389 
	C1248.286499,3097.118164 1244.187134,3097.569092 1240.752319,3097.405762 
	C1234.110718,3097.089844 1227.485718,3096.313232 1220.843872,3096.158203 
	C1217.573242,3096.082031 1213.865112,3096.184082 1211.118652,3097.642822 
	C1208.567261,3098.998291 1206.039917,3101.996582 1205.293823,3104.755859 
	C1204.318970,3108.361328 1207.269409,3111.137207 1210.704956,3112.018799 
	C1214.848633,3113.082275 1219.184692,3113.439941 1223.455444,3113.953613 
	C1229.056519,3114.626953 1234.813965,3114.574463 1240.255249,3115.875000 
	C1249.419067,3118.065186 1255.130249,3125.253906 1255.304443,3133.485840 
	C1255.520752,3143.716553 1250.871460,3151.361816 1241.765625,3154.598633 
	C1227.467163,3159.680420 1212.888550,3158.677002 1198.439331,3155.336426 
	C1196.428101,3154.871338 1193.723022,3151.984375 1193.650024,3150.127686 
	C1193.581177,3148.373535 1196.322998,3146.162354 1198.281250,3144.805420 
	C1199.459961,3143.988525 1201.503906,3144.419922 1204.013550,3144.340332 
z"/>
<path fill="currentColor" opacity="1.000000" stroke="none" 
	d="
M1567.718994,3154.491699 
	C1556.983276,3155.018066 1546.989014,3156.019043 1537.102173,3155.374023 
	C1526.094116,3154.656006 1520.211548,3148.987061 1517.764648,3138.309326 
	C1515.051392,3126.469727 1515.052612,3114.492188 1518.016235,3102.690918 
	C1520.732422,3091.875732 1526.644653,3086.903809 1537.780762,3086.259277 
	C1545.740723,3085.798584 1553.765381,3085.809570 1561.729248,3086.224121 
	C1573.289551,3086.825439 1579.338745,3092.334473 1581.694458,3103.519531 
	C1584.055908,3114.732910 1584.176636,3125.890137 1581.888306,3137.201660 
	C1580.238525,3145.356934 1576.760132,3151.531738 1567.718994,3154.491699 
M1568.338379,3109.152588 
	C1564.954712,3099.186035 1561.900757,3096.670654 1552.106812,3096.231201 
	C1549.134766,3096.097900 1546.093384,3096.210938 1543.163330,3096.694092 
	C1535.436157,3097.967773 1531.881226,3101.176270 1530.828491,3108.909668 
	C1530.026123,3114.803467 1529.969360,3120.857666 1530.180542,3126.819092 
	C1530.712158,3141.817383 1535.531738,3146.178223 1550.623047,3145.922363 
	C1551.952637,3145.899414 1553.289185,3145.879883 1554.608276,3145.731201 
	C1562.523804,3144.839844 1566.549194,3142.175293 1567.739014,3134.458984 
	C1568.935181,3126.701416 1568.436646,3118.682617 1568.338379,3109.152588 
z"/>
<path fill="currentColor" opacity="1.000000" stroke="none" 
	d="
M975.242554,3118.716309 
	C977.581116,3125.795898 979.424744,3132.215576 981.885925,3138.389404 
	C982.758423,3140.578125 985.575745,3143.947754 986.732483,3143.661133 
	C989.161072,3143.059082 992.223511,3140.787109 993.011597,3138.505127 
	C997.026978,3126.878662 1000.661621,3115.099609 1003.808655,3103.209473 
	C1004.570557,3100.330811 1003.318054,3096.728760 1002.390564,3093.639648 
	C1001.093201,3089.318848 1002.841858,3086.905273 1006.786133,3086.558105 
	C1011.716064,3086.123535 1016.787842,3086.038086 1021.671875,3086.714844 
	C1026.102783,3087.329346 1027.783447,3090.894043 1024.994629,3093.832764 
	C1017.207764,3102.038086 1015.822571,3112.874023 1012.129089,3122.745361 
	C1009.214172,3130.536133 1006.639709,3138.462891 1004.169922,3146.408936 
	C1002.085205,3153.115967 997.683838,3156.158936 990.786377,3155.928711 
	C988.458557,3155.851074 986.126953,3155.866455 983.797180,3155.874268 
	C977.285034,3155.895752 973.253662,3152.726318 971.239258,3146.558594 
	C967.518555,3135.166016 963.637390,3123.825928 959.821960,3112.464355 
	C957.601868,3105.853271 955.637085,3099.290283 950.029663,3094.282471 
	C946.335999,3090.983887 947.649048,3087.238037 952.610535,3086.645996 
	C958.167969,3085.982910 963.891724,3086.203125 969.496704,3086.637939 
	C972.931580,3086.904053 975.455994,3089.575439 973.520874,3092.948486 
	C968.450195,3101.786621 972.842407,3109.737549 975.242554,3118.716309 
z"/>
<path fill="currentColor" opacity="1.000000" stroke="none" 
	d="
M1613.005127,3058.854248 
	C1621.145386,3053.493408 1629.291992,3053.126221 1637.482300,3055.959961 
	C1639.453125,3056.641602 1640.662109,3059.525146 1642.221313,3061.396484 
	C1640.525269,3062.756104 1639.015381,3064.594482 1637.083008,3065.345947 
	C1634.993042,3066.158691 1632.490601,3065.846924 1630.199707,3066.219238 
	C1623.427612,3067.319580 1620.526733,3070.459961 1620.452148,3076.599121 
	C1620.380981,3082.465820 1622.639038,3084.734375 1629.732910,3085.877197 
	C1632.022827,3086.246338 1634.521362,3086.120117 1636.551025,3087.042236 
	C1638.070923,3087.733398 1639.976074,3089.790771 1639.908081,3091.149414 
	C1639.837646,3092.557861 1637.797241,3094.208008 1636.243652,3095.098145 
	C1634.899536,3095.868408 1633.031372,3095.729248 1631.392944,3095.979004 
	C1621.713623,3097.454590 1620.405518,3098.820068 1620.097046,3108.756592 
	C1619.901123,3115.064697 1620.033325,3121.383301 1620.015381,3127.697021 
	C1619.994629,3135.040527 1619.736206,3142.181885 1626.692261,3147.515869 
	C1629.982178,3150.038574 1628.662598,3154.399658 1624.496582,3154.864014 
	C1617.648071,3155.627686 1610.629639,3155.481445 1603.737305,3154.976318 
	C1600.343018,3154.727783 1597.892334,3151.213379 1600.296143,3148.436523 
	C1608.019897,3139.515137 1605.539429,3129.003418 1605.988159,3118.916260 
	C1606.120850,3115.931885 1605.934326,3112.934326 1605.994629,3109.945068 
	C1606.121338,3103.672852 1605.133301,3098.402344 1598.578979,3095.010986 
	C1594.127930,3092.707764 1594.242310,3089.270752 1598.906250,3086.805908 
	C1604.524780,3083.836670 1605.373779,3079.176025 1606.617310,3073.844971 
	C1607.786499,3068.833008 1610.423828,3064.163574 1613.005127,3058.854248 
z"/>
<path fill="currentColor" opacity="1.000000" stroke="none" 
	d="
M1331.095215,3067.167969 
	C1339.951172,3067.749023 1340.825195,3067.913818 1341.685425,3074.945557 
	C1342.566528,3082.146484 1345.744141,3085.869629 1353.013672,3086.095703 
	C1354.315063,3086.135986 1355.922119,3086.268799 1356.820557,3087.029541 
	C1358.185059,3088.183838 1359.656738,3089.831055 1359.909912,3091.452148 
	C1360.066650,3092.455322 1358.263916,3094.396240 1356.963867,3094.859619 
	C1354.505615,3095.736084 1351.786743,3095.939453 1349.156494,3096.263916 
	C1343.733154,3096.932861 1340.525024,3099.953125 1340.398560,3105.363770 
	C1340.173706,3114.992676 1339.961548,3124.653564 1340.501953,3134.258057 
	C1340.918213,3141.656982 1343.461548,3143.911377 1350.655151,3145.813232 
	C1354.350098,3146.790039 1359.973633,3146.389160 1359.509766,3151.716064 
	C1359.030151,3157.223145 1353.146729,3156.720703 1349.108765,3157.195312 
	C1337.235107,3158.590088 1328.675537,3152.576172 1327.113770,3140.784424 
	C1325.898804,3131.612305 1326.125488,3122.225830 1326.061768,3112.932129 
	C1326.007690,3105.060059 1326.256470,3097.604004 1316.382080,3094.662354 
	C1312.791870,3093.592529 1312.501709,3088.710938 1315.703735,3087.793457 
	C1324.568481,3085.253174 1325.854736,3078.397461 1327.234009,3071.062744 
	C1327.490234,3069.700195 1329.301147,3068.630371 1331.095215,3067.167969 
z"/>
<path fill="currentColor" opacity="1.000000" stroke="none" 
	d="
M1980.010010,3109.996582 
	C1980.006714,3099.665771 1979.983765,3090.333984 1980.006592,3081.001953 
	C1980.022217,3074.619385 1979.654907,3068.601074 1975.225586,3063.142822 
	C1971.826416,3058.953857 1973.550415,3055.793213 1978.781616,3054.524170 
	C1988.316162,3052.211914 1993.697388,3056.013672 1993.861328,3065.970947 
	C1994.152100,3083.630371 1993.906738,3101.298096 1994.037720,3118.961182 
	C1994.122192,3130.366699 1991.321411,3142.554199 2002.762817,3150.636475 
	C1996.074707,3157.384766 1982.884155,3157.935547 1973.826172,3152.227783 
	C1974.308594,3150.840332 1974.447632,3149.003174 1975.419556,3147.898926 
	C1979.233887,3143.563965 1980.033447,3138.459961 1979.993042,3132.991943 
	C1979.938721,3125.659912 1979.999023,3118.327637 1980.010010,3109.996582 
z"/>
<path fill="currentColor" opacity="1.000000" stroke="none" 
	d="
M1153.306885,3090.908691 
	C1157.879517,3088.829834 1161.694092,3086.633789 1165.801392,3085.480225 
	C1168.511963,3084.718750 1171.963013,3084.700439 1174.483398,3085.766113 
	C1176.432251,3086.590332 1178.627197,3089.659424 1178.547974,3091.644043 
	C1178.471558,3093.563721 1175.912231,3096.498291 1173.940308,3096.996582 
	C1169.827515,3098.036377 1165.386353,3097.867920 1161.073975,3098.008789 
	C1148.242310,3098.428955 1146.291382,3100.368652 1146.046997,3113.487061 
	C1145.953979,3118.479492 1146.180542,3123.481934 1145.976685,3128.468018 
	C1145.654663,3136.341309 1146.149902,3143.810547 1153.147095,3149.153076 
	C1153.759033,3149.620605 1153.701416,3150.964844 1154.095459,3152.420898 
	C1152.884766,3153.329102 1151.674316,3155.010742 1150.378052,3155.079590 
	C1143.765259,3155.430664 1137.091064,3155.833740 1130.516846,3155.282959 
	C1126.022095,3154.906494 1124.508545,3151.674316 1127.297119,3148.272949 
	C1132.011230,3142.522705 1131.995972,3136.056641 1132.003174,3129.385986 
	C1132.009521,3123.392822 1131.978271,3117.399902 1132.005859,3111.406738 
	C1132.033813,3105.357666 1131.579590,3099.693604 1127.443115,3094.509277 
	C1124.145020,3090.375977 1126.126953,3086.520508 1131.448608,3086.571533 
	C1135.173950,3086.607178 1139.239868,3087.953613 1142.497803,3089.844482 
	C1145.948120,3091.847168 1148.932739,3093.180176 1153.306885,3090.908691 
z"/>
<path fill="currentColor" opacity="1.000000" stroke="none" 
	d="
M935.503418,3149.452637 
	C936.329956,3153.545410 934.210266,3155.242432 931.321350,3155.404297 
	C925.357971,3155.738525 919.319275,3156.043213 913.399231,3155.463867 
	C907.717834,3154.907715 906.219238,3151.481445 910.048462,3147.460938 
	C915.182739,3142.069580 916.031677,3135.843506 915.975220,3129.049805 
	C915.930908,3123.721436 915.923218,3118.392090 915.978333,3113.063965 
	C916.048706,3106.258057 915.194580,3100.065186 909.856873,3094.779541 
	C906.010376,3090.970947 907.634277,3087.677979 913.043640,3086.415527 
	C924.228882,3083.806152 929.676086,3087.808105 929.902954,3099.207275 
	C930.128296,3110.526367 930.114319,3121.854004 929.979553,3133.175293 
	C929.909119,3139.094727 931.283081,3144.364502 935.503418,3149.452637 
z"/>
<path fill="currentColor" opacity="1.000000" stroke="none" 
	d="
M1935.912109,3108.725586 
	C1935.990234,3102.472168 1933.644287,3098.468018 1929.877075,3094.675781 
	C1926.342529,3091.118164 1927.462158,3087.560791 1932.226929,3086.725342 
	C1943.667114,3084.719971 1950.363770,3086.416504 1950.016113,3099.367920 
	C1949.721313,3110.354980 1950.001709,3121.357178 1950.009155,3132.352783 
	C1950.012817,3137.750488 1950.705078,3142.738281 1954.136719,3147.415527 
	C1957.506836,3152.008789 1956.136719,3154.913574 1950.509888,3155.490234 
	C1944.915039,3156.063477 1939.161865,3156.101562 1933.576172,3155.485596 
	C1927.388062,3154.803467 1926.013916,3151.125732 1930.560669,3146.969238 
	C1935.056763,3142.858887 1935.987305,3138.092041 1935.964355,3132.616211 
	C1935.932373,3124.952637 1935.946289,3117.289307 1935.912109,3108.725586 
z"/>
<path fill="currentColor" opacity="1.000000" stroke="none" 
	d="
M1280.003662,3129.686035 
	C1280.002441,3122.739258 1279.978638,3116.741211 1279.999756,3110.743164 
	C1280.019897,3105.016357 1279.457275,3099.692627 1275.634521,3094.770264 
	C1272.234863,3090.392822 1273.823975,3087.516113 1279.186523,3086.388916 
	C1288.797363,3084.369385 1293.632202,3088.112793 1293.889282,3098.343262 
	C1294.165527,3109.333008 1294.040649,3120.334229 1294.013306,3131.330322 
	C1293.998047,3137.464355 1294.359253,3143.240723 1300.014648,3147.416016 
	C1302.899292,3149.545898 1303.367432,3153.442383 1299.512817,3154.491699 
	C1290.978271,3156.814697 1282.195923,3157.609375 1273.090942,3152.761963 
	C1277.205200,3145.270508 1281.342529,3138.690918 1280.003662,3129.686035 
z"/>
</svg>