<?xml version="1.0" encoding="UTF-8"?>
<svg version="1.1" viewBox="0 0 293.33 293.33" xmlns="http://www.w3.org/2000/svg">
<defs>
<clipPath id="ag">
<path transform="translate(-139.26 -201.53)" d="m0 294h294v-294h-294z"/>
</clipPath>
<clipPath id="v">
<path transform="translate(-149.3 -206.8)" d="m0 294h294v-294h-294z"/>
</clipPath>
<clipPath id="k">
<path transform="translate(-149.83 -210.17)" d="m0 294h294v-294h-294z"/>
</clipPath>
<clipPath id="ct">
<path transform="translate(-168.33 -203)" d="m0 294h294v-294h-294z"/>
</clipPath>
<clipPath id="ci">
<path transform="translate(-159.46 -197.74)" d="m0 294h294v-294h-294z"/>
</clipPath>
<clipPath id="bx">
<path transform="translate(-167.09 -206.05)" d="m0 294h294v-294h-294z"/>
</clipPath>
<clipPath id="bm">
<path transform="translate(-186.48 -188.47)" d="m0 294h294v-294h-294z"/>
</clipPath>
<clipPath id="bb">
<path transform="translate(-184.65 -198.59)" d="m0 294h294v-294h-294z"/>
</clipPath>
<clipPath id="aq">
<path transform="translate(-187.62 -196.47)" d="m0 294h294v-294h-294z"/>
</clipPath>
<clipPath id="ap">
<path transform="translate(-182.46 -195.33)" d="m0 294h294v-294h-294z"/>
</clipPath>
<clipPath id="ao">
<path transform="translate(-135.04 -208.9)" d="m0 294h294v-294h-294z"/>
</clipPath>
<clipPath id="an">
<path transform="translate(-125.45 -194.07)" d="m0 294h294v-294h-294z"/>
</clipPath>
<clipPath id="am">
<path transform="translate(-128.41 -195.54)" d="m0 294h294v-294h-294z"/>
</clipPath>
<clipPath id="al">
<path transform="translate(-135.59 -202.37)" d="m0 294h294v-294h-294z"/>
</clipPath>
<clipPath id="ak">
<path transform="translate(-107.35 -184.91)" d="m0 294h294v-294h-294z"/>
</clipPath>
<clipPath id="aj">
<path transform="translate(-98.555 -189.54)" d="m0 294h294v-294h-294z"/>
</clipPath>
<clipPath id="ai">
<path transform="translate(-99.689 -188.58)" d="m0 294h294v-294h-294z"/>
</clipPath>
<clipPath id="ah">
<path transform="translate(-137.04 -238.59)" d="m0 294h294v-294h-294z"/>
</clipPath>
<clipPath id="af">
<path transform="translate(-166.51 -238.9)" d="m0 294h294v-294h-294z"/>
</clipPath>
<clipPath id="ae">
<path transform="translate(-210.81 -199.95)" d="m0 294h294v-294h-294z"/>
</clipPath>
<clipPath id="ad">
<path transform="translate(-86.502 -202.28)" d="m0 294h294v-294h-294z"/>
</clipPath>
<clipPath id="ac">
<path transform="translate(-119.17 -235.53)" d="m0 294h294v-294h-294z"/>
</clipPath>
<clipPath id="ab">
<path transform="translate(-120.24 -232.27)" d="m0 294h294v-294h-294z"/>
</clipPath>
<clipPath id="aa">
<path transform="translate(-128.82 -220.8)" d="m0 294h294v-294h-294z"/>
</clipPath>
<clipPath id="z">
<path transform="translate(-66.557 -161.43)" d="m0 294h294v-294h-294z"/>
</clipPath>
<clipPath id="y">
<path transform="translate(-109.28 -222.58)" d="m0 294h294v-294h-294z"/>
</clipPath>
<clipPath id="x">
<path transform="translate(-88.484 -207.52)" d="m0 294h294v-294h-294z"/>
</clipPath>
<clipPath id="w">
<path transform="translate(-100.82 -226.17)" d="m0 294h294v-294h-294z"/>
</clipPath>
<clipPath id="u">
<path transform="translate(-169.66 -233.74)" d="m0 294h294v-294h-294z"/>
</clipPath>
<clipPath id="t">
<path transform="translate(-57.297 -156.9)" d="m0 294h294v-294h-294z"/>
</clipPath>
<clipPath id="s">
<path transform="translate(-202.09 -208.9)" d="m0 294h294v-294h-294z"/>
</clipPath>
<clipPath id="r">
<path transform="translate(-225.52 -154.9)" d="m0 294h294v-294h-294z"/>
</clipPath>
<clipPath id="q">
<path transform="translate(-235.17 -159.64)" d="m0 294h294v-294h-294z"/>
</clipPath>
<clipPath id="p">
<path transform="translate(-222.44 -202.06)" d="m0 294h294v-294h-294z"/>
</clipPath>
<clipPath id="o">
<path transform="translate(-225.5 -197.74)" d="m0 294h294v-294h-294z"/>
</clipPath>
<clipPath id="n">
<path transform="translate(-228.36 -172.9)" d="m0 294h294v-294h-294z"/>
</clipPath>
<clipPath id="m">
<path transform="translate(-77.823 -191.53)" d="m0 294h294v-294h-294z"/>
</clipPath>
<clipPath id="l">
<path transform="translate(-219.91 -88.449)" d="m0 294h294v-294h-294z"/>
</clipPath>
<clipPath id="j">
<path transform="translate(-227.14 -144.79)" d="m0 294h294v-294h-294z"/>
</clipPath>
<clipPath id="i">
<path transform="translate(-236.96 -117.43)" d="m0 294h294v-294h-294z"/>
</clipPath>
<clipPath id="h">
<path transform="translate(-241.2 -136.95)" d="m0 294h294v-294h-294z"/>
</clipPath>
<clipPath id="g">
<path transform="translate(-230.02 -101.07)" d="m0 294h294v-294h-294z"/>
</clipPath>
<clipPath id="f">
<path transform="translate(-227.31 -123.44)" d="m0 294h294v-294h-294z"/>
</clipPath>
<clipPath id="e">
<path transform="translate(-213.7 -115.28)" d="m0 294h294v-294h-294z"/>
</clipPath>
<clipPath id="d">
<path transform="translate(-233.54 -129.23)" d="m0 294h294v-294h-294z"/>
</clipPath>
<clipPath id="c">
<path transform="translate(-74.138 -138.58)" d="m0 294h294v-294h-294z"/>
</clipPath>
<clipPath id="b">
<path transform="translate(-74.632 -136.06)" d="m0 294h294v-294h-294z"/>
</clipPath>
<clipPath id="a">
<path transform="translate(-53.581 -137.11)" d="m0 294h294v-294h-294z"/>
</clipPath>
<clipPath id="cs">
<path transform="translate(-65.265 -120.9)" d="m0 294h294v-294h-294z"/>
</clipPath>
<clipPath id="cr">
<path transform="translate(-193.44 -89.319)" d="m0 294h294v-294h-294z"/>
</clipPath>
<clipPath id="cq">
<path transform="translate(-143.33 -54.267)" d="m0 294h294v-294h-294z"/>
</clipPath>
<clipPath id="cp">
<path transform="translate(-189.35 -64.059)" d="m0 294h294v-294h-294z"/>
</clipPath>
<clipPath id="co">
<path transform="translate(-151.09 -61.846)" d="m0 294h294v-294h-294z"/>
</clipPath>
<clipPath id="cn">
<path transform="translate(-161.38 -64.896)" d="m0 294h294v-294h-294z"/>
</clipPath>
<clipPath id="cm">
<path transform="translate(-171.24 -55.634)" d="m0 294h294v-294h-294z"/>
</clipPath>
<clipPath id="cl">
<path transform="translate(-201.45 -69.424)" d="m0 294h294v-294h-294z"/>
</clipPath>
<clipPath id="ck">
<path transform="translate(-197.38 -66.688)" d="m0 294h294v-294h-294z"/>
</clipPath>
<clipPath id="cj">
<path transform="translate(-176.05 -56.998)" d="m0 294h294v-294h-294z"/>
</clipPath>
<clipPath id="ch">
<path transform="translate(-214.86 -80.897)" d="m0 294h294v-294h-294z"/>
</clipPath>
<clipPath id="cg">
<path transform="translate(-176.75 -68.788)" d="m0 294h294v-294h-294z"/>
</clipPath>
<clipPath id="cf">
<path transform="translate(-118.4 -72.588)" d="m0 294h294v-294h-294z"/>
</clipPath>
<clipPath id="ce">
<path transform="translate(-93.608 -96.796)" d="m0 294h294v-294h-294z"/>
</clipPath>
<clipPath id="cd">
<path transform="translate(-98.083 -66.263)" d="m0 294h294v-294h-294z"/>
</clipPath>
<clipPath id="cc">
<path transform="translate(-122.06 -55.844)" d="m0 294h294v-294h-294z"/>
</clipPath>
<clipPath id="cb">
<path transform="translate(-106.58 -74.164)" d="m0 294h294v-294h-294z"/>
</clipPath>
<clipPath id="ca">
<path transform="translate(-122.41 -77.629)" d="m0 294h294v-294h-294z"/>
</clipPath>
<clipPath id="bz">
<path transform="translate(-100.11 -90.482)" d="m0 294h294v-294h-294z"/>
</clipPath>
<clipPath id="by">
<path transform="translate(-95.451 -94.792)" d="m0 294h294v-294h-294z"/>
</clipPath>
<clipPath id="bw">
<path transform="translate(-135.51 -74.269)" d="m0 294h294v-294h-294z"/>
</clipPath>
<clipPath id="bv">
<path transform="translate(-101.67 -89.099)" d="m0 294h294v-294h-294z"/>
</clipPath>
<clipPath id="bu">
<path transform="translate(-67.167 -110.59)" d="m0 294h294v-294h-294z"/>
</clipPath>
<clipPath id="bt">
<path transform="translate(-66.055 -99.207)" d="m0 294h294v-294h-294z"/>
</clipPath>
<clipPath id="bs">
<path transform="translate(-71.029 -94.376)" d="m0 294h294v-294h-294z"/>
</clipPath>
<clipPath id="br">
<path transform="translate(-68.499 -115.21)" d="m0 294h294v-294h-294z"/>
</clipPath>
<clipPath id="bq">
<path transform="translate(-142.82 -182.69)" d="m0 294h294v-294h-294z"/>
</clipPath>
<clipPath id="bp">
<path transform="translate(-143.46 -175.43)" d="m0 294h294v-294h-294z"/>
</clipPath>
<clipPath id="bo">
<path transform="translate(-143.72 -184.16)" d="m0 294h294v-294h-294z"/>
</clipPath>
<clipPath id="bn">
<path transform="translate(-138.56 -189.95)" d="m0 294h294v-294h-294z"/>
</clipPath>
<clipPath id="bl">
<path transform="translate(-143.83 -183.22)" d="m0 294h294v-294h-294z"/>
</clipPath>
<clipPath id="bk">
<path transform="translate(-144.49 -175.74)" d="m0 294h294v-294h-294z"/>
</clipPath>
<clipPath id="bj">
<path transform="translate(-153.04 -182.69)" d="m0 294h294v-294h-294z"/>
</clipPath>
<clipPath id="bi">
<path transform="translate(-152.41 -175.43)" d="m0 294h294v-294h-294z"/>
</clipPath>
<clipPath id="bh">
<path transform="translate(-152.14 -184.16)" d="m0 294h294v-294h-294z"/>
</clipPath>
<clipPath id="bg">
<path transform="translate(-157.3 -189.95)" d="m0 294h294v-294h-294z"/>
</clipPath>
<clipPath id="bf">
<path transform="translate(-152.04 -183.22)" d="m0 294h294v-294h-294z"/>
</clipPath>
<clipPath id="be">
<path transform="translate(-151.43 -175.74)" d="m0 294h294v-294h-294z"/>
</clipPath>
<clipPath id="bd">
<path transform="translate(-142.93 -117.52)" d="m0 294h294v-294h-294z"/>
</clipPath>
<clipPath id="bc">
<path transform="translate(-160.88 -124.69)" d="m0 294h294v-294h-294z"/>
</clipPath>
<clipPath id="ba">
<path transform="translate(-170.45 -124.59)" d="m0 294h294v-294h-294z"/>
</clipPath>
<clipPath id="az">
<path transform="translate(-170.45 -124.79)" d="m0 294h294v-294h-294z"/>
</clipPath>
<clipPath id="ay">
<path transform="translate(-183.02 -124.59)" d="m0 294h294v-294h-294z"/>
</clipPath>
<clipPath id="ax">
<path transform="translate(-182.98 -124.69)" d="m0 294h294v-294h-294z"/>
</clipPath>
<clipPath id="aw">
<path transform="translate(-173.92 -124.59)" d="m0 294h294v-294h-294z"/>
</clipPath>
<clipPath id="av">
<path transform="translate(-116.87 -120.05)" d="m0 294h294v-294h-294z"/>
</clipPath>
<clipPath id="au">
<path transform="translate(-130.15 -119.11)" d="m0 294h294v-294h-294z"/>
</clipPath>
<clipPath id="at">
<path transform="translate(-127.85 -124.26)" d="m0 294h294v-294h-294z"/>
</clipPath>
<clipPath id="as">
<path transform="translate(-115.24 -117.85)" d="m0 294h294v-294h-294z"/>
</clipPath>
<clipPath id="ar">
<path transform="translate(-147.54 -94.583)" d="m0 294h294v-294h-294z"/>
</clipPath>
</defs>
<g transform="translate(-49.334 -49.333)" fill="#00823e">
<path transform="matrix(1.3333 0 0 -1.3333 308.87 252.59)" d="m0 0-18.64 9.267-0.602-1.372 18.45-9.68z"/>
<path transform="matrix(1.3333 0 0 -1.3333 333.04 252.28)" d="m0 0-61.179-61.053h-84.249l-60.198 60.209 0.058 85.478 60.263 60.629h85.402l59.741-59.678zm-57.208 152.21h-91.149l-64.424-64.419v-91.154l64.424-64.427h91.149l64.427 64.427v91.154z"/>
<path transform="matrix(1.3333 0 0 -1.3333 185.68 123.29)" d="m0 0c2.483 0.324 3.985 0.632 6.963 0.632v1.576c-0.028 1.9-0.897 2.838-3.196 2.742 0 0-1.54-0.429-2.043 0.319 0 0 0.052-0.531-0.525-1.273-0.404-0.517-1.29-1.048-1.29-1.048s2.052 0.421 2.555 0.421c0.968 0 2.942 0.739 2.865-1.268h-0.024c-0.845-0.102-2.53-0.102-5.555-0.633z" clip-path="url(#ag)"/>
<path transform="matrix(1.3333 0 0 -1.3333 199.06 116.27)" d="m0 0h-0.407l0.044-6.848h-0.033c-0.102-2.315-2.283-1.262-2.384-1.166 1.083-1.465 3.737-1.262 3.861 1.274l0.33 7.68s-0.454-0.94-1.411-0.94" clip-path="url(#v)"/>
<path transform="matrix(1.3333 0 0 -1.3333 199.77 111.78)" d="m0 0c0.517 0 0.995 0.412 1.02 0.943 0.052 0.525-0.341 0.949-0.885 1.051-0.537 0-1.004-0.413-1.032-0.946-0.046-0.526 0.363-0.949 0.897-1.048" clip-path="url(#k)"/>
<path transform="matrix(1.3333 0 0 -1.3333 224.44 121.33)" d="m0 0c-0.135 0-0.25 0.115-0.382 0.115l-2.385-6.429h-0.033c-0.885-2.107-2.574-0.311-2.631-0.212 0.478-1.785 3.005-2.519 4.061-0.206l3.025 7.056s-0.739-0.632-1.655-0.324" clip-path="url(#ct)"/>
<path transform="matrix(1.3333 0 0 -1.3333 212.61 128.35)" d="M 0,0 C 0.558,0 1.001,0.319 1.026,0.951 1.059,1.482 0.635,1.897 0.115,1.897 -0.413,2.005 -0.891,1.578 -0.924,1.048 -0.938,0.423 -0.514,0 0,0" clip-path="url(#ci)"/>
<path transform="matrix(1.3333 0 0 -1.3333 222.79 117.26)" d="m0 0s-0.674-1.152-2.577-0.619c0 0 0.47-0.635 0.228-1.273-0.071-0.206-0.519-1.468-0.97-2.841-2.23 0.743-5.998 1.474-7.915 1.799 0 0 0.814 0.836 1.207 1.68 0.71 1.471 0.399 3.154 0.399 3.154-0.058-0.844-0.355-3.897-5.272-5.995 0 0 3.157 0.209 12.659-2.637z" clip-path="url(#bx)"/>
<path transform="matrix(1.3333 0 0 -1.3333 248.64 140.7)" d="m0 0 0.5 0.421c0.38 0.429 0.68 0.429 1.087 0.107l0.877-0.941-1.031-1.053zm4.559-0.726-2.873 3.047c-0.842 0.737-1.202 0.308-2.151-0.638l-1.611-1.895 2.477-2.313-1.421-1.366h-0.055c-1.606-1.469-2.442 0.739-2.442 0.844-0.273-1.688 1.713-3.366 3.555-1.796z" clip-path="url(#bm)"/>
<path transform="matrix(1.3333 0 0 -1.3333 246.2 127.22)" d="m0 0c0.52 0 0.968 0.418 0.968 0.949 0.033 0.525-0.426 0.946-0.941 1.05-0.56 0-0.979-0.423-1.011-1.05 0-0.531 0.451-0.949 0.984-0.949" clip-path="url(#bb)"/>
<path transform="matrix(1.3333 0 0 -1.3333 250.16 130.03)" d="m0 0c0.547 0 0.998 0.429 0.998 0.946 0 0.539-0.423 0.957-0.971 0.957-0.528 0-0.979-0.418-0.979-0.957 0-0.517 0.427-0.946 0.952-0.946" clip-path="url(#aq)"/>
<path transform="matrix(1.3333 0 0 -1.3333 243.28 131.56)" d="m0 0 0.355 0.619c0.321 0.429 0.484 0.429 0.935 0.107l1.02-0.726-0.842-1.163zm1.408 2.31c-0.941 0.627-1.436 0.525-2.2-0.627l-1.293-2.005 2.657-1.991-0.726-0.954c-1.048 0.737-4.32 2.945-5.954 3.886l4.023 7.276s-1.201-0.745-2.92-0.429c0 0 0.531-0.214 0.223-0.734-0.088-0.105-3.716-7.268-3.754-7.37-0.891-1.581-2.151-1.262-2.758-0.949-1.23 0.638-1.373 1.796-1.208 2.527 0.157 0.743 0.451 1.997 2.497 2.954 0 0 0.311-0.531 0.955-0.116 0.591 0.427 0.789 1.477 0.789 1.477-0.902-0.522-3.999-1.996-4.683-3.897-0.715-1.894 0.305-3.577 1.496-4.001 0.69-0.311 2.843-1.045 4.125 1.166l0.445 0.732c2.096-1.155 4.087-2.305 7.002-4.741l4.378 5.486z" clip-path="url(#ap)"/>
<path transform="matrix(1.3333 0 0 -1.3333 180.05 113.47)" d="M 0,0 C 0.525,0 0.924,0.533 0.891,1.05 0.844,1.576 0.374,2.005 -0.154,1.897 -0.712,1.897 -1.1,1.367 -1.048,0.844 -1.026,0.316 -0.55,0 0,0" clip-path="url(#ao)"/>
<path transform="matrix(1.3333 0 0 -1.3333 167.27 133.25)" d="M 0,0 C 0.531,0 0.927,0.514 0.899,1.042 0.85,1.567 0.366,1.988 -0.151,1.988 -0.674,1.881 -1.108,1.471 -1.045,0.94 -0.998,0.314 -0.547,0 0,0" clip-path="url(#an)"/>
<path transform="matrix(1.3333 0 0 -1.3333 171.21 131.28)" d="m0 0c0.517 0 0.918 0.514 0.891 1.042-0.044 0.534-0.517 0.946-1.048 0.842-0.558 0-0.951-0.517-0.902-1.045 0.036-0.534 0.509-0.941 1.059-0.839" clip-path="url(#am)"/>
<path transform="matrix(1.3333 0 0 -1.3333 180.79 122.17)" d="m0 0c-1.548-0.311-3.077-0.732-3.077-0.732l-3.479 3.677s-0.523 0.734-1.502 0.633c-0.632-0.097-1.757-0.735-2.285-1.153-0.58-0.42-0.998-1.166-0.451-1.795l2.692-3.05c-2.241-0.732-4.19-1.788-5.948-2.632 0 0 0.179 1.161 0 1.999-0.324 1.686-1.587 2.742-1.587 2.742 0.476-0.638 2.027-3.275-0.594-7.895 0 0 2.761 2.307 10.855 5.266l-3.933 4.199c0.209 0.322 0.864 0.746 1.444 0.746l4.1-4.425c1.452 0.311 3.737 0.844 5.475 1.16l-0.973 6.213s-0.237-1.056-0.905-1.472c-0.731-0.214-1.38-0.536-1.38-0.536s0.855 0.426 1.177-1.048z" clip-path="url(#al)"/>
<path transform="matrix(1.3333 0 0 -1.3333 143.13 145.46)" d="m0 0c-0.503 0.096-0.842 0.52-0.82 0.938 0.028 0.525 0.454 0.847 0.952 0.847 0.473 0 0.841-0.424 0.784-0.949-0.022-0.534-0.446-0.836-0.916-0.836m10.158 8.203h-1.262c-1.108 0-1.314 0.743-1.314 0.743-0.116-0.743-1.032-1.166-1.953-0.96-0.762 0.124-1.342 0.96-1.391 2.013-0.03 1.254 1.102 2.106 1.974 1.675-0.107-0.421 0.154-0.839 0.415-0.839 0.341-0.107 0.839 0 0.814 0.528-0.049 0.528-0.522 0.635-0.544 0.635-1.793 0.418-3.427-0.85-3.506-2.321-0.058-1.367 0.877-2.733 2.136-2.733-0.693-0.531-1.344-1.053-1.9-1.584l-5.736 6.531s0.217-1.163-0.597-2.417c0 0 0.308 0.311 0.643-0.11 0.264-0.314 3.036-3.262 4.557-4.948-0.553-0.528-0.971-0.954-1.284-1.262-0.294 0.099-0.605 0.204-0.946 0.204-1.37 0.104-2.585-0.949-2.69-2.313-0.052-0.525 0.105-0.949 0.336-1.367-0.308-0.421-0.671-0.951-0.993-1.262l-6.867 5.264s0.418-1.164-0.134-2.522c0 0 0.236 0.423 0.662 0.101 0.443-0.423 6.631-4.952 6.631-4.952l0.313 0.423c0.08 0 0.157 0.11 0.182 0.11 0.187 0.209 0.786 1.051 1.372 1.779 0.239-0.101 0.503-0.203 0.784-0.203 1.377-0.105 2.557 0.949 2.665 2.321 0.052 0.421-0.05 0.844-0.262 1.257 2.789 2.835 6.155 5.161 7.895 6.209" clip-path="url(#ak)"/>
<path transform="matrix(1.3333 0 0 -1.3333 131.41 139.29)" d="m0 0s2.425 1.567 3.036 3.682h0.41s0.134-1.056-0.99-2.318c-1.111-1.26-2.456-1.364-2.456-1.364" clip-path="url(#aj)"/>
<path transform="matrix(1.3333 0 0 -1.3333 132.92 140.55)" d="m0 0s2.425 1.68 3.036 3.789h0.41s0.104-1.155-0.999-2.318c-1.111-1.262-2.447-1.471-2.447-1.471" clip-path="url(#ai)"/>
<path transform="matrix(1.3333 0 0 -1.3333 182.73 73.877)" d="m0 0c-0.116 0.833 0.605 0.833 0.605 0.833-2.228 0.322-3.297 1.796-3.297 1.796l2.054-14.946c0.08-0.528-0.261-0.952-0.74-1.067-0.533-0.094-0.976 0.217-1.053 0.748l-2.478 14.839s-0.627-1.689-2.599-2.731c0 0 0.658 0.305 0.814-0.531 0.047-0.313 0.762-4.007 1.37-7.26-1.185-0.217-2.365-0.522-3.471-0.847l-1.006 4.738s-0.523-1.787-2.417-2.953c0 0 0.627 0.316 0.816-0.525 0.077-0.317 0.286-1.161 0.446-1.785-0.921-0.314-1.898-0.525-2.739-0.737l-1.29 4.521s-0.418-1.672-2.258-2.934c0 0 0.603 0.305 0.839-0.534 0.099-0.316 0.666-1.793 0.666-1.793-0.856-0.201-1.722-0.415-2.462-0.737l-1.501 4.326s-0.363-1.691-2.156-3.058c0 0 0.632 0.322 0.891-0.424 0.058-0.209 2.766-7.474 2.766-7.474 0.306-0.842-0.041-2.005-1.6-2.211-0.212 0-0.426 0.11-0.635 0.206 0.423-0.308 0.869-0.415 1.347-0.415 1.606 0 3.449 1.265 2.838 3.374l-1.18 3.465c3.735 1.48 8.132 2.643 12.521 3.479 0.272-1.37 0.506-2.313 0.506-2.313 0.215-1.27 1.26-2.211 2.492-2.423 0.693 0 0.929-0.954 0.929-0.954 0 0.523 0.297 1.059 0.473 1.273 1.208 0.416 1.95 1.576 1.865 2.839l-0.028-0.102s-1.257 11.789-1.328 12.317" clip-path="url(#ah)"/>
<path transform="matrix(1.3333 0 0 -1.3333 222.02 73.469)" d="m0 0c0.742 0 1.314 0.632 1.314 1.367 0 0.748-0.572 1.265-1.314 1.265-0.718 0-1.317-0.517-1.317-1.265 0-0.735 0.599-1.367 1.317-1.367" clip-path="url(#af)"/>
<path transform="matrix(1.3333 0 0 -1.3333 281.08 125.4)" d="m 0,0 -1.301,1.688 9.342,8.204 c 0,0 -0.536,-1.683 0.324,-3.793 0,0 -0.341,0.633 -0.976,0.11 C 6.787,5.687 0,0 0,0" clip-path="url(#ae)"/>
<path transform="matrix(1.3333 0 0 -1.3333 115.34 122.3)" d="m0 0-1.37-1.694-9.498 8.209s1.757-0.311 3.707 0.847c0 0-0.547-0.424 0.052-1.056z" clip-path="url(#ad)"/>
<path transform="matrix(1.3333 0 0 -1.3333 158.89 77.959)" d="m0 0c0.709 0 1.284 0.635 1.284 1.367 0 0.742-0.575 1.27-1.284 1.27-0.718 0-1.284-0.528-1.284-1.27 0-0.732 0.566-1.367 1.284-1.367" clip-path="url(#ac)"/>
<path transform="matrix(1.3333 0 0 -1.3333 160.33 82.31)" d="m0 0c0.712 0 1.295 0.522 1.295 1.259 0 0.743-0.583 1.378-1.295 1.378s-1.295-0.635-1.295-1.378c0-0.737 0.583-1.259 1.295-1.259" clip-path="url(#ab)"/>
<path transform="matrix(1.3333 0 0 -1.3333 171.77 97.599)" d="m0 0c0.712 0 1.265 0.517 1.265 1.262 0 0.726-0.553 1.37-1.265 1.37-0.707 0-1.292-0.644-1.292-1.37 0-0.745 0.585-1.262 1.292-1.262" clip-path="url(#aa)"/>
<path transform="matrix(1.3333 0 0 -1.3333 88.743 176.76)" d="m0 0c0.61 3.787 0.976 5.467 2.263 9.782l-2.216 0.739c-1.865 0.421-4.937-0.211-5.63-3.151 0 0-0.338-2.747-1.364-2.86 0 0 0.682-0.204 1.477-1.353 0.523-0.734 0.858-2.321 0.858-2.321s0.613 3.055 0.789 3.787c0.438 1.369 0.438 4.636 3.243 3.47-0.317-1.262-1.029-3.149-1.766-7.686z" clip-path="url(#z)"/>
<path transform="matrix(1.3333 0 0 -1.3333 145.7 95.222)" d="m0 0c-0.38 0.635-0.509 1.16-0.319 1.686 0.173 0.426 1.229 1.053 1.229 1.053l0.866-1.889zm1.625 6.842s-0.187-1.471-1.367-2.101c-2.843-1.367-3.126-3.484-2.343-5.159l1.342-2.629 3.52 1.782 1.164-2.525 0.019-0.104c1.218-2.734-2.071-2.838-2.258-2.734 2.208-1.166 5.343 0.63 3.971 3.79z" clip-path="url(#y)"/>
<path transform="matrix(1.3333 0 0 -1.3333 117.98 115.3)" d="m0 0c-0.556 0.542-0.844 0.96-0.825 1.479 0.036 0.531 0.872 1.474 0.872 1.474l1.394-1.474zm-0.534 7.059s0.286-1.466-0.66-2.42c-2.285-2.211-1.922-4.315-0.651-5.681l2.081-2.104 2.789 2.948 1.889-2.109h0.028c2.024-2.319-1.084-3.471-1.32-3.471 2.477-0.322 4.895 2.31 2.629 4.939z" clip-path="url(#x)"/>
<path transform="matrix(1.3333 0 0 -1.3333 134.43 90.445)" d="m0 0c-0.424 0.737 0.228 0.954 0.228 0.954-2.153-0.536-3.707 0.305-3.707 0.305l5.217-8.736c-1.375-0.842-3.484-2.409-5.58-3.993 0 0-0.338 1.892-0.844 2.626-0.847 1.265-2.294 1.683-2.294 1.683 0.845-0.844 3.105-3.578 0.924-8.946 0 0 2.082 2.31 10.783 7.788 0 0-4.306 7.576-4.727 8.319" clip-path="url(#w)"/>
<path transform="matrix(1.3333 0 0 -1.3333 226.21 80.347)" d="m0 0c0.195 0.74 0.371 1.166 0.85 1.479 0.72 0.311 1.771-0.11 1.771-0.11l-0.578-1.999zm-7.829-3.259-2.209 0.424 0.361 3.363c0.825-0.311 1.504-0.938 1.815-1.584 0.343-0.833 0.033-2.203 0.033-2.203m-4.244 0.732-2.18 0.209c0.126 1.578 0.973 3.058 2.585 3.058zm-0.605-5.256s-0.104-0.75-0.968-0.75c-0.624 0-0.957 0.959-0.957 0.959l0.116 2.937 2.156-0.203zm18.299 11.9s-1.062-1.059-2.318-0.636c-3.083 0.732-4.656-0.629-5.137-2.519l-0.63-2.851 3.866-0.946-1.526-5.368s-0.261-1.997-1.309-1.793c-1.031 0.313-0.456 2.112-0.456 2.112l0.734 3.247s-4.205 0.955-4.81 1.062c0 0 0.633 2.626-0.795 4.419-1.3 1.79-2.574 1.79-2.574 1.79l0.658 4.849s-0.946-2.324-3.633-2.217h-0.022c-0.03 0-0.03 0 0 0 0.393-0.107 1.188-0.305 1.023-1.471l-0.105-0.943s-1.661 0.206-3.344-1.271c-1.421-1.364-1.498-3.795-1.498-3.795s-1.216 0.107-1.576 0.107l0.022 1.802c-0.124 1.471-1.477 3.157-4.103 3.247 0 0-2.926-0.308-3.63 0.746 0 0 0-0.949-0.633-1.582-0.679-0.737-1.757-1.144-1.757-1.144s2.94 0.204 3.674 0.099c2.478-0.217 4.507 0.52 4.477-2.95 0-0.108-8.101-0.325-8.101-0.325l0.123-2.31s7.508 0.536 11.399 0.107v-2.948s0.105-2.741 2.494-2.942c2.77-0.212 3.078 2.423 3.078 2.423l0.404 2.835c1.441-0.314 4.493-0.844 6.79-1.367l-0.325-2.002s-0.547-2.425 1.614-3.363c0.24-0.316 0.209-0.743 0.13-0.946 0 0 0.286 0.517 0.742 0.731 1.653-0.214 2.324 0.74 2.756 2.209 0 0 4.061 13.167 4.298 13.904" clip-path="url(#u)"/>
<path transform="matrix(1.3333 0 0 -1.3333 76.396 182.8)" d="m0 0c1.521-0.734 2.098-1.474 2.098-1.474 1.691 1.474 4.29 0.522 4.345-1.474 0.047-2.527-1.952-2.736-2.582-2.736-0.71 0-1.815-0.102-4.241 2.425-2.651 2.629-3.858 1.785-4.358 1.26h0.024c-0.162-0.215-0.264-0.424-0.264-0.735 0.028-0.646 0.55-1.16 1.216-1.16 0.624 0.104 1.152 0.635 1.125 1.262 0 0.209-0.077 0.311-0.16 0.52 0.58-0.102 0.844-0.311 1.944-1.581 2.352-2.514 3.98-3.045 5.165-2.943 1.658 0 3.924 1.576 3.866 4.213-0.079 3.16-3.154 4.21-4.389 4.103-2.527 0-3.789-1.68-3.789-1.68" clip-path="url(#t)"/>
<path transform="matrix(1.3333 0 0 -1.3333 269.46 113.47)" d="m0 0c-0.767 0-1.372 0.632-1.372 1.474 0 0.737 0.638 1.375 1.397 1.375 0.77 0 1.388-0.638 1.388-1.482-0.019-0.735-0.618-1.367-1.413-1.367m10.31 4.837s0.585-0.415-0.02-1.045c-0.88-0.852-5.098-5.274-5.098-5.274-0.36 0.321-1.092 1.064-2.008 1.798 0.105 0.316 0.187 0.734 0.187 1.051 0.014 0.739-0.55 1.996-0.55 1.996-0.354 0.537 0.042 1.265 0.042 1.265s-0.548-0.531-1.367-0.206c-0.446 0.206-0.919 0.313-1.447 0.415-0.632 0-1.199-0.209-1.68-0.52-0.605 0.418-2.747 1.997-2.747 1.997l6.091 8.528s-1.639-0.74-3.737 0c0 0 0.624-0.311 0.181-0.955-0.368-0.522-6.344-9.465-6.344-9.465-0.264-0.426-0.839-0.63-1.268-0.325-0.412 0.325-0.541 0.856-0.25 1.265l3.069 4.953c0.701 0.946 0.836 3.05-1.29 4.323-1.727 1.048-9.416 4.942-13.711 6.518l11.311-2.423c1.424-0.41 1.696-0.946 1.771-1.152 0 0 0.555 1.894 3.685 1.683l-18.379 3.99-1.122-3.256c3.391-1.15 9.529-3.999 13.189-5.896 1.626-0.941 3.575-1.581 1.782-4.312 0 0-7.306 4.634-14.764 7.474 0 0-1.573 0.421-1.648 1.26 0 0-0.357-2.101-3.377-1.782 0 0 8.971-2.423 18.687-8.745l-0.897-1.471c-0.693-1.164-0.55-2.53 0.242-3.586 0.462-0.421 0.102-1.26 0.102-1.26 0.308 0.426 0.869 0.531 1.13 0.531 1.185-0.531 2.39-0.206 3.176 0.841l1.224 1.683s0.476-0.418 1.18-1.045c0.269-0.22 0.712-0.53 1.265-0.954-0.162-0.421-0.267-0.839-0.267-1.262 0-1.892 1.504-3.363 3.347-3.363 0.635 0 1.191 0.096 1.68 0.407 0.688-0.619 1.183-1.045 1.218-1.045l2.013-2.104 9.064 8.728s-1.707-0.407-3.665 0.74" clip-path="url(#s)"/>
<path transform="matrix(1.3333 0 0 -1.3333 300.69 185.46)" d="m0 0c0.701 0 1.262 0.63 1.262 1.367 0 0.734-0.561 1.262-1.262 1.262-0.71 0-1.287-0.528-1.287-1.262 0-0.737 0.577-1.367 1.287-1.367" clip-path="url(#r)"/>
<path transform="matrix(1.3333 0 0 -1.3333 313.56 179.15)" d="m0 0c-0.74 0.525-1.656 1.675-1.656 1.675s0.506-2.838 0.556-3.567c0.099-1.579 1.158-4.538-1.873-4.538v0.11c-0.454 5.371-1.892 12.422-1.892 12.422-0.033 0.102 9.76 2.525 9.76 2.525s-1.68 0.638-2.819 2.521c0 0 0.063-0.72-0.701-0.937l-9.004-2.31c0.16-0.638 0.336-1.274 0.528-2.112 0.743-3.16 1.551-7.791 2.022-14.732l2.307 0.102c1.93 0.203 4.54 1.68 4.202 4.738 0 0-0.66 2.101 0.377 3.366 0 0-0.682-0.105-1.807 0.737" clip-path="url(#q)"/>
<path transform="matrix(1.3333 0 0 -1.3333 296.58 122.59)" d="m0 0c0.707 0 1.295 0.517 1.314 1.265 0.02 0.731-0.525 1.369-1.243 1.369-0.698 0-1.273-0.536-1.309-1.262-0.016-0.742 0.526-1.372 1.238-1.372" clip-path="url(#p)"/>
<path transform="matrix(1.3333 0 0 -1.3333 300.66 128.35)" d="m0 0c0.698 0 1.284 0.525 1.312 1.265 0.022 0.74-0.526 1.367-1.243 1.367-0.715 0-1.309-0.528-1.309-1.265-0.025-0.729 0.519-1.367 1.24-1.367" clip-path="url(#o)"/>
<path transform="matrix(1.3333 0 0 -1.3333 304.49 161.47)" d="m0 0-0.715 2.104c0.759 0.429 1.312 0.53 2.082 0.099 0.789-0.413 1.08-1.466 1.08-1.466zm-12.191 23.787c1.345 0.839 2.34 0.11 3.044-1.05l-1.515-1.152zm8.366-8.731s1.24-0.104 1.955-1.587c0.602-1.366 0.126-2.411 0.126-2.411s-0.618 0.627-2.318 1.149c0 0 0.369 0.957 0.237 2.849m8.181-13.893c-0.754 1.999-2.756 4.408-5.731 3.047-0.308 0.845-2.343 5.264-2.758 6.314 1.223-0.102 3.159-1.787 3.159-1.787s1.37 1.27 1.067 3.159c0 0 0.451 0.633 0.358 1.155-0.253 1.364 0.426 1.686 0.426 1.686s-0.784-0.322-1.658 0.732c-0.305 0.324-1.015 0.426-1.015 0.426-1.95 1.796-3.734 0.847-3.734 0.847 0.363-1.378-0.212-3.154-0.212-3.154-2.266 3.891-3.625 6.094-3.625 6.094l2.475 1.688 4.092 2.635s-1.76 0-3.448 1.476c0 0 0.322-0.64-0.369-1.058-0.129-0.108-0.363-0.206-0.676-0.418-2.005 2.527-4.285 3.679-8.008 0.621 2.453-3.143 5.981-9.05 8.03-12.837l1.199-0.522-0.283-1.26c2.978-6.006 4.98-12.529 4.98-12.529l7.505 2.206s-1.298 0.214-1.774 1.479" clip-path="url(#n)"/>
<path transform="matrix(1.3333 0 0 -1.3333 103.76 136.62)" d="m0 0c-0.734 0-1.345 0.63-1.345 1.358 0 0.743 0.624 1.378 1.375 1.378 0.754 0 1.364-0.635 1.364-1.378-0.03-0.728-0.641-1.358-1.394-1.358m-7.634-6.628c-0.743-0.321-1.21-0.948-1.21-0.948-0.448 1.045-0.267 1.993 0.074 2.626 0.341 0.627 1.238 1.477 2.063 1.573 0 0-0.113-0.842-0.061-1.573 0.061-0.52 0.16-1.26 0.16-1.26s-0.605-0.217-1.026-0.418m13.269 13.786-9.48 8.11s0.575-1.697-0.261-3.801c0 0 0.341 0.63 0.965 0.116l5.718-4.637-1.793-2.321h0.049c-0.256 0-0.525 0.11-0.778 0.11-0.927 0-1.746-0.426-2.343-0.94-0.404-0.22-1.029 0-1.029 0s0.449-0.536 0.314-1.059c-0.187-0.418-0.294-0.844-0.294-1.378 0-0.728 0.264-1.465 0.712-1.991-0.52-0.948-2.45-4.108-2.47-4.004-0.079 0.853 0.105 2.838 0.105 2.838-1.161 0.644-2.662 0.322-3.864-0.731-0.531 0.113-1.083-0.311-1.504-0.943-0.476-0.311-1.081-0.108-1.081-0.108s0.525-0.53 0.473-1.056c-0.176-0.629-0.157-1.155 0.085-1.573-0.189-1.584 0.339-3.055 1.549-3.69 0 0 1.185 1.053 2.422 1.584 0 0-1.443-3.165-2.112-5.156l-9.498 3.572s1.105-1.359 1.004-3.572c0 0 0.101 0.624 0.869 0.409 0.761-0.308 9.05-3.148 9.05-3.148s2.293 5.786 3.132 7.689l-0.423 1.364 1.454 0.42c0.916 1.788 1.788 3.361 2.547 4.631l0.126 0.308c0.242-0.093 0.484-0.093 0.721-0.093 1.807 0 3.316 1.463 3.344 3.25 0 0.743-0.237 1.378-0.613 1.901z" clip-path="url(#m)"/>
<path transform="matrix(1.3333 0 0 -1.3333 293.21 274.07)" d="m0 0c-0.055-0.105-0.729-0.949-0.729-0.949-0.74-0.742-1.391-0.217-1.391-0.217l-4.296 3.69c-0.742 0.63-0.844 0.839-0.632 1.158l1.163 1.584 5.261-4.213c0.357-0.316 1.006-0.533 0.624-1.053m2.511 1.053-7.464 5.58 0.613 0.737-1.306 0.943-0.561-0.729-2.893 2.203-0.946-1.158 2.866-2.318-1.067-1.367c-0.435-0.528-1.279 0.212-1.279 0.212l-4.692 3.889c-0.75 0.525-0.484 1.166-0.484 1.166l1.89 2.42-1.238 0.946s-2.181-2.737-2.255-2.838c-1.034-1.169 0.259-2.11 0.259-2.11l5.827-5.051c0.855-0.732 1.279-0.526 1.675-0.215-0.66-0.946 0.396-1.581 0.396-1.581l5.571-4.939s1.166-0.842 2.129 0.418z" clip-path="url(#l)"/>
<path transform="matrix(1.3333 0 0 -1.3333 302.86 198.94)" d="m0 0-4.719 0.209c-0.858 0-1.521-0.415-1.546-2.626-0.231-2.214 0.344-2.525 1.414-2.742l6.479-0.52s0.663-0.214 1.752 1.26l1.644 2.307c0.495 0.536 1.089 0.432 2.621 0.33l4.067-0.212c0.47-0.118 1.02-0.214 1.001-0.841l-0.179-1.472c-0.033-0.635-0.404-0.852-1.133-0.635l-4.4 0.415-0.104-1.683 5.703-0.618c1.323 0 1.769 0.935 1.796 1.782l0.206 2.838c0.047 1.267-0.704 1.798-2.002 1.903l-6.36 0.2c-1.043 0-1.76 0-2.052-0.525l-1.897-2.527c-0.902-1.262-1.389-0.839-1.389-0.839l-4.32 0.212c-1.029 0-1.326 0.316-1.191 1.367 0.107 1.05 0.195 1.262 1.4 1.149l3.102-0.203z" clip-path="url(#j)"/>
<path transform="matrix(1.3333 0 0 -1.3333 315.95 235.42)" d="m0 0-1.768 0.522-0.655-1.889-7.029 2.527 0.495 1.472-1.559 0.519-0.509-1.369-7.736 2.739 0.468 1.471-1.427 0.528-1.001-2.835 19.404-7.365z" clip-path="url(#i)"/>
<path transform="matrix(1.3333 0 0 -1.3333 321.6 209.4)" d="m0 0-1.546 0.11-0.275-2.219-18.955 2.532-0.237-1.366 20.455-3.056z" clip-path="url(#h)"/>
<path transform="matrix(1.3333 0 0 -1.3333 306.69 257.24)" d="m0 0-18.26 10.002-0.668-1.263 8.324-6.844-10.021 3.998-0.844-1.259 17.286-11.473 1.073 1.471-10.94 7.054 12.078-4.95-10.345 8.219 11.401-6.426z" clip-path="url(#g)"/>
<path transform="matrix(1.3333 0 0 -1.3333 303.08 227.41)" d="m0 0-7.686 2.203 0.393 1.581s0 0.844 0.907 0.531c0.952-0.314 6.138-1.573 6.138-1.573s1.054-0.223 0.85-0.96zm3.341 1.782 7.961-2.098 0.504 1.787-8.525 2.107s-1.153 0-1.441-0.63c-0.083 0.415-0.19 1.257-1.274 1.257l-7.21 1.688s-1.669 0.635-2.002-0.731l-1.15-3.787 19.839-6.32 0.531 1.788-8.924 2.629 0.506 1.903c0.187 0.624 0.652 0.514 1.185 0.407" clip-path="url(#f)"/>
<path transform="matrix(1.3333 0 0 -1.3333 284.93 238.3)" d="m0 0 18.793-9.059 0.759 1.678-13.997 6.333 14.971-3.803 0.731 1.688-19.258 7.791-0.613-1.367 10.708-4.526-11.552 2.629z" clip-path="url(#e)"/>
<path transform="matrix(1.3333 0 0 -1.3333 311.39 219.69)" d="m0 0-10.39 2.942 10.731-1.155zm6.523 1.259 0.269 1.584-20.737 1.675-0.344-1.576 19.866-6.316 0.421 1.79-4.73 1.27 0.423 1.989z" clip-path="url(#d)"/>
<path transform="matrix(1.3333 0 0 -1.3333 98.851 207.22)" d="m0 0 0.151-1.477-20.446-2.634-0.204 1.894z" clip-path="url(#c)"/>
<path transform="matrix(1.3333 0 0 -1.3333 99.51 210.59)" d="m0 0-20.526-3.05 0.264-1.688 14.396 2.417-13.948-5.36 0.264-1.691 20.452 4.532-0.272 1.257-12.835-2.525 12.441 4.727z" clip-path="url(#b)"/>
<path transform="matrix(1.3333 0 0 -1.3333 71.441 209.19)" d="m0 0 9.82 4.741 10.678-2.635-0.154 1.48-8.214 1.991 8.159 0.314-0.055 1.375-20.737-0.63 0.041-1.804 8.071 0.536-7.769-3.581z" clip-path="url(#a)"/>
<path transform="matrix(1.3333 0 0 -1.3333 87.02 230.8)" d="m0 0-0.811 2.835-1.507-0.415 0.368-1.265-3.836-1.262c-0.583-0.11-1.262 0.209-1.427 0.827l-0.289 1.276c-0.206 0.737 0.476 0.949 1.078 1.051l14.506 3.787c0.996 0.206 1.337 0.206 1.68-1.15 0.289-1.056-0.308-1.378-1.102-1.476l-4.296-1.263 0.424-1.474 5.48 1.68c1.128 0.317 1.705 0.735 1.021 3.061-0.548 2.203-1.021 2.525-2.415 2.203l-16.53-3.891c-1.342-0.424-2.002-0.938-1.639-2.528 0 0 0.476-2.538 1.947-2.425l-1.075-0.314 0.552-1.784z" clip-path="url(#cs)"/>
<path transform="matrix(1.3333 0 0 -1.3333 257.91 272.91)" d="m0 0 10.835-13.788c0.597-0.853 0.72-1.263 0.291-1.689l-0.973-0.839c-0.663-0.415-1.15 0-1.683 0.735l-10.45 14.101-1.174-0.836 11.079-15.576c0.6-0.954 1.499-1.056 2.211-0.533l2.657 2.109c0.778 0.633 1.345 1.161 0.52 2.321l-12.293 14.836z" clip-path="url(#cr)"/>
<path transform="matrix(1.3333 0 0 -1.3333 191.1 319.64)" d="m0 0-1.317 0.102c-0.66 0-0.812 0.745-0.79 1.364l1.106 14.85c0.102 0.946 0.245 1.361 1.581 1.27 1.081-0.113 1.202-0.426 1.152-1.378l-0.519-15.155c-0.033-0.641-0.594-1.053-1.213-1.053m3.187 17.262c0.019 1.058-0.195 1.787-2.582 1.897-2.318 0.209-2.819-0.423-2.871-1.573l-1.658-17.275c-0.088-1.26 0.973-1.788 2.268-1.788l2.517-0.099c1.284-0.104 1.936 0.413 2.01 1.678z" clip-path="url(#cq)"/>
<path transform="matrix(1.3333 0 0 -1.3333 252.47 306.59)" d="m0 0-1.207-0.525c-0.589-0.218-0.966 0.214-1.263 0.83l-6.448 13.478c-0.396 0.949-0.451 1.273 0.764 1.895 0.968 0.423 1.265 0.214 1.711-0.726l6.765-13.382c0.291-0.514 0.266-1.265-0.322-1.57m-5.704 16.635c-0.558 0.946-1.102 1.465-3.214 0.418-2.11-0.952-2.209-1.793-1.714-2.847l7.06-15.787c0.577-1.153 1.707-1.051 2.868-0.526l2.263 1.15c1.155 0.646 1.389 1.262 0.842 2.425z" clip-path="url(#cp)"/>
<path transform="matrix(1.3333 0 0 -1.3333 201.45 309.54)" d="m0 0-0.047 1.787-1.449-0.101-0.182 8.101h1.81l-0.077 1.683-3.108-0.11-0.049-20.724h1.765l-0.137 9.254z" clip-path="url(#co)"/>
<path transform="matrix(1.3333 0 0 -1.3333 215.17 305.47)" d="m0 0-1.92-0.421-1.023 7.997 1.263 0.217c0.632 0.212 1.075 0 1.124-0.418l1.164-6.322s0.134-0.943-0.608-1.053m2.425 0.525-1.556 7.895s-0.237 1.472-1.603 1.161l-3.922-0.74 2.417-20.419 1.92 0.322-1.301 9.149 3.072 0.636s1.367 0 0.973 1.996" clip-path="url(#cn)"/>
<path transform="matrix(1.3333 0 0 -1.3333 228.32 317.82)" d="m0 0-0.358 1.471-2.134-0.522-1.74 7.474 1.449 0.418-0.393 1.576-1.425-0.314-1.862 8 1.656 0.426-0.366 1.576-3.083-0.844 4.271-20.317z" clip-path="url(#cm)"/>
<path transform="matrix(1.3333 0 0 -1.3333 268.6 299.43)" d="m0 0-0.858 1.262-1.944-1.262-4.345 6.418 1.289 1.056-0.844 1.263-1.314-0.946-4.584 6.949 1.685 1.158-0.828 1.265-2.829-1.903 11.085-17.691z" clip-path="url(#cl)"/>
<path transform="matrix(1.3333 0 0 -1.3333 263.17 303.08)" d="m0 0-0.844 1.471-1.917-1.166-9.606 16.536-1.213-0.732 10.076-18.108z" clip-path="url(#ck)"/>
<path transform="matrix(1.3333 0 0 -1.3333 234.73 316)" d="m0 0-5.772 18.21 1.377 0.424-0.462 1.471-4.317-1.259 0.459-1.576 1.515 0.52 5.426-18.307z" clip-path="url(#cj)"/>
<path transform="matrix(1.3333 0 0 -1.3333 286.47 284.14)" d="m0 0-14.715 14.633-1.128-1.051 6.034-9.056-8.278 6.738-1.226-1.166 13.472-15.67 1.369 1.26-8.549 9.782 10.164-8.415-7.59 11.06 9.163-9.38z" clip-path="url(#ch)"/>
<path transform="matrix(1.3333 0 0 -1.3333 235.67 300.28)" d="m0 0-2.786 7.474 1.444 0.636s0.69 0.528 1.02-0.418c0.341-0.847 2.354-5.899 2.354-5.899s0.393-0.836-0.319-1.053zm3.449-1.576 3.052-7.579 1.763 0.638-3.611 8.517s-0.525 0.423-1.188 0.319c0.289 0.316 0.883 0.841 0.217 1.787l-2.887 6.735s-0.509 1.796-1.796 1.163l-3.759-1.366 6.809-19.685 1.76 0.627-3.215 8.844 1.809 0.635c0.622 0.311 0.828-0.107 1.046-0.635" clip-path="url(#cg)"/>
<path transform="matrix(1.3333 0 0 -1.3333 157.86 295.22)" d="m0 0 1.793 4.309c0.297 0.85 0.159 1.579-1.969 2.42-1.925 0.941-2.453 0.528-2.978-0.525l-2.786-5.789s-0.374-0.63 0.599-2.109l1.587-2.316c0.495-0.838 0.124-1.157-0.165-1.787l-2.021-4.626c-0.19-0.429-0.58-0.841-1.191-0.53l-1.29 0.629c-0.574 0.212-0.47 0.63-0.148 1.37l1.809 3.888-1.523 0.743-2.5-5.258c-0.487-1.161 0.264-1.9 1.023-2.219l2.58-1.155c1.185-0.523 2.081-0.102 2.576 1.053l2.423 6.105c0.369 0.949 0.531 1.581-0.077 2.42l-1.496 2.216c-0.924 1.37-0.429 1.675-0.429 1.675l1.766 3.9c0.44 0.948 0.871 1.056 1.677 0.745 0.946-0.426 1.147-0.643 0.671-1.796l-1.268-2.849z" clip-path="url(#cf)"/>
<path transform="matrix(1.3333 0 0 -1.3333 124.81 262.94)" d="m0 0-13.159-12.213c-0.654-0.635-1.078-0.838-1.521-0.418l-1.001 1.26c-0.451 0.42-0.341 0.838 0.341 1.474l13.632 11.679-0.869 1.061-14.663-12.21c-0.786-0.739-0.786-1.584-0.217-2.222l1.878-2.103c0.899-1.048 1.601-1.257 2.574-0.413l13.868 13.156z" clip-path="url(#ce)"/>
<path transform="matrix(1.3333 0 0 -1.3333 130.78 303.65)" d="m0 0 0.792 1.375-1.997 1.265 4.367 6.421 1.18-0.742 0.927 1.366-1.163 0.845 4.529 6.734 1.625-1.053 0.844 1.375-2.78 1.779-11.899-16.945z" clip-path="url(#cd)"/>
<path transform="matrix(1.3333 0 0 -1.3333 162.75 317.54)" d="m0 0 5.214 18.527 1.815-0.418 0.368 1.474-4.818 1.366-0.495-1.583 1.736-0.531-5.531-18.307z" clip-path="url(#cc)"/>
<path transform="matrix(1.3333 0 0 -1.3333 142.11 293.11)" d="m0 0 3.971 6.946 1.455-0.638c0.756-0.418 0.209-1.047-0.061-1.463l-2.838-5.373s-0.258-0.734-0.916-0.432zm0.63-4.114-3.526-6.732 1.669-0.842 3.831 7.574c0.641 1.276 0 1.688-0.256 1.892 0.385 0 1.133-0.204 1.576 0.646 0.946 1.68 3.471 6.729 3.471 6.729s0.838 1.472-0.391 2.107l-3.451 1.892-10.579-17.79 1.556-0.943 4.653 8.107 1.136-0.748c1.001-0.616 0.58-1.361 0.311-1.892" clip-path="url(#cb)"/>
<path transform="matrix(1.3333 0 0 -1.3333 163.21 288.5)" d="m0 0 1.229-0.413-6.605-19.692-1.815 0.528z" clip-path="url(#ca)"/>
<path transform="matrix(1.3333 0 0 -1.3333 133.48 271.36)" d="m0 0 1.028-0.949-13.109-16.005-1.29 1.056z" clip-path="url(#bz)"/>
<path transform="matrix(1.3333 0 0 -1.3333 127.27 265.61)" d="m0 0-14.707-14.63 1.185-1.152 9.919 10.202-7.947-11.998 1.284-1.158 13.64 15.367-1.026 1.048-7.793-8.522 6.292 9.894z" clip-path="url(#by)"/>
<path transform="matrix(1.3333 0 0 -1.3333 180.68 292.97)" d="m0 0-1.554 0.209-2.505-7.893 0.451 8.311-1.606 0.313-0.314-11.676-2.026-9.056 1.79-0.313 1.741 9.047z" clip-path="url(#bw)"/>
<path transform="matrix(1.3333 0 0 -1.3333 135.55 273.2)" d="m0 0-10.973-17.672 1.23-0.951 13.873 15.581-1.234 0.946-9.713-11.368 8.052 12.523z" clip-path="url(#bv)"/>
<path transform="matrix(1.3333 0 0 -1.3333 89.556 244.55)" d="m0 0 10.128 3.69-9.397-5.274zm-4.609-4.846 0.759-1.468 17.715 10.843-0.717 1.471-19.679-6.531 0.684-1.68 4.576 1.787 0.845-1.892z" clip-path="url(#bu)"/>
<path transform="matrix(1.3333 0 0 -1.3333 88.073 259.72)" d="m0 0 0.811-1.466 17.768 10.731-0.784 1.163-8.585-5.055-1.208 2.222 8.715 4.725-0.531 1.16-18.452-9.366 0.789-1.689 8.11 4.527 1.29-2.313z" clip-path="url(#bt)"/>
<path transform="matrix(1.3333 0 0 -1.3333 94.705 266.17)" d="m0 0-0.817 1.155 14.922 9.993s0.635-0.943 0.998-1.471c0.396-0.627-0.624-1.045-0.817-1.259-0.181-0.209-11.308-7.901-12.735-8.949-0.701-0.421-0.968-0.313-1.551 0.531m15.796 7.683s1.6 0.63 0.467 2.327c-1.1 1.774-1.845 2.824-1.845 2.824l-17.493-11.157 2.676-3.894s0.919-1.476 2.382-0.31c1.438 1.16 13.813 10.21 13.813 10.21" clip-path="url(#bs)"/>
<path transform="matrix(1.3333 0 0 -1.3333 91.332 238.38)" d="m0 0 0.665-1.474 1.488 0.627-0.599 1.584 7.449 2.846 0.924-2.005 1.502 0.639-1.273 3.255-19.382-7.26 0.566-1.586z" clip-path="url(#br)"/>
<path transform="matrix(1.3333 0 0 -1.3333 190.43 148.42)" d="m0 0-2.362-1.257 0.816-5.585 2.077 0.635z" clip-path="url(#bq)"/>
<path transform="matrix(1.3333 0 0 -1.3333 191.28 158.09)" d="m0 0-2.065-0.638 0.462-4.84 1.804 0.209z" clip-path="url(#bp)"/>
<path transform="matrix(1.3333 0 0 -1.3333 191.63 146.45)" d="m0 0-1.1 8.209 4.867 0.737-0.038-8.734z" clip-path="url(#bo)"/>
<path transform="matrix(1.3333 0 0 -1.3333 184.75 138.73)" d="m0 0 1.713-7.477 2.533 1.369-1.119 8.113z" clip-path="url(#bn)"/>
<path transform="matrix(1.3333 0 0 -1.3333 191.77 147.71)" d="m0 0 0.5-6.416h3.124v6.622z" clip-path="url(#bl)"/>
<path transform="matrix(1.3333 0 0 -1.3333 192.65 157.68)" d="m0 0 0.154-5.47h2.865v5.47z" clip-path="url(#bk)"/>
<path transform="matrix(1.3333 0 0 -1.3333 204.05 148.42)" d="m0 0 2.37-1.257-0.814-5.585-2.079 0.635z" clip-path="url(#bj)"/>
<path transform="matrix(1.3333 0 0 -1.3333 203.21 158.09)" d="m0 0 2.071-0.638-0.473-4.84-1.818 0.209z" clip-path="url(#bi)"/>
<path transform="matrix(1.3333 0 0 -1.3333 202.85 146.45)" d="m0 0 1.116 8.209-4.848 0.737v-8.734z" clip-path="url(#bh)"/>
<path transform="matrix(1.3333 0 0 -1.3333 209.73 138.73)" d="m0 0-1.713-7.477-2.519 1.369 1.091 8.113z" clip-path="url(#bg)"/>
<path transform="matrix(1.3333 0 0 -1.3333 202.71 147.71)" d="m0 0-0.487-6.416h-3.143v6.622z" clip-path="url(#bf)"/>
<path transform="matrix(1.3333 0 0 -1.3333 201.9 157.68)" d="m0 0-0.151-5.47h-2.871v5.47z" clip-path="url(#be)"/>
<path transform="matrix(1.3333 0 0 -1.3333 190.58 235.3)" d="m0 0-1.634-1.576h13.297l-1.672 1.576h-0.094v0.426c0 2.409 0.685 3.264 1.075 3.671v47.383l-1.765 0.113v-51.593h-1.887v0.852c0 1.89 0.454 2.943 0.938 3.463l-0.025 47.377h-2.761v-47.273c0.556-0.624 1.111-1.584 1.111-3.674v-0.745h-3.102v0.745c0 2.09 0.545 3.05 1.092 3.674l-0.049 47.273h-2.715l-0.016-47.377c0.487-0.52 0.946-1.573 0.946-3.463v-0.852h-1.947v51.593l-1.768-0.113v-47.383c0.398-0.407 1.075-1.262 1.075-3.671v-0.426z" clip-path="url(#bd)"/>
<path transform="matrix(1.3333 0 0 -1.3333 214.5 225.74)" d="m0 0s-0.333-0.322-0.842-1.268c0 0 2.629-2.002 2.552-6.839 0 0 1.326 5.153-1.71 8.107" clip-path="url(#bc)"/>
<path transform="matrix(1.3333 0 0 -1.3333 227.27 225.89)" d="m0 0c0-0.327-0.099-0.847-1.103-0.847-1.07 0-1.125 1.05-1.125 1.05-0.321-0.734-0.715-1.05-1.353-0.94-0.64-0.11-1.039 0.737-1.254 0.844l-0.25-0.322c-0.107-0.214-0.267-0.261-0.575-0.838 0 0 2.613-2.11 2.563-6.947 0 0 0.806 3.262-0.349 6.102 1.273 0 1.218 0.949 1.218 0.949s0.108-0.839 1.235-0.839c1.078 0 1.051 1.37 0.993 1.788" clip-path="url(#ba)"/>
<path transform="matrix(1.3333 0 0 -1.3333 227.27 225.61)" d="m0 0v-0.204z" clip-path="url(#az)"/>
<path transform="matrix(1.3333 0 0 -1.3333 244.02 225.89)" d="m0 0c0-0.327-0.138-0.847-1.114-0.847-1.078 0-1.125 0.954-1.125 0.954-0.321-0.74-0.739-0.954-1.339-0.954-0.654 0-1.056 0.751-1.276 0.954l-0.25-0.456c-0.168-0.196-0.3-0.327-0.569-0.812 0 0 2.618-2.002 2.565-6.839 0 0 0.795 3.157-0.346 5.995 1.262 0 1.215 1.056 1.215 1.056s0.102-0.839 1.238-0.839c1.053 0 1.053 1.257 1.001 1.788" clip-path="url(#ay)"/>
<path transform="matrix(1.3333 0 0 -1.3333 243.97 225.74)" d="M 0,0 C 0,0 0.036,0 0.036,-0.107 0.036,0 0,0 0,0" clip-path="url(#ax)"/>
<path transform="matrix(1.3333 0 0 -1.3333 231.89 225.89)" d="m0 0s-0.162-3.581-2.75-6.633l0.63-1.48s2.12 2.53 2.12 5.902c0 0 0.357-3.905 2.67-5.902l0.374 1.48c-2.478 2.626-3.044 6.633-3.044 6.633" clip-path="url(#aw)"/>
<path transform="matrix(1.3333 0 0 -1.3333 155.83 231.93)" d="m0 0c0.536-0.528 1.108-0.734 1.732-0.734 0.46 0 0.823 0.104 1.136 0.316 0.168 0.11 0.319 0.214 0.451 0.418-0.022-0.63-0.074-1.155-0.212-1.471-0.209-0.528-0.577-0.842-1.102-0.842-0.289 0-0.498 0.107-0.685 0.212-0.157 0.102-0.27 0.322-0.294 0.63h-1.601c0.08-0.735 0.338-1.265 0.836-1.571 0.506-0.426 1.059-0.638 1.672-0.638 1.284 0 2.151 0.638 2.648 1.901 0.245 0.728 0.369 1.471 0.369 2.524 0 1.042-0.124 1.785-0.393 2.409-0.473 1.163-1.312 1.691-2.552 1.691-0.817 0-1.469-0.313-1.98-0.844-0.52-0.52-0.759-1.257-0.759-2.109 0-0.836 0.239-1.471 0.734-1.892m1.188 0.954c-0.176 0.209-0.283 0.616-0.283 1.051 0 0.629 0.145 1.053 0.442 1.265 0.209 0.211 0.446 0.211 0.704 0.211 0.383 0 0.693-0.107 0.911-0.423 0.203-0.212 0.308-0.633 0.308-1.053 0-0.526-0.187-0.949-0.526-1.26-0.214-0.113-0.42-0.113-0.632-0.113-0.421 0-0.718 0.113-0.924 0.322" clip-path="url(#av)"/>
<path transform="matrix(1.3333 0 0 -1.3333 173.53 233.19)" d="m0 0h1.573c0-0.311 0.06-0.635 0.151-0.836 0.217-0.319 0.561-0.531 1.095-0.531 0.31 0 0.569 0.107 0.803 0.314 0.239 0.217 0.368 0.528 0.368 0.948 0 0.52-0.236 0.847-0.652 1.051-0.275 0.11-0.671 0.11-1.19 0.11v1.158c0.519 0 0.893 0.101 1.105 0.211 0.35 0.091 0.534 0.413 0.534 0.947 0 0.318-0.102 0.528-0.27 0.728-0.179 0.217-0.454 0.325-0.792 0.325-0.363 0-0.646-0.108-0.836-0.325-0.165-0.308-0.256-0.624-0.245-1.045h-1.496c0 0.421 0.089 0.845 0.193 1.161 0.126 0.313 0.335 0.629 0.624 0.935 0.206 0.231 0.468 0.327 0.759 0.434 0.3 0.096 0.638 0.096 1.062 0.096 0.778 0 1.416-0.096 1.889-0.53 0.476-0.407 0.74-0.935 0.74-1.675 0-0.421-0.154-0.844-0.44-1.161-0.187-0.206-0.385-0.418-0.564-0.418 0.129 0 0.338-0.208 0.638-0.426 0.393-0.415 0.602-0.946 0.602-1.576 0-0.627-0.236-1.262-0.718-1.784-0.467-0.531-1.179-0.845-2.114-0.845-1.175 0-1.983 0.418-2.431 1.153-0.24 0.426-0.366 0.946-0.388 1.581" clip-path="url(#au)"/>
<path transform="matrix(1.3333 0 0 -1.3333 170.47 226.32)" d="m0 0c-0.473 0.434-1.081 0.638-1.821 0.638-0.525 0-1.003-0.107-1.366-0.311-0.363-0.327-0.685-0.632-0.927-1.053-0.256-0.421-0.443-0.949-0.545-1.691-0.057-0.418-0.085-0.938-0.085-1.573 0-1.056 0.187-1.892 0.58-2.528 0.476-0.948 1.241-1.366 2.294-1.366 0.949 0 1.655 0.313 2.106 0.943 0.471 0.531 0.688 1.265 0.688 2.002 0 0.734-0.245 1.367-0.688 1.897-0.473 0.523-1.08 0.729-1.787 0.729-0.352 0-0.663-0.104-0.927-0.206-0.261-0.116-0.47-0.206-0.685-0.523 0.053 0.625 0.132 1.158 0.24 1.472 0.233 0.635 0.605 0.844 1.124 0.844 0.35 0 0.614-0.107 0.795-0.325 0.102-0.2 0.16-0.308 0.16-0.409h1.608c-0.085 0.627-0.316 1.155-0.764 1.46m-2.624-3.897c0.201 0.217 0.438 0.325 0.699 0.325 0.352 0 0.632-0.212 0.866-0.418 0.242-0.215 0.347-0.636 0.347-1.056 0-0.416-0.105-0.836-0.292-1.043-0.214-0.321-0.498-0.429-0.866-0.429-0.344 0-0.66 0.108-0.891 0.429-0.242 0.207-0.349 0.627-0.349 1.043 0 0.53 0.162 0.951 0.486 1.149" clip-path="url(#at)"/>
<path transform="matrix(1.3333 0 0 -1.3333 153.65 234.87)" d="m0 0h-0.993v6.738h-1.32c0-0.097-0.027-0.215-0.08-0.328-0.082-0.203-0.184-0.407-0.319-0.621-0.209-0.212-0.475-0.314-0.789-0.429h-0.338v-1.15h1.21v-4.21h-1.185v-1.375h3.814z" clip-path="url(#as)"/>
<path transform="matrix(1.3333 0 0 -1.3333 196.72 265.89)" d="m0 0c-1.075 0.104-1.573 1.265-1.557 1.367-0.126 1.158 1.238 4.639 1.557 6.316 0.302-1.677 1.702-5.263 1.474-6.316 0.022-0.102-0.393-1.263-1.474-1.367m28.644-0.102-9.092 2.214 7.659 0.621-6.154 12.631c-6.815-2.007-12.562 2.112-14.773 2.423-2.632 0.421-4.158-0.635-6.171-2.316-1.856 2.005-4.348 3.047-6.933 2.316-4.683-0.943-7.527-3.79-14.226-2.208l-5.956-12.318 7.84-1.264-9.152-1.367-2.192-4.321 27.187 3.589c0.635-0.949 2.007-2.112 3.432-2.01 1.149 0.22 2.26 0.847 2.884 1.906l27.85-3.694z" clip-path="url(#ar)"/>
</g>
</svg>