<svg version="1.1" id="Layer_1" xmlns="http://www.w3.org/2000/svg" xmlns:xlink="http://www.w3.org/1999/xlink" x="0px" y="0px"
	 width="100%" viewBox="0 0 900 600" enable-background="new 0 0 900 600" xml:space="preserve">
<path fill="currentColor" opacity="1.000000" stroke="none" 
	d="
M218.143311,382.970062 
	C217.761398,377.555695 217.064255,372.142181 217.049210,366.726776 
	C216.957748,333.786041 217.026794,300.844818 217.027954,267.903778 
	C217.028137,262.893646 218.423401,258.421112 222.382568,254.346893 
	C223.643951,253.725891 224.637543,253.658432 225.100235,253.127930 
	C228.318176,249.438461 231.566483,245.757706 234.489349,241.838699 
	C235.454041,240.545258 235.487335,238.557190 235.946487,236.886719 
	C235.977875,236.536255 236.143143,236.268417 237.053299,236.038315 
	C239.776230,234.822876 242.151794,233.949982 243.916534,232.387299 
	C245.322678,231.142181 248.522690,229.933929 245.906281,226.972427 
	C246.380127,226.366501 246.853958,225.760574 247.952789,225.023758 
	C250.383377,222.925720 252.188965,220.958542 253.994568,218.991364 
	C253.994568,218.991379 254.000000,219.000000 254.359497,218.977631 
	C258.596680,216.476990 262.474365,213.998749 265.631256,211.981155 
	C267.557098,213.108582 269.197662,214.068985 270.838226,215.029404 
	C270.891876,248.835251 270.848755,282.641632 271.038666,316.446716 
	C271.138550,334.228516 271.224792,352.030731 272.181213,369.777161 
	C272.551758,376.652710 275.009399,383.491302 277.061157,390.179565 
	C279.110626,396.860321 281.498199,403.486450 284.362091,409.855743 
	C287.837585,417.585358 291.715302,425.163483 295.890106,432.540558 
	C299.537964,438.986542 303.838776,445.063049 307.721130,451.832397 
	C307.911346,457.556274 311.515442,459.631042 315.828003,461.032745 
	C315.828003,461.032745 315.976562,461.496307 315.831757,461.874573 
	C315.668060,462.644409 315.649200,463.035980 315.630341,463.427551 
	C316.099823,463.238708 316.569336,463.049866 317.038818,462.861023 
	C317.687683,463.330444 318.336517,463.799896 318.796509,464.802002 
	C321.660950,469.168060 324.563934,473.140442 327.882172,476.728790 
	C328.632904,477.540619 330.827484,477.017242 332.357452,477.108459 
	C332.357452,477.108459 332.747406,477.265167 332.626007,477.777832 
	C332.613525,478.904968 332.498383,479.786804 332.864899,480.094025 
	C338.642151,484.937164 344.450073,489.746002 350.364594,494.418823 
	C350.847015,494.799988 352.154205,494.137268 353.078125,493.959595 
	C358.055542,496.487701 362.936829,499.232117 368.031494,501.496399 
	C377.123932,505.537476 386.194733,509.712067 395.556061,513.038757 
	C404.437744,516.195007 413.578033,518.824829 422.799927,520.751160 
	C428.884125,522.022034 435.316101,521.969482 441.588257,521.925476 
	C453.178589,521.843933 464.935608,522.428772 476.302856,520.668030 
	C486.041748,519.159485 496.228546,518.445618 505.366241,513.665527 
	C508.990448,511.769653 513.202637,511.031830 517.062012,509.545868 
	C533.823059,503.092529 549.205566,494.266327 562.980774,482.685944 
	C564.605103,481.320404 566.469299,480.240234 568.782837,479.226318 
	C571.146545,478.515167 573.372437,478.005646 574.678894,476.625702 
	C580.017456,470.986816 585.110291,465.112701 590.224609,459.264893 
	C593.991577,454.957581 598.283081,450.942352 601.229126,446.118042 
	C607.573608,435.728394 613.561096,425.077362 618.917114,414.152100 
	C620.664307,410.588257 624.512939,406.882935 621.950806,401.985931 
	C623.582397,396.181519 625.394775,390.420197 626.792847,384.560059 
	C628.095337,379.100586 629.291809,373.573975 629.924438,368.007538 
	C630.644348,361.673737 630.687500,355.263000 631.472961,348.436737 
	C635.310852,347.738861 635.011536,345.277069 634.948486,342.487122 
	C634.949646,326.363831 634.943665,310.706146 634.955750,294.577118 
	C634.980957,282.144348 635.112854,270.181244 634.952637,258.222107 
	C634.839539,249.786545 634.448792,241.348236 633.877930,232.931808 
	C633.784973,231.562408 632.111694,230.300217 631.168945,228.988464 
	C631.121643,226.950653 631.074280,224.912842 631.429565,222.393616 
	C632.862854,220.582794 633.893616,219.253387 634.931641,217.499313 
	C635.130737,215.075745 635.322510,213.076859 635.551270,210.692352 
	C636.937622,211.241943 637.691223,211.321793 638.109497,211.738373 
	C650.570068,224.148956 663.145874,236.449585 675.354248,249.104538 
	C680.007263,253.927811 682.870178,259.956146 683.148926,266.943878 
	C683.177490,267.660858 684.232788,268.336823 684.811646,269.031799 
	C684.838379,302.337433 684.904419,335.643127 684.848877,368.948608 
	C684.840698,373.868896 684.624878,378.847321 683.846313,383.692963 
	C682.886780,389.665405 681.509155,395.606079 679.819336,401.417145 
	C677.486267,409.439789 674.692688,417.328491 671.606201,425.642303 
	C668.200989,428.710236 664.873840,431.242767 667.046448,436.012878 
	C667.046448,436.012878 666.981384,436.497589 666.552795,436.766235 
	C665.416504,437.603088 664.423889,438.025818 664.047424,438.763184 
	C661.654297,443.450226 659.337830,448.179474 657.149780,452.965149 
	C656.753540,453.831757 657.068054,455.023346 657.054443,456.064911 
	C657.054443,456.064911 656.992737,456.027344 656.675415,456.070068 
	C653.248962,461.411255 650.139832,466.709778 646.677612,472.050537 
	C645.267395,473.064972 644.031738,473.903534 643.185547,475.033630 
	C640.336792,478.837891 637.997803,483.089813 634.793152,486.549103 
	C625.553101,496.523285 615.937805,506.148865 606.593811,516.028503 
	C605.063171,517.646790 604.160278,519.858826 602.967224,521.796448 
	C596.405457,527.949219 590.272095,534.608765 581.075134,537.169495 
	C579.325745,537.656494 578.470642,540.819397 576.683044,541.793701 
	C566.485962,547.351196 556.329224,553.055054 545.770264,557.854309 
	C536.695618,561.978943 527.185486,565.217407 517.698669,568.332153 
	C513.138794,569.829224 508.129608,569.899658 503.434265,571.062012 
	C500.031982,571.904236 496.829163,573.530884 493.497772,574.694275 
	C492.596741,575.008850 491.552521,574.976685 490.572296,574.991943 
	C470.826324,575.300232 451.080780,575.700806 431.333527,575.830872 
	C423.957794,575.879517 416.568390,575.424622 409.205383,574.910645 
	C406.896851,574.749512 404.669220,573.588318 402.378693,572.982483 
	C392.121918,570.269653 381.506775,568.490173 371.682312,564.672119 
	C359.647858,559.995239 348.078674,553.983826 336.674408,547.866821 
	C327.789581,543.101257 319.027557,537.868958 311.005890,531.794373 
	C301.789124,524.814880 293.240967,516.899475 284.796387,508.971039 
	C278.720490,503.266510 272.942169,497.158966 267.669586,490.709259 
	C262.412750,484.278839 257.696106,477.361603 253.209793,470.358521 
	C248.215363,462.562225 243.433395,454.592529 239.150635,446.389404 
	C235.697327,439.775024 232.958557,432.766541 230.212036,425.810791 
	C227.976181,420.148407 225.999985,414.363312 224.288406,408.521362 
	C223.173904,404.717316 222.739868,400.713867 222.268799,396.117065 
	C222.338669,392.576752 222.532822,389.611572 221.790054,386.903381 
	C221.370575,385.373932 219.409821,384.267181 218.143311,382.970062 
z"/>
<path fill="currentColor" opacity="1.000000" stroke="none" 
	d="
M436.061127,438.967468 
	C444.760864,439.015991 453.512268,439.661560 462.143188,438.914825 
	C468.488007,438.365936 474.705017,436.104309 480.925659,434.410034 
	C490.907349,431.691376 500.146149,427.010254 508.220795,420.829773 
	C515.198608,415.488800 521.067566,408.621338 527.064758,402.096039 
	C535.151123,393.297577 539.488770,382.162537 543.643372,371.336029 
	C546.734192,363.281494 548.351929,354.547699 548.311646,345.439636 
	C547.995483,273.967926 548.119873,202.494232 548.115173,131.021149 
	C548.114929,127.189468 548.028137,123.349434 548.245544,119.528305 
	C548.492310,115.191429 552.981873,112.933662 556.003113,115.993446 
	C569.938416,130.106628 585.631958,142.599182 596.812622,159.282013 
	C600.176208,164.300934 601.983704,169.976120 601.799194,176.931259 
	C601.434937,179.377197 601.045837,181.013107 601.044922,182.649261 
	C601.013489,238.476044 601.005615,294.302856 601.071106,350.129578 
	C601.073547,352.216583 601.842163,354.302673 602.253784,356.389191 
	C601.811523,361.487488 602.060913,366.766266 600.787109,371.647552 
	C597.879517,382.789276 596.552429,394.422028 589.445251,404.310120 
	C585.687927,409.537628 584.179382,416.335846 580.707642,421.825439 
	C576.087585,429.130768 570.828369,436.085876 565.332336,442.771057 
	C556.282959,453.778412 545.120544,462.705048 533.331299,470.370605 
	C522.232239,477.587402 510.004303,482.913055 497.224213,487.242249 
	C476.383606,494.301849 455.136749,493.091339 433.894958,492.664551 
	C427.492737,492.535919 421.183563,488.968262 414.754028,488.673950 
	C408.163544,488.372253 402.346497,486.435516 396.516937,484.011200 
	C390.070831,481.330475 383.353088,479.022614 377.427399,475.438446 
	C369.113159,470.409546 360.954529,464.899658 353.570526,458.608246 
	C342.213959,448.932037 332.129944,438.036346 323.883057,425.359467 
	C318.580933,417.209198 314.068573,408.889740 310.963562,399.733215 
	C310.499725,398.365326 309.675232,397.119781 309.284912,395.176636 
	C309.254303,392.318481 309.407776,389.901459 308.538239,387.937317 
	C307.563019,385.734467 305.662659,383.941162 304.164795,381.969696 
	C302.794861,373.655975 300.342255,365.355347 300.241394,357.026276 
	C299.791748,319.881653 300.009979,282.728943 299.995148,245.579132 
	C299.986694,224.392487 300.213898,203.202560 299.898712,182.020599 
	C299.748138,171.901535 303.223297,162.945816 308.428131,154.946609 
	C312.239746,149.088577 318.254791,144.670807 323.251709,139.575745 
	C329.917206,132.779373 336.446411,125.845299 343.244141,119.184677 
	C345.887451,116.594673 348.768646,113.728935 353.891327,115.634109 
	C353.891327,117.326942 353.891174,119.419907 353.891327,121.512863 
	C353.897217,197.145386 353.768005,272.778412 354.055664,348.409882 
	C354.098511,359.673187 358.254120,370.243561 362.541412,380.752289 
	C366.581635,390.655334 372.155060,399.463165 379.168762,407.112061 
	C384.555267,412.986420 391.670105,417.296844 398.121552,422.163239 
	C400.602417,424.034607 404.085541,424.976105 405.860901,427.297943 
	C409.199005,431.663483 414.291107,431.046814 418.424835,432.990173 
	C419.992432,433.727142 421.615448,434.346191 423.618073,435.426361 
	C425.020630,436.203094 426.018341,436.572418 427.016022,436.941772 
	C427.450562,436.975555 427.885071,437.009308 428.669220,437.476898 
	C430.772186,442.221832 433.669678,438.908478 436.061127,438.967468 
z"/>
<path fill="currentColor" opacity="1.000000" stroke="none" 
	d="
M383.167084,138.990112 
	C383.119812,137.926926 383.072571,136.863754 383.471130,135.343781 
	C384.943054,133.124603 386.795227,131.389984 386.855560,129.595108 
	C387.153564,120.727356 386.977539,111.843666 386.972137,102.502403 
	C386.982056,98.298653 387.154449,94.546989 386.905396,90.823540 
	C386.817902,89.515823 385.696075,88.277298 385.046570,87.007172 
	C384.368408,80.924538 387.004761,75.725296 390.115173,70.239258 
	C393.397552,66.863762 396.041138,63.743710 398.582214,60.542347 
	C398.747559,60.334080 398.126282,59.501419 397.870941,58.959209 
	C405.773560,50.483643 413.625763,41.960064 421.619720,33.571571 
	C423.289337,31.819555 425.326935,30.254610 427.482391,29.180044 
	C429.260101,28.293791 431.746155,27.490511 433.386780,28.094442 
	C434.678131,28.569820 435.888580,31.244432 435.893616,32.945854 
	C436.027740,78.233589 436.032898,123.521866 435.950500,168.809845 
	C435.942352,173.284424 437.578156,175.429932 442.877228,175.275665 
	C449.409515,175.368408 455.203308,175.185074 460.997070,175.001755 
	C467.086884,174.766342 467.998138,173.838287 467.998352,167.833420 
	C467.999756,122.852249 467.999146,77.871078 467.999176,32.889912 
	C467.999176,30.749105 467.999207,28.608297 467.999207,26.565401 
	C472.273468,25.267609 474.508850,27.061001 477.099670,29.950808 
	C482.328278,35.782692 488.284485,40.959965 493.905914,46.442783 
	C497.234955,49.689770 500.497772,53.004696 503.618042,56.688194 
	C503.110077,57.556610 502.442780,58.403088 502.486145,58.441242 
	C504.995270,60.647362 507.563324,62.786469 510.125610,64.932129 
	C510.727386,65.642395 511.548431,66.259598 511.895721,67.077881 
	C514.315002,72.777985 516.658020,78.511040 518.953552,84.262238 
	C519.174133,84.814865 518.903992,85.563354 518.383667,86.644073 
	C515.753540,89.912170 516.353210,98.490150 518.891479,100.767693 
	C519.108337,100.962296 519.517761,100.942360 519.837708,101.022087 
	C519.892090,121.962410 519.982605,142.902710 519.992615,163.843048 
	C520.008545,197.253326 519.970947,230.663620 519.690857,264.860962 
	C519.294434,266.964661 519.050232,268.281250 519.048828,269.598083 
	C519.023804,293.080261 519.028320,316.562439 519.026489,340.044647 
	C516.442017,340.695465 513.868408,341.851990 511.271179,341.907806 
	C501.122772,342.125885 490.965942,342.071442 480.814331,341.947174 
	C477.910126,341.911621 474.703064,341.934570 472.222839,340.725006 
	C470.601593,339.934418 469.165039,336.985016 469.138519,334.982819 
	C468.902649,317.176361 468.999664,299.365509 468.999176,281.555939 
	C468.998749,265.077942 468.903168,248.598984 469.062836,232.122513 
	C469.105804,227.687408 467.615723,225.792450 463.029999,225.938477 
	C455.713867,226.171463 448.375000,226.231094 441.064850,225.918472 
	C436.336090,225.716248 434.993866,228.037170 434.998016,232.098938 
	C435.007355,241.253387 435.000916,250.407837 435.000916,259.562286 
	C435.000916,282.365173 435.042938,305.168243 434.962860,327.970856 
	C434.948090,332.172607 434.438904,336.372620 434.066315,341.942749 
	C418.385284,341.942749 403.201050,341.948395 388.016876,341.912079 
	C387.613861,341.911133 387.211975,341.454407 386.358215,340.603821 
	C385.601990,337.727844 385.112000,335.465668 385.020630,333.187531 
	C384.027832,308.437714 387.138824,283.574341 382.950531,258.911804 
	C382.975098,228.586639 382.999634,198.261459 383.459106,167.411377 
	C384.928345,165.197021 386.745026,163.556641 386.854645,161.809189 
	C387.226990,155.873795 387.279785,149.878555 386.820190,143.955414 
	C386.685242,142.216293 384.443359,140.640671 383.167084,138.990112 
z"/>
<path fill="currentColor" opacity="1.000000" stroke="none" 
	d="
M602.614441,356.183258 
	C601.842163,354.302673 601.073547,352.216583 601.071106,350.129578 
	C601.005615,294.302856 601.013489,238.476044 601.044922,182.649261 
	C601.045837,181.013107 601.434937,179.377197 601.825562,177.364151 
	C602.659241,178.540161 603.877197,180.092255 603.879761,181.646378 
	C603.974304,238.368652 603.962830,295.091095 603.912170,351.813507 
	C603.910950,353.201721 603.301025,354.589386 602.614441,356.183258 
z"/>
<path fill="#BFBFBF" opacity="1.000000" stroke="none" 
	d="
M382.574524,258.966919 
	C387.138824,283.574341 384.027832,308.437714 385.020630,333.187531 
	C385.112000,335.465668 385.601990,337.727844 385.980774,340.398163 
	C384.240082,340.798889 382.425476,340.798889 380.008118,340.798889 
	C380.008118,331.794617 380.008087,322.727600 380.008087,313.660583 
	C380.008087,304.708984 380.614105,295.703857 379.829865,286.821503 
	C379.111328,278.683441 383.472015,270.467346 380.576599,262.446228 
	C379.929474,262.236084 379.282349,262.025909 378.635223,261.815765 
	C379.822998,260.884521 381.010742,259.953278 382.574524,258.966919 
z"/>
<path fill="currentColor" opacity="1.000000" stroke="none" 
	d="
M519.372864,339.925293 
	C519.028320,316.562439 519.023804,293.080261 519.048828,269.598083 
	C519.050232,268.281250 519.294434,266.964661 519.688721,265.330444 
	C521.254944,263.517303 522.648621,263.032928 523.547302,265.235229 
	C524.017151,266.386688 523.965759,267.794647 523.967407,269.086975 
	C523.993896,290.221039 523.885864,311.356201 524.094238,332.488281 
	C524.130798,336.196960 522.884583,338.383911 519.372864,339.925293 
z"/>
<path fill="currentColor" opacity="1.000000" stroke="none" 
	d="
M684.897949,268.584656 
	C684.232788,268.336823 683.177490,267.660858 683.148926,266.943878 
	C682.870178,259.956146 680.007263,253.927811 675.354248,249.104538 
	C663.145874,236.449585 650.570068,224.148956 638.109497,211.738373 
	C637.691223,211.321793 636.937622,211.241943 635.551270,210.692352 
	C635.322510,213.076859 635.130737,215.075745 634.557800,217.520523 
	C633.171875,217.983170 632.167114,217.999954 631.162354,218.016724 
	C631.111511,215.862549 630.713806,213.639587 631.122986,211.576630 
	C631.433167,210.012817 632.525391,207.746658 633.712585,207.424179 
	C635.315125,206.988907 637.918274,207.524918 639.097656,208.669098 
	C649.618958,218.876465 659.572083,229.695175 670.425171,239.524841 
	C676.468689,244.998398 680.669739,251.393005 683.888184,258.521027 
	C685.152344,261.320679 684.670837,264.908569 684.897949,268.584656 
z"/>
<path fill="currentColor" opacity="1.000000" stroke="none" 
	d="
M621.571899,402.026245 
	C624.512939,406.882935 620.664307,410.588257 618.917114,414.152100 
	C613.561096,425.077362 607.573608,435.728394 601.229126,446.118042 
	C598.283081,450.942352 593.991577,454.957581 590.224609,459.264893 
	C585.110291,465.112701 580.017456,470.986816 574.678894,476.625702 
	C573.372437,478.005646 571.146545,478.515167 569.155945,479.166016 
	C570.230713,477.198090 571.354797,475.363129 572.777893,473.800568 
	C580.957886,464.819244 589.980530,456.481232 597.232178,446.811249 
	C605.530396,435.745636 612.795532,423.810242 617.319458,410.490082 
	C618.307983,407.579437 619.886230,404.869110 621.571899,402.026245 
z"/>
<path fill="currentColor" opacity="1.000000" stroke="none" 
	d="
M631.086243,229.451416 
	C632.111694,230.300217 633.784973,231.562408 633.877930,232.931808 
	C634.448792,241.348236 634.839539,249.786545 634.952637,258.222107 
	C635.112854,270.181244 634.980957,282.144348 634.580811,294.562561 
	C633.181274,295.008606 632.174866,294.997833 631.168457,294.987091 
	C631.113464,273.296173 631.058533,251.605255 631.086243,229.451416 
z"/>
<path fill="currentColor" opacity="1.000000" stroke="none" 
	d="
M631.086609,295.450256 
	C632.174866,294.997833 633.181274,295.008606 634.562622,295.033936 
	C634.943665,310.706146 634.949646,326.363831 634.572937,342.501343 
	C633.182678,342.991455 632.175110,343.001740 631.167603,343.012024 
	C631.113281,327.312469 631.059021,311.612946 631.086609,295.450256 
z"/>
<path fill="currentColor" opacity="1.000000" stroke="none" 
	d="
M603.318481,521.844116 
	C604.160278,519.858826 605.063171,517.646790 606.593811,516.028503 
	C615.937805,506.148865 625.553101,496.523285 634.793152,486.549103 
	C637.997803,483.089813 640.336792,478.837891 643.185547,475.033630 
	C644.031738,473.903534 645.267395,473.064972 646.948669,472.055725 
	C647.753662,472.025055 647.934509,472.031525 648.115295,472.037964 
	C644.456665,477.339417 641.112976,482.896698 637.064270,487.881348 
	C631.249695,495.040070 625.155457,502.008606 618.734070,508.625000 
	C614.088318,513.411865 608.717346,517.494873 603.318481,521.844116 
z"/>
<path fill="currentColor" opacity="1.000000" stroke="none" 
	d="
M386.968689,102.965599 
	C386.977539,111.843666 387.153564,120.727356 386.855560,129.595108 
	C386.795227,131.389984 384.943054,133.124603 383.541382,134.949692 
	C383.121063,124.656723 383.076355,114.301071 383.481201,103.478439 
	C384.943390,102.996178 385.956024,102.980888 386.968689,102.965599 
z"/>
<path fill="currentColor" opacity="1.000000" stroke="none" 
	d="
M383.085693,139.453156 
	C384.443359,140.640671 386.685242,142.216293 386.820190,143.955414 
	C387.279785,149.878555 387.226990,155.873795 386.854645,161.809189 
	C386.745026,163.556641 384.928345,165.197021 383.530701,166.948212 
	C383.113007,157.978699 383.058655,148.947433 383.085693,139.453156 
z"/>
<path fill="currentColor" opacity="1.000000" stroke="none" 
	d="
M270.925293,214.623260 
	C269.197662,214.068985 267.557098,213.108582 265.631256,211.981155 
	C262.474365,213.998749 258.596680,216.476990 254.355164,218.974854 
	C257.816223,215.080597 261.346375,210.802063 265.573395,207.385727 
	C268.229828,205.238770 270.824188,208.487747 270.925293,214.623260 
z"/>
<path fill="currentColor" opacity="1.000000" stroke="none" 
	d="
M352.945221,493.631958 
	C352.154205,494.137268 350.847015,494.799988 350.364594,494.418823 
	C344.450073,489.746002 338.642151,484.937164 332.864899,480.094025 
	C332.498383,479.786804 332.613525,478.904968 332.692261,477.977234 
	C339.524048,482.877441 346.168182,488.090851 352.945221,493.631958 
z"/>
<path fill="currentColor" opacity="1.000000" stroke="none" 
	d="
M386.972107,102.502403 
	C385.956024,102.980888 384.943390,102.996178 383.550293,103.015564 
	C383.549316,97.798073 383.928711,92.576469 384.677368,87.181015 
	C385.696075,88.277298 386.817902,89.515823 386.905396,90.823540 
	C387.154449,94.546989 386.982056,98.298653 386.972107,102.502403 
z"/>
<path fill="currentColor" opacity="1.000000" stroke="none" 
	d="
M235.628723,237.004425 
	C235.487335,238.557190 235.454041,240.545258 234.489349,241.838699 
	C231.566483,245.757706 228.318176,249.438461 225.100235,253.127930 
	C224.637543,253.658432 223.643951,253.725891 222.537247,254.016785 
	C224.073151,250.734756 225.662628,247.209534 227.953461,244.222153 
	C230.004440,241.547562 232.828156,239.465576 235.628723,237.004425 
z"/>
<path fill="currentColor" opacity="1.000000" stroke="none" 
	d="
M657.430298,456.008423 
	C657.068054,455.023346 656.753540,453.831757 657.149780,452.965149 
	C659.337830,448.179474 661.654297,443.450226 664.047424,438.763184 
	C664.423889,438.025818 665.416504,437.603088 666.486816,437.001709 
	C664.774597,442.193237 662.782349,447.453369 660.566223,452.617493 
	C660.020325,453.889526 658.745728,454.848846 657.430298,456.008423 
z"/>
<path fill="currentColor" opacity="1.000000" stroke="none" 
	d="
M460.901947,174.577759 
	C455.203308,175.185074 449.409515,175.368408 443.306824,175.272217 
	C443.089050,174.512619 443.189941,173.610748 443.270050,173.612595 
	C449.116669,173.747147 454.961700,173.953323 460.901947,174.577759 
z"/>
<path fill="currentColor" opacity="1.000000" stroke="none" 
	d="
M332.195404,476.820374 
	C330.827484,477.017242 328.632904,477.540619 327.882172,476.728790 
	C324.563934,473.140442 321.660950,469.168060 318.861359,465.148468 
	C323.421173,468.818939 327.727264,472.675629 332.195404,476.820374 
z"/>
<path fill="currentColor" opacity="1.000000" stroke="none" 
	d="
M648.429932,471.891968 
	C647.934509,472.031525 647.753662,472.025055 647.301758,472.013458 
	C650.139832,466.709778 653.248962,461.411255 656.710205,456.077698 
	C654.289673,461.277100 651.517090,466.511536 648.429932,471.891968 
z"/>
<path fill="currentColor" opacity="1.000000" stroke="none" 
	d="
M519.921021,100.565002 
	C519.517761,100.942360 519.108337,100.962296 518.891479,100.767693 
	C516.353210,98.490150 515.753540,89.912170 518.257446,87.010803 
	C519.074219,91.338890 519.539307,95.723404 519.921021,100.565002 
z"/>
<path fill="currentColor" opacity="1.000000" stroke="none" 
	d="
M218.061554,383.381592 
	C219.409821,384.267181 221.370575,385.373932 221.790054,386.903381 
	C222.532822,389.611572 222.338669,392.576752 222.273438,395.715698 
	C220.666779,391.929047 219.323273,387.861084 218.061554,383.381592 
z"/>
<path fill="currentColor" opacity="1.000000" stroke="none" 
	d="
M304.085480,382.358093 
	C305.662659,383.941162 307.563019,385.734467 308.538239,387.937317 
	C309.407776,389.901459 309.254303,392.318481 309.273376,394.768616 
	C307.331696,390.916565 305.668945,386.831512 304.085480,382.358093 
z"/>
<path fill="currentColor" opacity="1.000000" stroke="none" 
	d="
M397.556000,59.077324 
	C398.126282,59.501419 398.747559,60.334080 398.582214,60.542347 
	C396.041138,63.743710 393.397552,66.863762 390.414978,70.011284 
	C392.448425,66.411697 394.844727,62.803566 397.556000,59.077324 
z"/>
<path fill="currentColor" opacity="1.000000" stroke="none" 
	d="
M245.592636,227.086548 
	C248.522690,229.933929 245.322678,231.142181 243.916534,232.387299 
	C242.151794,233.949982 239.776230,234.822876 237.288757,235.977020 
	C239.701813,233.040604 242.490402,230.120636 245.592636,227.086548 
z"/>
<path fill="currentColor" opacity="1.000000" stroke="none" 
	d="
M315.895691,460.686249 
	C311.515442,459.631042 307.911346,457.556274 307.862305,452.159729 
	C310.743500,454.751556 313.353424,457.545654 315.895691,460.686249 
z"/>
<path fill="currentColor" opacity="1.000000" stroke="none" 
	d="
M667.427734,435.973511 
	C664.873840,431.242767 668.200989,428.710236 671.475342,425.987854 
	C670.492676,429.288483 669.150818,432.611298 667.427734,435.973511 
z"/>
<path fill="currentColor" opacity="1.000000" stroke="none" 
	d="
M510.078186,64.560150 
	C507.563324,62.786469 504.995270,60.647362 502.486145,58.441242 
	C502.442780,58.403088 503.110077,57.556610 503.759094,57.036522 
	C506.058563,59.386543 508.044647,61.787365 510.078186,64.560150 
z"/>
<path fill="currentColor" opacity="1.000000" stroke="none" 
	d="
M631.097351,343.425049 
	C632.175110,343.001740 633.182678,342.991455 634.565735,342.966980 
	C635.011536,345.277069 635.310852,347.738861 631.546875,347.999908 
	C631.124146,346.620728 631.075623,345.229401 631.097351,343.425049 
z"/>
<path fill="currentColor" opacity="1.000000" stroke="none" 
	d="
M435.845215,438.653381 
	C433.669678,438.908478 430.772186,442.221832 428.990723,437.538391 
	C431.184845,437.557159 433.407074,437.948212 435.845215,438.653381 
z"/>
<path fill="currentColor" opacity="1.000000" stroke="none" 
	d="
M253.648239,219.026154 
	C252.188965,220.958542 250.383377,222.925720 248.226654,224.915741 
	C249.684341,222.979370 251.493134,221.020142 253.648239,219.026154 
z"/>
<path fill="currentColor" opacity="1.000000" stroke="none" 
	d="
M631.091919,218.412964 
	C632.167114,217.999954 633.171875,217.983170 634.550476,217.945190 
	C633.893616,219.253387 632.862854,220.582794 631.500488,221.961914 
	C631.119690,220.944138 631.070618,219.876663 631.091919,218.412964 
z"/>
<path fill="currentColor" opacity="1.000000" stroke="none" 
	d="
M426.987854,436.566315 
	C426.018341,436.572418 425.020630,436.203094 423.994263,435.492920 
	C424.963623,435.498322 425.961639,435.844604 426.987854,436.566315 
z"/>
<path fill="currentColor" opacity="1.000000" stroke="none" 
	d="
M316.991882,462.625244 
	C316.569336,463.049866 316.099823,463.238708 315.630341,463.427551 
	C315.649200,463.035980 315.668060,462.644409 315.909546,462.105194 
	C316.490112,461.937653 316.761047,462.081604 316.991882,462.625244 
z"/>
</svg>